<svg xmlns="http://www.w3.org/2000/svg" width="78.005" height="66.015" viewBox="0 0 78.005 66.015">
  <path id="Icon" d="M972,7341.007a8.961,8.961,0,0,1-9-9V7299a23.382,23.382,0,0,1,1.9-9.308,23.779,23.779,0,0,1,12.8-12.8,23.386,23.386,0,0,1,9.308-1.9h3a3.039,3.039,0,0,1,3,3v6a3.039,3.039,0,0,1-3,3h-3a12,12,0,0,0-12,12v1.5a4.482,4.482,0,0,0,4.5,4.5H990a8.958,8.958,0,0,1,9,9v18a8.961,8.961,0,0,1-9,9Zm-42,0a8.964,8.964,0,0,1-9-9V7299a23.384,23.384,0,0,1,1.9-9.308,23.78,23.78,0,0,1,12.8-12.8,23.39,23.39,0,0,1,9.306-1.9h3a3.042,3.042,0,0,1,3,3v6a3.042,3.042,0,0,1-3,3h-3a12,12,0,0,0-12,12v1.5a4.482,4.482,0,0,0,4.5,4.5H948a8.961,8.961,0,0,1,9,9v18a8.961,8.961,0,0,1-9,9Z" transform="translate(-920.997 -7274.992)" fill="#ff957f"/>
</svg>
