<svg xmlns="http://www.w3.org/2000/svg" xmlns:xlink="http://www.w3.org/1999/xlink" width="103.63" height="87.447" viewBox="0 0 103.63 87.447">
  <defs>
    <filter id="Path_1" x="0" y="15.918" width="103.63" height="71.529" filterUnits="userSpaceOnUse">
      <feOffset dy="3" input="SourceAlpha"/>
      <feGaussianBlur stdDeviation="4" result="blur"/>
      <feFlood flood-color="#ff957f" flood-opacity="0.8"/>
      <feComposite operator="in" in2="blur"/>
      <feComposite in="SourceGraphic"/>
    </filter>
    <filter id="Ellipse_14" x="35.183" y="0" width="33.265" height="33.265" filterUnits="userSpaceOnUse">
      <feOffset dy="3" input="SourceAlpha"/>
      <feGaussianBlur stdDeviation="4" result="blur-2"/>
      <feFlood flood-color="#ff957f" flood-opacity="0.8"/>
      <feComposite operator="in" in2="blur-2"/>
      <feComposite in="SourceGraphic"/>
    </filter>
    <filter id="Ellipse_15" x="55.932" y="13.415" width="33.265" height="33.265" filterUnits="userSpaceOnUse">
      <feOffset dy="3" input="SourceAlpha"/>
      <feGaussianBlur stdDeviation="4" result="blur-3"/>
      <feFlood flood-color="#ff957f" flood-opacity="0.8"/>
      <feComposite operator="in" in2="blur-3"/>
      <feComposite in="SourceGraphic"/>
    </filter>
    <filter id="Ellipse_16" x="14.433" y="13.415" width="33.265" height="33.265" filterUnits="userSpaceOnUse">
      <feOffset dy="3" input="SourceAlpha"/>
      <feGaussianBlur stdDeviation="4" result="blur-4"/>
      <feFlood flood-color="#ff957f" flood-opacity="0.8"/>
      <feComposite operator="in" in2="blur-4"/>
      <feComposite in="SourceGraphic"/>
    </filter>
  </defs>
  <g id="Component_5_1" data-name="Component 5 – 1" transform="translate(12 9)">
    <g transform="matrix(1, 0, 0, 1, -12, -9)" filter="url(#Path_1)">
      <path id="Path_1-2" data-name="Path 1" d="M542.645,492.637c-1.306-1.305-3.378-2.143-14.242,1.908a110.929,110.929,0,0,0-13.294,5.947c-.58-1.471-1.089-2.682-1.414-3.437-5.953-13.86-8.362-13.86-9.8-13.86s-3.849,0-9.8,13.86c-.324.755-.834,1.966-1.413,3.437a110.9,110.9,0,0,0-13.295-5.947c-10.864-4.051-12.935-3.214-14.241-1.908-1.018,1.018-2.722,2.722,2.869,16.732,1.209,3.03,5.44,13.2,9.116,16.877a15.4,15.4,0,0,0,18.79,2.227,15.253,15.253,0,0,0,15.952,0,15.393,15.393,0,0,0,18.79-2.227c3.676-3.677,7.907-13.847,9.116-16.877C545.367,495.359,543.663,493.655,542.645,492.637Zm-61.412,29.5c-3.5-3.5-9.636-18.419-11.065-24.464a101.4,101.4,0,0,1,20.5,8.338c-1.125,3.4-2.062,6.964-2.062,9.42a15.2,15.2,0,0,0,2.805,8.81A9.549,9.549,0,0,1,481.233,522.14Zm13.178-6.706c0-4.96,6.221-19.865,9.483-25.138,3.262,5.273,9.483,20.178,9.483,25.138a9.483,9.483,0,1,1-18.966,0Zm32.143,6.706a9.546,9.546,0,0,1-10.176,2.1,15.2,15.2,0,0,0,2.806-8.81c0-2.456-.938-6.023-2.062-9.42a101.372,101.372,0,0,1,20.5-8.338C536.191,503.721,530.058,518.636,526.554,522.14Z" transform="translate(-452.08 -458.28)" fill="#ff957f"/>
    </g>
    <g transform="matrix(1, 0, 0, 1, -12, -9)" filter="url(#Ellipse_14)">
      <circle id="Ellipse_14-2" data-name="Ellipse 14" cx="4.632" cy="4.632" r="4.632" transform="translate(47.18 9)" fill="#ff957f"/>
    </g>
    <g transform="matrix(1, 0, 0, 1, -12, -9)" filter="url(#Ellipse_15)">
      <circle id="Ellipse_15-2" data-name="Ellipse 15" cx="4.632" cy="4.632" r="4.632" transform="translate(67.93 22.41)" fill="#ff957f"/>
    </g>
    <g transform="matrix(1, 0, 0, 1, -12, -9)" filter="url(#Ellipse_16)">
      <circle id="Ellipse_16-2" data-name="Ellipse 16" cx="4.632" cy="4.632" r="4.632" transform="translate(26.43 22.41)" fill="#ff957f"/>
    </g>
  </g>
</svg>
