<svg xmlns="http://www.w3.org/2000/svg" width="84.779" height="97.8" viewBox="0 0 84.779 97.8">
  <path id="Path_7846" data-name="Path 7846" d="M22.792,65.576H7.63A1.63,1.63,0,0,0,6,67.206a9.758,9.758,0,0,0,9.782,9.782H30.455a1.632,1.632,0,0,0,1.49-.968l3.4-7.653V79.574l-4.561,4.562L17.11,82.7a8.582,8.582,0,1,0-.9,17.117H80.573a8.576,8.576,0,0,0,.016-17.151,7.46,7.46,0,0,0-.92.041L66,84.142l-4.567-4.568V68.368l3.4,7.653a1.632,1.632,0,0,0,1.49.968H81a9.758,9.758,0,0,0,9.782-9.782,1.63,1.63,0,0,0-1.63-1.63H73.987l-3.014-8.263a14.48,14.48,0,0,0-2.915-4.784c11.27-.051,20.2-8.235,20.572-8.584a1.631,1.631,0,0,0,0-2.387c-.337-.312-7.584-6.934-17.218-8.319,5.866-7.8,6.308-17.638,6.323-18.1a1.631,1.631,0,0,0-.476-1.211,1.593,1.593,0,0,0-1.21-.477c-.461.017-10.328.459-18.136,6.353-1.36-9.674-8.015-16.957-8.329-17.3a1.681,1.681,0,0,0-2.388,0c-.315.338-6.969,7.622-8.329,17.3-7.807-5.895-17.674-6.337-18.136-6.353a1.578,1.578,0,0,0-1.21.477,1.631,1.631,0,0,0-.476,1.211c.016.458.454,10.242,6.337,18.1-9.641,1.381-16.9,8.008-17.232,8.321a1.631,1.631,0,0,0,0,2.387c.376.349,9.3,8.533,20.571,8.584a14.456,14.456,0,0,0-2.911,4.777Zm7.06,30.977H16.212a5.327,5.327,0,0,1-5.321-5.321,5.323,5.323,0,0,1,5.3-5.323,5.4,5.4,0,0,1,.576.03L67.2,91.248a2.659,2.659,0,0,1-.279,5.3Zm50.19-10.61a4.122,4.122,0,0,1,.548-.02,5.315,5.315,0,0,1-.016,10.63H72.185a5.846,5.846,0,0,0,.66-2.66,5.908,5.908,0,0,0-5.3-5.888l-3.55-.374ZM71.313,67.765a1.63,1.63,0,0,0,1.532,1.072h14.47A6.489,6.489,0,0,1,81,73.728H67.382l-6.09-13.705a1.631,1.631,0,0,0-3.121.662V80.249a1.631,1.631,0,0,0,.478,1.153l3.178,3.179-13.41,1.411-13.46-1.417L38.13,81.4a1.631,1.631,0,0,0,.478-1.153V60.685a1.631,1.631,0,0,0-3.121-.662L29.4,73.728H15.782a6.489,6.489,0,0,1-6.318-4.891H23.934a1.63,1.63,0,0,0,1.532-1.072l3.41-9.349A11.4,11.4,0,0,1,39.585,50.9H57.194a11.4,11.4,0,0,1,10.712,7.521ZM44.492,47.642a38.159,38.159,0,0,0,3.9-2.749,38.164,38.164,0,0,0,3.9,2.749Zm23.462,1.63c-6.4,0-12.1-3.111-15.425-5.383,4.227-.759,10.944-2.709,16.19-7.634,7.235.279,13.507,4.4,16.236,6.5-2.823,2.167-9.44,6.521-17,6.521ZM66.882,33.527c-4.55,4.551-10.828,6.381-14.777,7.113,2.46-3.535,5.831-9.656,6.037-16.783,5.325-4.982,12.73-6.512,16.153-6.963-.46,3.509-2.051,11.213-7.413,16.633ZM48.391,6.183c2.167,2.817,6.52,9.418,6.52,17,0,7.561-4.358,14.181-6.523,17-2.167-2.817-6.52-9.418-6.52-17C41.868,15.625,46.226,9.006,48.391,6.183ZM38.637,23.857c.206,7.128,3.579,13.252,6.039,16.786-3.949-.733-10.24-2.575-14.854-7.191-5.289-5.346-6.875-13.05-7.337-16.561,3.419.445,10.811,1.967,16.152,6.966Zm-10.584,12.4c5.2,4.93,11.948,6.878,16.193,7.636-3.321,2.272-9.027,5.381-15.421,5.381-7.561,0-14.178-4.355-17-6.521,2.729-2.092,9-6.214,16.229-6.5Z" transform="translate(-6 -2.014)" fill="#fff"/>
</svg>
