<svg xmlns="http://www.w3.org/2000/svg" width="71.692" height="80.317" viewBox="0 0 71.692 80.317">
  <path id="Path_7852" data-name="Path 7852" d="M97.128,72.271H87.689a16.281,16.281,0,0,0,8.571-13.847A1.184,1.184,0,0,0,95.077,57.2H87.093a1.184,1.184,0,0,0,0,2.369H93.8a13.878,13.878,0,0,1-27.563,0H81.78a1.184,1.184,0,0,0,0-2.369H64.97a1.184,1.184,0,0,0-1.184,1.219,16.281,16.281,0,0,0,8.571,13.847h-10V38.236A14.084,14.084,0,0,0,48.292,24.168h-.76V21.4a7.133,7.133,0,0,0,5.939-7.023c0-3.506-5.482-12.757-6.107-13.8a1.184,1.184,0,0,0-2.032,0c-.625,1.043-6.107,10.294-6.107,13.8A7.133,7.133,0,0,0,45.163,21.4v2.769H31.478a1.184,1.184,0,0,0-1.184,1.184V41.74a1.184,1.184,0,1,0,2.369,0V30.073a26.52,26.52,0,0,0,1.623,2.311c3.4,4.312,7.559,6.592,12.041,6.592,7.509,0,11.928-.107,13.664-.16V72.271H32.663V47.052a1.184,1.184,0,1,0-2.369,0V72.271H27.8a1.184,1.184,0,0,0-1.184,1.184v5.678A1.184,1.184,0,0,0,27.8,80.317H97.128a1.184,1.184,0,0,0,1.184-1.184V73.455A1.184,1.184,0,0,0,97.128,72.271ZM41.593,14.376c0-1.844,2.605-7.045,4.754-10.837C48.5,7.331,51.1,12.531,51.1,14.376a4.754,4.754,0,1,1-9.508,0Zm4.734,22.23c-7.112,0-11.382-6.976-12.925-10.069H45.163v3.82a1.184,1.184,0,0,0,2.369,0v-3.82h.76a11.717,11.717,0,0,1,11.563,9.912C58.1,36.5,53.734,36.606,46.327,36.606ZM95.943,77.948H28.989V74.639H95.943Z" transform="translate(-26.62 0)" fill="#fff"/>
</svg>
