<svg id="Group_4254" data-name="Group 4254" xmlns="http://www.w3.org/2000/svg" width="86.533" height="89.342" viewBox="0 0 86.533 89.342">
  <g id="Group_4253" data-name="Group 4253" transform="translate(0 0)">
    <path id="Path_7841" data-name="Path 7841" d="M90.027,4.636a15.835,15.835,0,0,0-22.31-.057,42,42,0,0,0-6.129-2.453A45.029,45.029,0,0,0,48.223,0C38.757.01,30.5,3.982,26.67,10.372a16.1,16.1,0,0,0-1.265,2.617c-1.8,1.718-9.945,10.131-9.945,22.061,0,7.946-3.822,12.094-6.1,13.86a3.21,3.21,0,0,0,.394,5.333c.858.482,1.824.946,2.757,1.393.825.4,2,.959,2.57,1.325v3.108a3.267,3.267,0,0,1-.241,1.235l-.433,1.065a4.5,4.5,0,0,0,.566,4.384v.383A3.8,3.8,0,0,0,16.3,70.027v2.049a7.972,7.972,0,0,0,7.963,7.963h5.152a1.745,1.745,0,0,0,0-3.49H24.267a4.478,4.478,0,0,1-4.473-4.473V69.065a1.745,1.745,0,0,0-1.06-1.6l-.075-.032a.317.317,0,0,1-.193-.292v-.985a1.746,1.746,0,0,0-.374-1.079l-.308-.391a1,1,0,0,1-.141-1l.433-1.065a6.741,6.741,0,0,0,.5-2.548V56.354c0-1.681-1.713-2.5-4.551-3.865-.745-.357-1.511-.725-2.189-1.088,2.806-2.29,7.118-7.287,7.118-16.352,0-6.56,2.92-12.026,5.453-15.535a22.16,22.16,0,0,0,2.76,9.4c4.478,8.376,12.277,11.887,18.543,14.707C51.67,46.31,55.044,48,55.071,51.511c.02,2.579-.573,4.476-1.763,5.639A4.864,4.864,0,0,1,50.1,58.459a1.715,1.715,0,0,0-1.491.68,1.743,1.743,0,0,0-.246,1.635,25.26,25.26,0,0,0,4.117,7.068c3.537,4.269,8,6.521,12.98,6.571L70.15,88.16a1.745,1.745,0,1,0,3.3-1.127L68.835,73.5A35.944,35.944,0,0,0,86.579,52.48a42.321,42.321,0,0,0,.472-23.137A15.822,15.822,0,0,0,90.027,4.636Zm-6.772,46.78a32.675,32.675,0,0,1-17.013,19.5C62,71.1,58.295,69.349,55.234,65.694a22.245,22.245,0,0,1-2.712-4.138A8,8,0,0,0,55.69,59.7c1.933-1.851,2.9-4.616,2.871-8.218-.045-5.92-5.571-8.407-11.421-11.041C41.056,37.7,34.159,34.6,30.242,27.273c-2.434-4.552-3.006-8.88-1.709-12.675l.016-.044a12.736,12.736,0,0,1,1.116-2.389C32.87,6.816,39.99,3.493,48.246,3.493h.05A41.8,41.8,0,0,1,60.546,5.456c8.91,2.791,15.474,7.992,19.508,15.457A39.9,39.9,0,0,1,83.255,51.417Zm2.752-25.561a43.764,43.764,0,0,0-2.884-6.6A34.3,34.3,0,0,0,70.93,6.37,12.327,12.327,0,1,1,86.008,25.855Z" transform="translate(-8.12 0)" fill="#fff"/>
  </g>
</svg>
