<svg xmlns="http://www.w3.org/2000/svg" width="94.533" height="91.427" viewBox="0 0 94.533 91.427">
  <g id="physical-therapy" transform="translate(0 -8.412)">
    <path id="Path_7835" data-name="Path 7835" d="M92.259,76.527H86.651A9.14,9.14,0,0,0,89.6,71.448a12.364,12.364,0,0,0,.023-4.429,15.969,15.969,0,0,1,.112-5.8h0c.4-1.771.108-3.1-.859-3.951C87.708,56.239,85.8,56.2,83.2,57.14a6.512,6.512,0,0,0-2.188,1.328,10.4,10.4,0,0,0-12.527,4.164,21.487,21.487,0,0,0-6.542-2.851,1.385,1.385,0,0,0-.7,2.68,18.371,18.371,0,0,1,5.967,2.656c-.043.116-.084.233-.124.35a10.012,10.012,0,0,0-.48,4.154,11.455,11.455,0,0,0,3.191,6.906H56.243V72.22h3.681a1.385,1.385,0,0,0,0-2.77H43.985V64.275a5.136,5.136,0,0,0,.523-.268,20.959,20.959,0,0,1,10.568-2.365H55.1a1.385,1.385,0,0,0,.022-2.769,28.577,28.577,0,0,0-4.636.3v-7.36a11.681,11.681,0,0,0,3.285-3.617,10.389,10.389,0,0,0,1.472-5.84c.015-.366.032-.766.056-1.211,0-.012,0-.025,0-.037s0-.024,0-.036v-3.4a7.313,7.313,0,0,0-7.3-7.3h-.484a11.07,11.07,0,0,0,3.423-7.262V20.265a12.083,12.083,0,0,0-3.306-8.771,10.534,10.534,0,0,0-7.342-3.081h-.044A10.542,10.542,0,0,0,32.9,11.494a12.078,12.078,0,0,0-3.309,8.772v2.842a11.067,11.067,0,0,0,3.426,7.262h-.487a7.147,7.147,0,0,0-6.376,3.846L18.091,47.309c-.912-1.638-3.173-5.159-5.846-5.364a2.678,2.678,0,0,0-2.3.655,2.524,2.524,0,0,0-.37,2.3l1.948,11.109a3.434,3.434,0,0,0,.96,2.292,2.958,2.958,0,0,0,2.373.373c.186-.02.4-.042.634-.064a15.681,15.681,0,0,1,7.833,1.26,23.354,23.354,0,0,1,3.106,1.728v7.422H15.16c-1.629,0-1.673-.093-1.883-.536-.271-.574-2.746-5.618-6.118-5.877a2.675,2.675,0,0,0-2.3.657,2.5,2.5,0,0,0-.364,2.308L6.41,76.527H2.269A2.272,2.272,0,0,0,0,78.8V89.651a2.275,2.275,0,0,0,2.269,2.275H5.721V94.5a5.348,5.348,0,0,0,5.341,5.342h72.4A5.348,5.348,0,0,0,88.807,94.5V91.926h3.451a2.277,2.277,0,0,0,2.275-2.275V78.8a2.275,2.275,0,0,0-2.275-2.269Zm-9.717-8.233c-1.114-2.421-1.336-4.691-.627-6.391a3.772,3.772,0,0,1,2.228-2.159,7.064,7.064,0,0,1,2.306-.512,1.053,1.053,0,0,1,.6.117c.047.042.184.379-.015,1.266h0a18.774,18.774,0,0,0-.161,6.724,10.19,10.19,0,0,1,.034,3.47c-.786,3.3-2.7,4.9-7.212,5.465l.036-.031C83.561,72.936,83.373,70.094,82.542,68.294ZM69.356,69.327a7.223,7.223,0,0,1,.356-2.99A8.329,8.329,0,0,1,76.4,60.6a7.911,7.911,0,0,1,2.955.245c-1.008,2.422-.771,5.479.67,8.61,1.355,2.935-3.8,6.056-5.439,6.955a8.31,8.31,0,0,1-5.231-7.081ZM53.473,72.22v4.307H41.421a2.158,2.158,0,0,1,.206-4.307ZM47.716,59.741a18.831,18.831,0,0,0-4.606,1.875l-.074.043c-.154-.182-.354-.438-.538-.674-.225-.289-.506-.648-.842-1.061a29.473,29.473,0,0,0-2.8-2.889l7.627-3.077c.4-.161.813-.339,1.236-.536v6.32ZM35.69,55.324a1.718,1.718,0,0,1-1.274-3.191l.037-.015,7-3.031,1.645,3.251Zm4.576-44.142c3.445.064,7.121,2.417,7.792,7.412-3.025-.577-9.2-1.812-9.915-2h0a4.46,4.46,0,0,0-1.119-.149A5.139,5.139,0,0,0,34,17.637a7.689,7.689,0,0,1-1.524.892c.694-4.95,4.355-7.283,7.788-7.347ZM32.361,23.107v-1.65a8.774,8.774,0,0,0,3.222-1.546c.908-.632,1.2-.806,1.866-.634h0c.5.129,7.679,1.6,10.717,2.157v1.674c0,2.38-2.272,5.868-5.4,7.359a1.4,1.4,0,0,0-.128.058c-.172.078-.345.152-.521.217a5.264,5.264,0,0,1-1.847.381,5.332,5.332,0,0,1-1.846-.379c-.168-.063-.336-.134-.5-.21a1.406,1.406,0,0,0-.137-.064C34.871,29.073,32.361,25.733,32.361,23.107Zm11.1,10.078V33.6a3.453,3.453,0,0,1-3.195,3.656,3.455,3.455,0,0,1-3.2-3.656v-.416q.2.083.395.157a7.415,7.415,0,0,0,5.612,0Q43.268,33.267,43.461,33.186ZM28.512,35.668c1.107-1.8,2.272-2.529,4.018-2.529H34.3V33.6a6.217,6.217,0,0,0,5.97,6.425A6.215,6.215,0,0,0,46.231,33.6v-.463H48a4.54,4.54,0,0,1,4.535,4.535v3.362c-.023.441-.04.839-.055,1.2-.092,2.2-.12,2.864-1.1,4.573-1.12,1.942-2.836,3.292-5.7,4.484l-1.688-3.337a6.2,6.2,0,0,0,1.752-1.374,1.372,1.372,0,0,0,.181-.236L47.584,43.6a1.385,1.385,0,1,0-2.367-1.438l-1.59,2.617A3.822,3.822,0,0,1,42.06,45.8l-8.692,3.766a4.44,4.44,0,0,0-1.923,1.5A17.8,17.8,0,0,0,27.5,49.515l2.82-4.584A1.385,1.385,0,1,0,27.96,43.48l-3.338,5.427c-1.338-.215-2.681-.35-3.982-.454ZM19.421,55.931a18.819,18.819,0,0,0-4.183-.083c-.253.023-.833.085-.911.093C14.3,55.793,12.371,44.8,12.371,44.8c1.094.465,2.742,2.619,3.646,4.518a2.653,2.653,0,0,0,1.792,1.724c.862.111,1.489.093,1.774.112.366.026.738.055,1.112.086ZM29.2,63.8a10.86,10.86,0,0,1,3.227,4.745,10.342,10.342,0,0,1-3.227.425Zm-11.618,7.99H26.3c5.375,0,7.225-.317,8.248-1.414a2.486,2.486,0,0,0,.65-1.928c-.175-2.556-3.7-7.848-10.713-11.091a16.4,16.4,0,0,0-2.348-.859l1.344-4.955a18.5,18.5,0,0,1,7.084,2.224A4.486,4.486,0,0,0,35.9,58.137a29.123,29.123,0,0,1,3.614,3.541c.315.386.573.717.8,1.01a11.544,11.544,0,0,0,.9,1.067v5.714a4.925,4.925,0,0,0-4.023,7.058H17.581Zm-6.807-2.121c.933,1.967,2.545,2.109,4.038,2.12v4.742H9.221L7.283,65.447c1.1.432,2.652,2.44,3.491,4.218Zm80.99,19.492H50.572a1.385,1.385,0,1,0,0,2.77H86.038V94.5a2.575,2.575,0,0,1-2.572,2.572h-72.4A2.575,2.575,0,0,1,8.49,94.5V91.926H44.48a1.385,1.385,0,1,0,0-2.77H2.77V79.3H91.764Z" transform="translate(0 0)" fill="#fff"/>
  </g>
</svg>
