<svg xmlns="http://www.w3.org/2000/svg" width="80.345" height="80.373" viewBox="0 0 80.345 80.373">
  <path id="Path_7838" data-name="Path 7838" d="M77.749.027V24.6a4.027,4.027,0,0,1-.205,1.27l-6.368,19.1L61.239,60.527a2.046,2.046,0,0,1-1.373.921,2.191,2.191,0,0,1-2.284-3.17c2.329-4.229,6.612-12.08,6.612-12.08a1.354,1.354,0,0,0,.117-.289l1.083-3.971,4.257-13.384L67.1,27.742,62.833,41.156l.01,0c-.006.019-.02.032-.025.05A2.353,2.353,0,0,1,58.24,40.13L60.316,29.75a1.376,1.376,0,0,0,.025-.263V25.565a21.382,21.382,0,0,1,6.3-15.217,1.339,1.339,0,0,0,.392-.947V.027H64.358V8.855a24.36,24.36,0,0,0-2.525,3.154,25.4,25.4,0,0,0-43.158,0,24.362,24.362,0,0,0-2.524-3.153V.027H13.473V9.4a1.339,1.339,0,0,0,.392.947,21.382,21.382,0,0,1,6.3,15.218v3.922a1.372,1.372,0,0,0,.026.263L22.27,40.129a2.353,2.353,0,0,1-4.577,1.08c-.005-.019-.02-.032-.025-.05l.01,0L13.41,27.742l-2.553.812,4.257,13.384L16.2,45.908a1.354,1.354,0,0,0,.117.289s4.283,7.85,6.612,12.08a2.148,2.148,0,0,1-.675,2.791,2.069,2.069,0,0,1-1.608.38,2.044,2.044,0,0,1-1.373-.921L9.335,44.975l-6.368-19.1A4,4,0,0,1,2.76,24.6V.027H.082V24.6a6.668,6.668,0,0,0,.344,2.117L6.847,45.98a1.333,1.333,0,0,0,.141.3L17.013,61.969a4.762,4.762,0,0,0,3.153,2.114,4.65,4.65,0,0,0,.833.075,4.865,4.865,0,0,0,2.927-1c.053-.04.094-.089.145-.131.1.109.185.228.284.335A21.185,21.185,0,0,0,26.864,65.7v5.081a24.82,24.82,0,0,1-1.271,7.827,1.339,1.339,0,0,0,1.271,1.761H53.645a1.339,1.339,0,0,0,1.271-1.761,24.82,24.82,0,0,1-1.271-7.827V65.7a21.132,21.132,0,0,0,2.5-2.331c.1-.113.2-.234.3-.35.072.06.132.129.208.186a4.745,4.745,0,0,0,6.643-.948q.107-.142.2-.293L73.521,46.277a1.333,1.333,0,0,0,.141-.3l6.422-19.262a6.693,6.693,0,0,0,.342-2.116V.027ZM59.965,15.3c-.347-.426-.708-.824-1.073-1.214l.664-.664c.248.4.483.807.708,1.224-.108.214-.2.437-.3.654Zm-1.97-4.1-1.02,1.021a24.874,24.874,0,0,0-3.2-2.389l1.48-1.48a22.621,22.621,0,0,1,2.738,2.848ZM29.18,8.484,27.392,6.7a22.618,22.618,0,0,1,4.185-2.281l1.306,2.61a24.336,24.336,0,0,0-3.7,1.459Zm6.377-2.1L34.142,3.554a22.745,22.745,0,0,1,4.774-.783v3.2a24.873,24.873,0,0,0-3.359.408Zm6.037-3.631a22.871,22.871,0,0,1,4.787.787L44.954,6.384a25.031,25.031,0,0,0-3.36-.409Zm7.34,1.668a22.55,22.55,0,0,1,4.195,2.265l-1.8,1.8a24.357,24.357,0,0,0-3.7-1.46ZM25.27,8.362l1.462,1.462a24.6,24.6,0,0,0-3.2,2.389l-1.006-1.006a22.6,22.6,0,0,1,1.624-1.835c.359-.357.741-.68,1.118-1.011Zm-4.319,5.055.666.666c-.365.392-.728.789-1.073,1.213-.1-.216-.19-.438-.3-.651.225-.416.455-.828.7-1.228Zm30.9,64.278h-23.2a27.43,27.43,0,0,0,.887-6.91V67.573a21.744,21.744,0,0,0,2.028,1.034,21.39,21.39,0,0,0,17.371,0,21.788,21.788,0,0,0,2.025-1.033v3.211A27.426,27.426,0,0,0,51.854,77.694Zm2.308-16.119a18.577,18.577,0,0,1-6.309,4.584,18.8,18.8,0,0,1-15.2,0,18.588,18.588,0,0,1-6.32-4.6c-.247-.269-.471-.551-.7-.829a4.749,4.749,0,0,0-.364-3.749C23.339,53.472,20.053,47.456,19,45.528A5.03,5.03,0,0,0,24.9,39.6l-.907-4.536c1.184.116,2.376.2,3.572.2a36.318,36.318,0,0,0,6.229-.533l-.46-2.638a33.953,33.953,0,0,1-9.892.218l-.59-2.955v-2.31A14.4,14.4,0,0,1,33.23,25.978l.659-2.6a17.284,17.284,0,0,0-11.111.728A24.157,24.157,0,0,0,21.7,18.227a22.433,22.433,0,0,1,2.219-2.707c.072-.081.153-.161.235-.245.069-.069.136-.138.271-.256a22.235,22.235,0,0,1,5.124-3.731A21.774,21.774,0,0,1,35.127,9.2a22.538,22.538,0,0,1,10.271,0,21.753,21.753,0,0,1,5.571,2.086,22.276,22.276,0,0,1,5.137,3.747c.179.167.344.333.53.531a21.9,21.9,0,0,1,2.174,2.655,24.145,24.145,0,0,0-1.078,5.884,17.3,17.3,0,0,0-11.111-.728l.659,2.6a14.383,14.383,0,0,1,10.383,1.067v2.31l-.616,3.082a33.6,33.6,0,0,1-8.527-.345l-.46,2.639a36.09,36.09,0,0,0,6.155.524c.764,0,1.526-.029,2.284-.077L55.613,39.6a5.031,5.031,0,0,0,5.9,5.924c-1.053,1.928-4.336,7.944-6.272,11.457a4.715,4.715,0,0,0-.357,3.742c-.235.283-.461.568-.717.848Z" transform="translate(-0.082 0)" fill="#fff"/>
</svg>
