<svg width="21" height="20" viewBox="0 0 21 20" fill="none" xmlns="http://www.w3.org/2000/svg">
<path fill-rule="evenodd" clip-rule="evenodd" d="M5.54339 16.9518C6.25739 16.9518 6.83839 17.5318 6.83839 18.2458C6.83839 18.9598 6.25739 19.5408 5.54339 19.5408C4.82939 19.5408 4.24939 18.9598 4.24939 18.2458C4.24939 17.5318 4.82939 16.9518 5.54339 16.9518ZM16.8237 16.9518C17.5387 16.9518 18.1197 17.5318 18.1197 18.2458C18.1197 18.9598 17.5387 19.5408 16.8237 19.5408C16.1097 19.5408 15.5297 18.9598 15.5297 18.2458C15.5297 17.5318 16.1097 16.9518 16.8237 16.9518ZM1.26759 0.0093993L3.34759 0.369399C3.68259 0.428399 3.93759 0.706399 3.96659 1.0464L4.20159 3.8474L5.07544 3.84778C5.21804 3.84784 5.35912 3.8479 5.49871 3.84797L7.10302 3.84873C7.2309 3.84879 7.35735 3.84886 7.48238 3.84892L9.25378 3.84989C9.36506 3.84996 9.47501 3.85002 9.58364 3.85009L10.825 3.85088C10.9233 3.85095 11.0204 3.85101 11.1163 3.85108L12.2081 3.85188C12.2943 3.85195 12.3793 3.85202 12.4632 3.85209L13.4151 3.85291C13.49 3.85297 13.5638 3.85304 13.6365 3.85311L14.2621 3.85373C14.3285 3.8538 14.3939 3.85387 14.4582 3.85394L15.1828 3.85478C15.2393 3.85485 15.2949 3.85492 15.3495 3.85499L15.9613 3.85585C16.0087 3.85592 16.0552 3.85599 16.1009 3.85606L16.4898 3.85671C16.5305 3.85679 16.5704 3.85686 16.6096 3.85693L17.0427 3.85781C17.0758 3.85788 17.1082 3.85796 17.1399 3.85803L17.4065 3.8587C17.4341 3.85877 17.461 3.85885 17.4873 3.85892L17.773 3.85982C17.7945 3.8599 17.8153 3.85997 17.8356 3.86005L18.0034 3.86073C18.0204 3.86081 18.037 3.86089 18.053 3.86096L18.2227 3.86189C18.2351 3.86196 18.247 3.86204 18.2584 3.86212L18.3509 3.86282C18.3601 3.8629 18.3688 3.86298 18.3772 3.86306L18.4438 3.86377C18.4503 3.86385 18.4564 3.86393 18.4623 3.86401L18.5076 3.86472C18.5118 3.8648 18.5159 3.86488 18.5197 3.86496L18.5483 3.86569C18.5509 3.86577 18.5534 3.86585 18.5557 3.86593L18.5764 3.86691C18.5777 3.86699 18.5789 3.86708 18.58 3.86716C18.5897 3.86807 18.5912 3.86823 18.5926 3.8684C19.1496 3.9494 19.6396 4.2404 19.9736 4.6884C20.3076 5.1354 20.4476 5.6864 20.3676 6.2384L19.4186 12.7964C19.2396 14.0444 18.1556 14.9854 16.8956 14.9854H5.97459C4.65759 14.9854 3.54259 13.9574 3.43559 12.6424L2.51959 1.7484L1.01259 1.4884C0.603593 1.4164 0.330593 1.0294 0.400593 0.620399C0.472593 0.211399 0.867593 -0.0546007 1.26759 0.0093993ZM4.87483 5.34774L4.32759 5.3474L4.93059 12.5194C4.97459 13.0714 5.42559 13.4854 5.97659 13.4854H16.8936C17.4146 13.4854 17.8596 13.0974 17.9336 12.5824L18.8836 6.0234C18.9056 5.8674 18.8666 5.7114 18.7716 5.5854C18.6776 5.4584 18.5396 5.3764 18.3836 5.3544C18.3764 5.35468 18.3591 5.35493 18.3323 5.35516L18.2235 5.35578C18.2008 5.35587 18.1757 5.35596 18.1485 5.35604L17.582 5.3569C17.5342 5.35694 17.4845 5.35697 17.433 5.35699L16.101 5.35694C16.0267 5.35691 15.9509 5.35688 15.8739 5.35684L14.3538 5.35592C14.2627 5.35585 14.1706 5.35578 14.0776 5.35571L13.2175 5.35502C13.1195 5.35494 13.0208 5.35486 12.9214 5.35477L12.0103 5.35397C11.9074 5.35388 11.8041 5.35379 11.7002 5.35369L11.0727 5.35312C10.9674 5.35302 10.8617 5.35292 10.7559 5.35282L9.79819 5.35193C9.69141 5.35183 9.58456 5.35173 9.4777 5.35163L8.83706 5.35103C8.73044 5.35093 8.62395 5.35084 8.51763 5.35074L7.88243 5.35016C7.77709 5.35007 7.67205 5.34997 7.56738 5.34988L6.63687 5.34908C6.53495 5.34899 6.43357 5.34891 6.33281 5.34883L5.15688 5.34793C5.06199 5.34787 4.96795 5.3478 4.87483 5.34774ZM15.2875 7.5437C15.7015 7.5437 16.0375 7.8797 16.0375 8.2937C16.0375 8.7077 15.7015 9.0437 15.2875 9.0437H12.5155C12.1005 9.0437 11.7655 8.7077 11.7655 8.2937C11.7655 7.8797 12.1005 7.5437 12.5155 7.5437H15.2875Z" fill="#1C1D40"/>
</svg>
