<?xml version="1.0" standalone="no"?>
<!DOCTYPE svg PUBLIC "-//W3C//DTD SVG 1.1//EN" "http://www.w3.org/Graphics/SVG/1.1/DTD/svg11.dtd" >
<svg xmlns="http://www.w3.org/2000/svg" xmlns:xlink="http://www.w3.org/1999/xlink" version="1.1">
<metadata>
Created by FontForge 20190801 at Fri Jan  1 01:00:00 1904
 By Jimmy Wärting
MiniMax Ltd.
</metadata>
<defs>
<font id="TimesBold" horiz-adv-x="1602" >
  <font-face 
    font-family="Times"
    font-weight="700"
    font-stretch="normal"
    units-per-em="4096"
    panose-1="2 11 -30 0 0 0 0 0 0 0"
    ascent="3276"
    descent="-820"
    x-height="2060"
    cap-height="2847"
    bbox="-393 -893 4694 3703"
    underline-thickness="0"
    underline-position="0"
    unicode-range="U+0020-F002"
  />
<missing-glyph horiz-adv-x="3072" 
d="M512 0v2560h2048v-2560h-2048zM2496 64v2432h-1920v-2432h1920z" />
    <glyph glyph-name=".notdef" horiz-adv-x="3072" 
d="M512 0v2560h2048v-2560h-2048zM2496 64v2432h-1920v-2432h1920z" />
    <glyph glyph-name=".null" horiz-adv-x="0" 
 />
    <glyph glyph-name="nonmarkingreturn" horiz-adv-x="0" 
 />
    <glyph glyph-name="space" unicode=" " 
 />
    <glyph glyph-name="exclam" unicode="!" horiz-adv-x="901" 
d="M422 913h-115q-4 162 -30.5 330t-66.5 346.5t-79 347.5q-98 392 -98 525q0 166 82.5 281.5t244.5 115.5q172 0 252 -112.5t80 -284.5q0 -174 -94 -525q-39 -169 -79 -347.5t-66.5 -346.5t-30.5 -330zM33 270q0 144 102.5 234t224.5 90q126 0 229 -90t103 -234
q0 -81 -42 -152.5t-118 -115t-172 -43.5q-140 0 -233.5 94.5t-93.5 216.5z" />
    <glyph glyph-name="quotedbl" unicode="&#x22;" horiz-adv-x="2015" 
d="M217 1589l-78 66q67 55 168 204t119 332v33q0 74 -131 74q-2 0 -8 -2t-8 -2q-128 0 -197.5 83.5t-69.5 202.5q0 144 89 261t231 120h20q171 0 276 -136.5t105 -354.5l4 -8q-9 -123 -52.5 -249t-155 -282.5t-312.5 -341.5zM1286 1589l-69 66q259 259 286 536q0 70 -8 86
q-20 21 -74 21h-49q-2 0 -8 -2t-8 -2q-124 0 -209.5 97t-85.5 230q0 3 2 11t2 10q16 132 108 222.5t236 96.5h21q167 0 271.5 -131.5t104.5 -339.5v-28q-7 -189 -117.5 -396t-402.5 -477z" />
    <glyph glyph-name="numbersign" unicode="#" horiz-adv-x="3617" 
d="M2191 -242h-389l152 746h-811l-152 -746h-377l148 746h-758l78 389h749l160 819h-758l74 397h762l143 775h385l-151 -775h815l147 775h381l-143 -775h750l-74 -397h-750l-164 -819h762l-69 -389h-766zM2032 893l159 819h-819l-160 -819h820z" />
    <glyph glyph-name="dollar" unicode="$" horiz-adv-x="2150" 
d="M1753 2073l-111 8q-58 217 -194 411.5t-383 210.5v-901q230 -167 412 -322.5t320.5 -353.5t139.5 -401v-20q0 -139 -74 -292.5t-268.5 -284t-529.5 -177.5v-639h-209v639q-461 0 -815 164v749h115q67 -403 269 -554t431 -167v979q-249 190 -414 338.5t-285 340.5
t-120 403q0 10 2 33t2 32q12 146 102 289.5t270 242.5t443 103v324h209v-324q221 -14 377.5 -50.5t310.5 -129.5v-651zM856 2707q-107 -19 -203 -90t-96 -213q0 -7 4 -27t4 -30q34 -210 291 -389v749zM1065 164q154 6 243 108t89 244q0 258 -332 463v-815z" />
    <glyph glyph-name="percent" unicode="%" horiz-adv-x="3572" 
d="M25 2400q0 213 82.5 398.5t244.5 297t385 111.5h8q227 0 388.5 -115.5t243 -302.5t81.5 -397q0 -208 -81.5 -396t-243 -303.5t-388.5 -115.5q-2 0 -8 -2t-8 -2q-330 0 -517 242.5t-187 584.5zM442 2400q-8 -114 -8 -164q0 -184 45.5 -303t114.5 -170t143 -51
q122 0 217 115.5t95 396.5q0 39 -9 176q9 131 9 168q0 262 -92.5 381t-206.5 119h-13q-73 0 -143 -50t-115 -166.5t-45 -295.5q0 -48 8 -156zM2630 3273l168 -90l-1950 -3670l-189 -349l-188 86l1970 3675zM1925 106q0 232 86.5 418t250.5 292t388 106q228 0 391.5 -113.5
t246.5 -299t83 -390.5q0 -154 -46 -298.5t-138 -258t-227.5 -180t-309.5 -66.5h-8q-217 0 -380.5 106t-250 286.5t-86.5 397.5zM2351 106q-1 -21 -4 -51t-5.5 -62t-2.5 -46q0 -262 94.5 -381t212.5 -119q120 0 217.5 117t97.5 387q0 49 -8 155q8 116 8 160
q0 279 -96.5 397.5t-218.5 118.5q-120 0 -213.5 -119t-93.5 -393q0 -15 2.5 -48t5.5 -65t4 -51z" />
    <glyph glyph-name="ampersand" unicode="&#x26;" horiz-adv-x="2994" 
d="M1831 1122q42 81 89.5 174t81.5 187.5t34 175.5q0 206 -230 250v86h815v-86q-137 -53 -233.5 -157.5t-155.5 -219t-142 -309.5t-132 -281l348 -549q57 -93 97 -146t130.5 -103t231.5 -66v-78h-1123v78q123 16 123 110q0 57 -32 117t-99 174q-224 -252 -442 -390
t-492 -138h-28q-317 6 -480 201.5t-163 457.5q0 237 110.5 438t288.5 359t416 305q-221 353 -221 643q0 7 -2.5 18.5t-2.5 14.5q0 176 78 323.5t220 233.5t325 86q167 0 294 -70t195 -185.5t68 -248.5v-28q-8 -171 -115 -325t-303 -343zM1270 2023q131 111 194.5 251
t63.5 270v36q-12 116 -77.5 184.5t-172.5 74.5h-16q-127 0 -190.5 -78.5t-63.5 -196.5q0 -129 73 -254zM975 1520q-418 -332 -418 -709q1 -124 60.5 -214t156 -136.5t201.5 -46.5q2 0 10 2t10 2q253 15 504 266z" />
    <glyph glyph-name="quotesingle" unicode="'" horiz-adv-x="950" 
d="M225 1532l-78 65q77 68 173 206t114 327q0 6 2 17t2 16q0 78 -135 78q-3 0 -8.5 -2.5t-7.5 -2.5q-123 0 -203 97t-80 231q0 2 2 10t2 11q6 131 96.5 222t235.5 97h16q168 0 274.5 -139t106.5 -352l4 -9q-15 -200 -121 -402.5t-395 -469.5z" />
    <glyph glyph-name="parenleft" unicode="(" horiz-adv-x="1483" 
d="M1278 2904v-102q-176 -133 -306.5 -321.5t-215 -524t-84.5 -842.5q0 -499 84.5 -826t215.5 -512t306 -321v-94q-309 90 -602 362.5t-474.5 646t-181.5 744.5q0 282 105.5 572t288 542t408 429t456.5 247z" />
    <glyph glyph-name="parenright" unicode=")" horiz-adv-x="1483" 
d="M33 2904q223 -69 448.5 -248t406 -428.5t287.5 -540t107 -573.5q0 -281 -106.5 -565t-288.5 -529.5t-406 -419t-448 -239.5v94q125 102 224.5 222.5t183 309t133 466.5t49.5 661q0 504 -83.5 841.5t-211 526t-295.5 320.5v102z" />
    <glyph glyph-name="asterisk" unicode="*" horiz-adv-x="2060" 
d="M905 1864l-82 -430q-55 -295 -221 -295q-4 0 -14 2t-15 2q-68 6 -146.5 53.5t-133.5 115t-55 126.5l4 8q0 134 213 246l389 209l-29 81l-430 -61q-7 0 -42 -4t-56 -4q-226 0 -250 160q0 4 -2 16t-2 16q0 116 55 233.5t137 139.5q7 0 21 2t20 2q69 0 140.5 -43.5
t113.5 -91.5l320 -295l65 45l-188 393q-58 91 -58 176q0 102 76 170t203 68t200.5 -65.5t73.5 -167.5q0 -92 -53 -181l-184 -393l61 -45l316 295q146 135 254 135q6 0 22 -2t23 -2q78 -20 137 -134.5t59 -221.5q0 -10 -2 -27t-2 -22q-24 -160 -254 -160q-21 0 -56 4t-42 4
l-434 61l-21 -81l381 -209q217 -108 217 -246v-8q0 -59 -52.5 -126t-128.5 -115t-142 -54q-3 0 -16 -2t-17 -2q-164 0 -225 295l-70 430h-78z" />
    <glyph glyph-name="plus" unicode="+" horiz-adv-x="2507" 
d="M1307 266h-295v1000h-987v295h987v1011h295v-1011h1007v-295h-1007v-1000z" />
    <glyph glyph-name="comma" unicode="," horiz-adv-x="950" 
d="M225 -688l-78 57q261 261 287 533v28q0 48 -31.5 59t-99.5 11q-136 0 -211.5 88.5t-75.5 210.5q0 139 88.5 247.5t235.5 108.5h16q168 0 274.5 -139t106.5 -352l4 -8q-15 -184 -122 -384t-394 -460z" />
    <glyph glyph-name="hyphen" unicode="-" horiz-adv-x="1393" 
d="M45 1245h1143v-344h-1143v344z" />
    <glyph glyph-name="period" unicode="." horiz-adv-x="950" 
d="M45 295q0 163 104.5 249.5t251.5 86.5q143 0 250 -89.5t107 -246.5q0 -156 -109 -244t-252 -88q-142 0 -247 88t-105 244z" />
    <glyph glyph-name="slash" unicode="/" horiz-adv-x="1929" 
d="M37 -295l1380 3625h303l-1388 -3625h-295z" />
    <glyph glyph-name="zero" unicode="0" horiz-adv-x="2150" 
d="M41 1417q0 380 86.5 664.5t228.5 467t305 269t318 86.5h8q146 0 309.5 -85.5t309.5 -265t238.5 -467t92.5 -669.5q0 -388 -92.5 -672t-241 -459t-312.5 -255t-312 -80q-153 0 -317.5 85.5t-306 265t-228 459.5t-86.5 656zM639 1417v-856q0 -277 112 -376t232 -99
q117 0 226.5 102t109.5 373l8 856l-8 864q0 266 -111 373t-225 107q-118 0 -231 -103t-113 -377v-864z" />
    <glyph glyph-name="one" unicode="1" horiz-adv-x="1618" 
d="M53 2372v77q534 141 963 455v-2511q0 -180 81 -249.5t259 -69.5q6 0 23 2t22 2v-78h-1360v78q6 0 19 -2t18 -2q169 0 252.5 70t83.5 249v1667q0 320 -267 320q-28 0 -94 -8z" />
    <glyph glyph-name="two" unicode="2" horiz-adv-x="2105" 
d="M102 2118l-98 65q228 416 459 565t512 156h41q234 0 403 -97.5t253.5 -264.5t84.5 -367v-45q-8 -274 -151.5 -508t-311.5 -393l-663 -647h758q94 0 210.5 51t178.5 215h102l-238 -848h-1638v143q505 511 765 876.5t335.5 572t75.5 329.5v49q0 194 -77.5 319.5
t-193.5 181.5t-233 56h-17q-156 -9 -305 -116t-252 -293z" />
    <glyph glyph-name="three" unicode="3" horiz-adv-x="2150" 
d="M487 1380v140q216 6 390.5 88.5t276.5 218.5t108 291q0 176 -117 311t-334 135h-29q-161 -9 -319 -109t-258 -251l-115 94q404 606 975 606h45q234 -7 373.5 -97t192.5 -213.5t53 -246.5v-16q0 -211 -133 -371t-289 -248q170 -32 317.5 -127.5t238.5 -254t91 -363.5v-82
q-13 -205 -112 -407.5t-352 -356t-679 -170.5h-86q-309 0 -486.5 86.5t-213.5 204.5q-17 60 -17 94q0 103 72.5 166t173.5 63q164 0 254 -119q37 -41 98.5 -133t112 -141t129.5 -74q74 -24 119 -24q167 0 295.5 144t134.5 421v45q0 180 -75.5 337t-265 258t-507.5 101h-62z
" />
    <glyph glyph-name="four" unicode="4" horiz-adv-x="2195" 
d="M1970 1008h-8h-274v1896h-258l-1410 -1962v-373h1078v-569h590v569h282v439zM1098 1008h-799l799 1130v-1130z" />
    <glyph glyph-name="five" unicode="5" horiz-adv-x="2195" 
d="M1831 2290h-1221l-73 -267q23 0 63 2.5t72 2.5q307 0 539.5 -85t384.5 -231t226 -327.5t74 -376.5v-17q0 -286 -110.5 -492.5t-287.5 -328t-383.5 -176.5t-405.5 -55q-115 0 -201 12q-236 35 -351.5 138t-115.5 218q0 93 68 171.5t174 78.5q32 0 98 -16
q79 -27 134.5 -84.5t134 -159t144 -148.5t160.5 -47q5 0 19 2t18 2q168 8 310.5 152.5t168.5 372.5q0 11 2.5 37t2.5 49q0 191 -108 369.5t-373 297.5t-695 119h-143l454 1344h1364z" />
    <glyph glyph-name="six" unicode="6" horiz-adv-x="2150" 
d="M1790 2904v-115q-453 -93 -723.5 -321.5t-361.5 -652.5q161 69 352 69q175 0 338 -68.5t287 -191t197.5 -294t74.5 -367.5v-21q0 -193 -66 -372t-192.5 -319t-303.5 -220t-388 -80h-82q-427 25 -664.5 326t-237.5 800q0 9 2.5 29t2.5 37q7 478 242 879.5t637 636.5
t886 245zM651 1606q-61 -211 -61 -471q0 -16 2 -52t2 -55q63 -934 446 -934q5 0 15 2t14 2q307 23 307 492q0 574 -140.5 833.5t-346.5 259.5q-128 0 -238 -77z" />
    <glyph glyph-name="seven" unicode="7" horiz-adv-x="2150" 
d="M963 -49l-328 61l819 2249h-819q-216 0 -336.5 -48.5t-179.5 -217.5h-115l299 852h1622z" />
    <glyph glyph-name="eight" unicode="8" horiz-adv-x="2150" 
d="M676 1417q-197 152 -365 368t-168 447q0 2 2 11t2 10q7 149 99 298.5t288 251t494 101.5h53q273 -6 444 -99t242.5 -227t71.5 -268v-57q-11 -116 -82 -238t-189 -225.5t-261 -163.5q382 -287 514.5 -515.5t132.5 -389.5v-16q0 -173 -105 -347.5t-334.5 -290.5
t-576.5 -116h-49q-432 11 -641 214t-223 482q0 9 -2.5 22.5t-2.5 18.5q0 293 213.5 474.5t442.5 254.5zM791 1319q-318 -248 -349 -623q0 -4 -2 -14t-2 -14q0 -255 155 -425.5t370 -181.5q2 0 10 -2t10 -2q124 0 227 58t163.5 156t60.5 212v49q-16 149 -116.5 284t-239 255
t-287.5 248zM1204 1712q106 97 169 229t69 254v33q0 144 -70.5 266t-184 192.5t-229.5 70.5l-4 4q-134 -3 -226.5 -95.5t-92.5 -216.5q0 -4 2 -14t2 -14q5 -125 106.5 -266t222.5 -250.5t236 -192.5z" />
    <glyph glyph-name="nine" unicode="9" horiz-adv-x="2150" 
d="M233 -49v106q355 62 577 233t323 372.5t137 402.5q-177 -82 -365 -82q-16 0 -51 4t-55 4q-253 23 -424.5 151t-254.5 326t-83 437q0 2 2 12t2 12q6 197 73 374t187 312.5t287.5 212t365.5 76.5h17q193 0 368.5 -74.5t309.5 -223.5t211 -377t77 -529v-17
q0 -357 -132.5 -668t-371 -545.5t-545.5 -368.5t-655 -150zM1298 1274q37 294 37 504v57q-49 930 -413 930q-126 0 -229 -125.5t-103 -485.5q0 -254 29 -456.5t121.5 -346.5t267.5 -171q5 0 20 -2t25 -2q137 0 245 98z" />
    <glyph glyph-name="colon" unicode=":" horiz-adv-x="950" 
d="M45 295q0 163 104.5 249.5t251.5 86.5q143 0 250 -89.5t107 -246.5q0 -156 -109 -244t-252 -88q-142 0 -247 88t-105 244zM45 1561q0 173 101.5 266.5t246.5 93.5q143 0 254 -96.5t111 -263.5q0 -165 -106.5 -259t-250.5 -94q-143 0 -249.5 94t-106.5 259z" />
    <glyph glyph-name="semicolon" unicode=";" horiz-adv-x="995" 
d="M279 -688l-74 57q16 17 85.5 98t128 193t73.5 242q0 69 -24 83.5t-103 14.5q-136 0 -213.5 91t-77.5 212q0 86 39.5 168t114 133t173.5 51h17q104 0 190 -60t134.5 -166t48.5 -236v-37q-10 -390 -512 -844zM45 1561q0 166 106.5 257t254.5 91q143 0 249.5 -91t106.5 -257
q0 -162 -111 -255.5t-254 -93.5q-142 0 -247 93t-105 256z" />
    <glyph glyph-name="less" unicode="&#x3c;" horiz-adv-x="2327" 
d="M20 1417l1979 1155l131 -229l-1589 -926l1589 -921l-131 -230z" />
    <glyph glyph-name="equal" unicode="=" horiz-adv-x="2507" 
d="M25 1561v319h2289v-319h-2289zM25 958v308h2289v-308h-2289z" />
    <glyph glyph-name="greater" unicode="&#x3e;" horiz-adv-x="2372" 
d="M2150 1417l-1998 -1151l-115 230l1581 921l-1581 926l115 229z" />
    <glyph glyph-name="question" unicode="?" horiz-adv-x="1970" 
d="M836 836h-115q-16 114 -16 159q0 269 167 537q152 246 215.5 385t63.5 324v16q0 156 -62 268.5t-154.5 171t-184.5 68.5h-58q-94 0 -153.5 -47.5t-59.5 -108.5l4 -8q9 -25 48.5 -83.5t46.5 -84.5q57 -84 57 -184q0 -78 -39.5 -151t-110.5 -119t-157 -46l-9 4
q-112 0 -199 83t-100 233q0 6 -2 20t-2 21q0 156 98.5 297t292.5 227t465 86h58q268 -7 455 -105t280 -244.5t104 -305.5v-62q0 -220 -115.5 -361t-351 -318t-351 -316.5t-115.5 -355.5zM410 295q0 163 106.5 249.5t253.5 86.5q145 0 255 -89t110 -247q0 -155 -111.5 -243.5
t-257.5 -88.5q-145 0 -250.5 88t-105.5 244z" />
    <glyph glyph-name="at" unicode="@" horiz-adv-x="4375" 
d="M3297 2372l-315 -1078q-70 -216 -70 -364q0 -320 299 -320q178 0 329 126t242 350t101 511v62q0 311 -124 598.5t-355.5 510t-560 349.5t-721.5 127q-382 0 -710 -126.5t-574 -365.5t-381 -572.5t-138 -737.5q0 -2 -2 -8t-2 -9q0 -573 254 -977t663.5 -606t864.5 -207
q573 0 1036 361l164 -209q-530 -405 -1200 -426q-424 0 -803.5 145.5t-667.5 417t-449 645.5t-161 811l4 9q5 410 145 785.5t411 672t663.5 467.5t882.5 172h16q463 0 838.5 -155t636.5 -422t398.5 -608t137.5 -712q-2 -286 -98.5 -575t-324.5 -485.5t-593 -196.5q-2 0 -8 2
t-8 2q-165 0 -346 72.5t-293 296.5q-223 -210 -423.5 -285.5t-338.5 -75.5q-4 0 -14 -2t-14 -2q-223 0 -401 115.5t-282 313t-116 431.5q0 17 -2 49t-2 45q0 327 153 614t409.5 457t547.5 170h16q283 -5 451.5 -139.5t224.5 -249.5l86 226h524zM2576 1860q-3 35 -35 110.5
t-110 142t-207 70.5h-12q-212 0 -382.5 -147t-267 -379t-96.5 -469q0 -2 2 -8t2 -9q0 -218 101.5 -368t296.5 -156q2 0 6 -2t6 -2q162 0 274 98t177 217z" />
    <glyph glyph-name="A" unicode="A" horiz-adv-x="3215" 
d="M1815 762h-975l-144 -352q-28 -79 -28 -127q0 -205 389 -205v-78h-1032v78q171 0 260.5 71t156.5 244l1004 2511h78l1114 -2482q28 -66 64 -146.5t108 -136.5t201 -61v-78h-1303v78q8 0 27 -2t26 -2q111 0 170.5 56t59.5 149q0 68 -17 122zM1708 979l-414 971l-376 -971
h790z" />
    <glyph glyph-name="B" unicode="B" horiz-adv-x="2818" 
d="M381 393v2048q0 178 -87 251t-257 73h-33v82h1466q396 0 677.5 -127t289.5 -471v-49q0 -226 -134 -374t-301 -218t-294 -88v-45h74q219 0 403.5 -78.5t294 -230t109.5 -355.5q-1 -361 -217 -542.5t-458.5 -225t-467.5 -43.5h-1442v70q198 0 287.5 67t89.5 256zM979 238
q154 -78 315 -91q7 0 21 -2t20 -2q269 0 429.5 169t160.5 438v41q-14 268 -127 397t-251.5 158.5t-321.5 29.5h-238zM987 1569h230q319 0 466.5 163t147.5 390v45q-4 161 -80 271.5t-198 165t-263 54.5q-156 0 -311 -65l8 -180v-844z" />
    <glyph glyph-name="C" unicode="C" horiz-adv-x="2904" 
d="M2576 610l103 -114q-149 -160 -283 -262.5t-271.5 -165.5t-281.5 -90t-315 -27h-41q-417 7 -750.5 189t-523 505.5t-193.5 734.5q0 7 -2 21t-2 20q0 328 109.5 604t308 472.5t463 301.5t569.5 105h33q324 0 762 -201q2 0 8 -2t8 -2q51 0 83 46.5t32 113.5q0 8 -2 29
t-2 28h131l57 -1110h-114q-18 230 -115.5 442t-287 348t-462.5 136h-53q-228 -13 -396.5 -135t-276 -319t-157.5 -427t-50 -471q0 -416 127.5 -691t327.5 -408.5t425 -153.5q11 0 31 -2t31 -2q466 0 970 487z" />
    <glyph glyph-name="D" unicode="D" horiz-adv-x="3174" 
d="M430 393v2048q0 182 -89 253t-267 71h-41v82h1335q383 0 726 -95t595 -404.5t252 -889.5v-98q-22 -606 -327 -909.5t-630.5 -377t-594.5 -73.5h-1348v70q6 0 21 -2t20 -2q180 0 264 71t84 256zM1036 242q208 -86 410 -86q142 4 278.5 53.5t262 181t204.5 374.5t82 611
q0 568 -166 921t-596 353h-65q-230 -10 -402 -106z" />
    <glyph glyph-name="E" unicode="E" horiz-adv-x="2818" 
d="M1016 1520h520q176 0 262 132.5t86 313.5v16h94v-1142h-94q4 28 4 90q0 167 -94 280t-250 113h-528v-1110h680q604 0 827 655h86l-135 -868h-2454v57q5 0 13 -2t12 -2q356 0 356 377v1974q0 369 -348 369h-49v74h2335l78 -967h-78q-23 246 -164.5 487.5t-495.5 241.5
h-663v-1089z" />
    <glyph glyph-name="F" unicode="F" horiz-adv-x="2773" 
d="M422 393v2048q0 182 -88.5 253t-263.5 71h-37v82h2461l86 -975h-77q-46 340 -171 514.5t-256.5 223t-256.5 48.5h-791v-1069l524 -4q116 0 195.5 28.5t147.5 138t104 329.5h78v-1176h-78q-35 226 -103.5 332.5t-146 133t-184.5 26.5h-537v-1016q0 -153 102 -230t254 -77
q9 0 27 2t27 2v-78h-1405v78q6 0 20 -2t21 -2q180 0 264 69.5t84 249.5z" />
    <glyph glyph-name="G" unicode="G" horiz-adv-x="3260" 
d="M2593 1835h-86q-60 441 -317 622t-556 181h-12q-143 0 -357 -76t-405.5 -345.5t-191.5 -782.5q0 -19 2 -58t2 -57q18 -310 94.5 -532.5t199.5 -364t277.5 -208.5t325.5 -67q254 12 454 160v688q0 299 -335 299h-66v86h1413v-86h-74q-164 0 -246 -70t-85 -245v-750
q-93 -6 -185.5 -37t-224 -90.5t-188.5 -81.5q-266 -69 -566 -69q-340 3 -610.5 118.5t-455.5 315t-278.5 448t-96.5 515.5q0 13 -2.5 31.5t-2.5 25.5q0 394 198.5 742t533 556.5t714.5 208.5q171 0 349 -45q83 -11 149 -28.5t162 -48.5t143 -46q6 0 21 -2t20 -2
q83 0 119.5 56t36.5 108h78z" />
    <glyph glyph-name="H" unicode="H" horiz-adv-x="3486" 
d="M1032 1376v-983q0 -190 90 -256.5t291 -66.5v-70h-1368v70q134 0 215.5 26.5t123.5 96t42 200.5v2048q0 179 -84 251.5t-260 72.5h-37v82h1368v-82h-41q-174 0 -257 -72t-83 -252v-852h1245v852q0 180 -85.5 252t-270.5 72h-37v82h1381v-82h-41q-176 0 -260.5 -72.5
t-84.5 -251.5v-2048q0 -189 93 -256t293 -67v-70h-1381v70q210 0 301.5 66.5t91.5 256.5v983h-1245z" />
    <glyph glyph-name="I" unicode="I" horiz-adv-x="1704" 
d="M438 0h-389v70q137 0 220 26.5t126 96.5t43 200v2048q0 182 -89 253t-267 71h-41v82h1446v-82h-45q-180 0 -268.5 -70.5t-88.5 -253.5v-2048q0 -179 87 -249t270 -70q6 0 23 2t22 2v-78h-1049z" />
    <glyph glyph-name="J" unicode="J" horiz-adv-x="2150" 
d="M963 2441q0 179 -89 251.5t-272 72.5h-37v82h1393v-82h-45q-187 0 -280 -71t-93 -253v-1360q0 -451 -140 -790.5t-638 -339.5h-53q-146 5 -300.5 58.5t-259 156t-104.5 244.5q0 136 72.5 211t185.5 75h8q118 0 178.5 -65t113 -195.5t94.5 -193.5t134 -78q3 0 9 -2t8 -2
q147 0 147 250q0 39 -2 113t-2 95q-28 185 -28 373v1450z" />
    <glyph glyph-name="K" unicode="K" horiz-adv-x="3351" 
d="M1008 1503v-1110q0 -190 87 -256.5t294 -66.5v-70h-1377v70q193 0 283 67t90 256v2048q0 179 -83 251.5t-253 72.5h-37v82h1377v-82h-41q-175 0 -257.5 -72t-82.5 -252v-827l909 872q135 102 135 185q0 50 -53 73q-29 17 -144 17v86h1045v-86q-352 0 -692 -340l-733 -672
l1122 -1331q125 -163 230 -251.5t294 -105.5v-61h-1225v61q103 22 103 99q0 91 -103 184z" />
    <glyph glyph-name="L" unicode="L" horiz-adv-x="2949" 
d="M1024 229h791q141 0 252 20t221.5 88.5t203 213t150.5 379.5l82 -8l-209 -922h-2462v70q7 0 19 -2t18 -2q173 0 258.5 71.5t85.5 255.5v2048q0 181 -90.5 252.5t-261.5 71.5h-37v82h1376v-82h-45q-179 0 -267.5 -70.5t-88.5 -253.5z" />
    <glyph glyph-name="M" unicode="M" horiz-adv-x="3973" 
d="M2793 2290l-1048 -2290h-57l-1061 2249v-1856q0 -188 96.5 -255.5t300.5 -67.5v-70h-979v70q199 0 290 67t91 256v2048q0 179 -84 251.5t-260 72.5h-37v82h999l881 -1913l868 1913h967v-82h-41q-178 0 -263 -72t-85 -252v-2048q0 -130 43 -200t126 -96.5t220 -26.5v-70
h-1364v70q206 0 301.5 67t95.5 256v1897z" />
    <glyph glyph-name="N" unicode="N" horiz-adv-x="3396" 
d="M2535 1044v1397q0 195 -90 259.5t-291 64.5v82h1016v-82q-206 0 -297.5 -68t-91.5 -256v-2490h-98l-2036 2396v-1954q0 -180 82 -249.5t254 -69.5q6 0 23 2t22 2v-78h-995v78q6 0 18 -2t19 -2q167 0 249 69.5t82 249.5v2048q0 186 -88 255t-280 69v82h1016z" />
    <glyph glyph-name="O" unicode="O" horiz-adv-x="3174" 
d="M4 1417q0 347 127.5 628.5t339.5 471.5t472.5 288.5t526.5 98.5h13q358 0 696.5 -176.5t554 -516t215.5 -794.5q0 -347 -127 -622t-342.5 -463.5t-478.5 -284.5t-531 -96q-266 0 -526 95t-473 282t-340 464.5t-127 624.5zM713 1409q0 -731 222.5 -1010.5t526.5 -279.5
l8 -4q134 0 266.5 54t248 192.5t188 397t72.5 650.5q0 402 -74 664t-191.5 401.5t-248.5 190.5t-269 51q-304 -8 -526.5 -290.5t-222.5 -1016.5z" />
    <glyph glyph-name="P" unicode="P" horiz-adv-x="2728" 
d="M422 430v1974q0 369 -348 369h-49v74h1437q233 0 458 -49t404 -228t179 -526v-86q-17 -173 -92 -330t-209 -277.5t-330.5 -188.5t-446.5 -68q-48 0 -405 28v-692q0 -200 94.5 -288.5t286.5 -88.5q4 0 16 2t17 2v-57h-1401v57q4 0 12 -2t12 -2q365 0 365 377zM1012 1319
q119 -25 192 -25q163 0 309 64.5t242 221.5t96 415v16q-1 223 -77.5 371.5t-198.5 214t-268 65.5q-147 0 -295 -61v-1282z" />
    <glyph glyph-name="Q" unicode="Q" horiz-adv-x="3039" 
d="M983 0q-196 83 -366 209.5t-301.5 301.5t-207 403t-75.5 495q0 349 118.5 630.5t320.5 474.5t449.5 291.5t503.5 98.5h13q259 0 507 -100t451.5 -293.5t323 -473.5t119.5 -628q0 -159 -58.5 -421t-294 -560.5t-704.5 -431.5q92 -292 336 -459.5t548 -167.5l-8 -102
q-181 -29 -331 -29q-272 0 -525.5 81.5t-468 254t-350.5 426.5zM688 1409q0 -725 215.5 -1003.5t513.5 -286.5q135 0 262 51.5t240 189.5t182.5 396.5t69.5 652.5q0 740 -222.5 1017t-523.5 277h-8q-295 0 -512 -282t-217 -1012z" />
    <glyph glyph-name="R" unicode="R" horiz-adv-x="3129" 
d="M1008 1405v-1012q0 -180 87.5 -249.5t272.5 -69.5q6 0 23 2t22 2v-78h-1393v78q7 0 19 -2t18 -2q169 0 252.5 70t83.5 249v2048q0 181 -87.5 252.5t-256.5 71.5h-37v82h1176q398 0 664.5 -38.5t451.5 -188.5t199 -457v-58q0 -226 -118.5 -374t-272.5 -219.5t-285 -94.5
l540 -979q111 -208 224 -290t309 -82q4 0 19 2t18 2l-8 -70h-967l-791 1405h-163zM1016 1622h303q108 0 218.5 32.5t196 141.5t85.5 318v24q-6 249 -153.5 368.5t-371.5 119.5q-125 0 -286 -41z" />
    <glyph glyph-name="S" unicode="S" horiz-adv-x="2462" 
d="M2126 1872h-86q-81 261 -254.5 438t-371.5 258.5t-365 81.5h-17q-150 -3 -253 -99.5t-103 -223.5q0 -104 78 -201q77 -124 303 -234q177 -103 396.5 -233.5t389.5 -264.5t281 -300t117 -361v-16q0 -183 -105 -360t-328.5 -291.5t-554.5 -114.5q-346 0 -725 155
q-107 37 -196 37q-201 0 -201 -192h-86l-41 1106h78q61 -226 220.5 -422t378 -313t445.5 -117q11 0 33 2t33 2q204 13 289 111.5t104 211.5v33q0 127 -84.5 234.5t-204.5 187.5t-301 184q-152 86 -335.5 192.5t-325 223.5t-232 273t-90.5 348q0 6 2 20t2 21
q18 334 278.5 490.5t623.5 156.5q198 0 413 -49q16 -5 121.5 -46t183.5 -63t142 -22q177 0 188 188h86z" />
    <glyph glyph-name="T" unicode="T" horiz-adv-x="3039" 
d="M1122 2630h-295q-155 0 -298.5 -45.5t-262.5 -225t-127 -536.5h-98l98 1024h2577l102 -1024h-102q-1 281 -81 461t-225.5 263t-349.5 83h-331v-2237q0 -179 83.5 -249t260.5 -70q6 0 22 2t23 2v-78h-1381v78q7 0 21 -2t20 -2q175 0 259.5 70t84.5 249v2237z" />
    <glyph glyph-name="U" unicode="U" horiz-adv-x="3260" 
d="M401 1049v1392q0 185 -82.5 254.5t-257.5 69.5h-41v82h1389v-82h-45q-177 0 -266.5 -71t-89.5 -253v-1462q0 -201 46 -352.5t206 -256t473 -104.5q4 0 16 2t16 2q224 5 380 66.5t246.5 215.5t90.5 427v1462q0 117 -39.5 180t-106.5 90.5t-194 53.5v82h901v-82
q-142 -10 -211 -51.5t-86.5 -102t-17.5 -162.5v-1400q0 -173 -26.5 -335.5t-135.5 -340.5t-352.5 -300t-644.5 -122h-21q-399 0 -640 105.5t-348 271t-133 335t-26 386.5z" />
    <glyph glyph-name="V" unicode="V" horiz-adv-x="3039" 
d="M1585 922l578 1499q0 17 20.5 57t20.5 66v20q0 74 -71 125t-183 51q-10 0 -33 -2t-37 -2v111h930v-111h-49q-246 0 -344 -303l-963 -2482h-119l-921 2535q-46 130 -135 192t-189 62q-7 0 -28 -2t-29 -2v111h1302v-111q-56 8 -86 8q-83 0 -137.5 -49t-54.5 -123
q0 -38 20 -86z" />
    <glyph glyph-name="W" unicode="W" horiz-adv-x="4194" 
d="M2941 991l491 1516q21 67 21 98q0 64 -51 112t-166 48h-12l-9 82h787v-82q-225 0 -312 -250l-872 -2564h-135l-647 1741l-619 -1741h-135l-917 2498q-35 100 -49.5 138t-45.5 81t-84.5 70t-136.5 27h-16l8 82h1139v-82q-181 0 -181 -131q0 -27 10.5 -66.5t10.5 -40.5
l532 -1540l357 1065l-176 492q-32 82 -52 119t-80.5 69.5t-170.5 32.5h-21l-4 82h1229v-82h-33q-197 0 -197 -176q0 -59 33 -160z" />
    <glyph glyph-name="X" unicode="X" horiz-adv-x="3305" 
d="M1831 1585l786 -1184q40 -56 76 -106t90 -99.5t132.5 -84.5t185.5 -41v-70h-1405v70q8 0 24 -2t21 -2q99 0 164 51.5t65 128.5q0 79 -53 143l-508 754l-569 -770q-11 -19 -36.5 -57.5t-37.5 -64t-12 -50.5q9 -135 192 -135q1 0 11 2t14 2v-70h-938v70q275 7 557 323
l692 955l-729 1073q-23 33 -67 96t-91.5 110.5t-120.5 87t-168 50.5v82h1450v-82h-16q-111 0 -223.5 -69t-112.5 -156q0 -57 62 -119l430 -635l483 627q57 82 57 151q0 76 -61.5 131t-167.5 70v82h959v-82q-219 -41 -463 -352z" />
    <glyph glyph-name="Y" unicode="Y" horiz-adv-x="3129" 
d="M1688 1569l540 893q9 22 21.5 53t22 60.5t9.5 58.5q0 37 -16 53q0 32 -99.5 55t-146.5 23v82h918v-82q-161 -8 -226 -58t-135 -172l-774 -1290v-852q0 -131 45 -200.5t133.5 -96t235.5 -26.5v-70h-1417v70q207 0 304 67.5t97 255.5v807l-782 1307q-80 141 -151 192.5
t-226 65.5v82h1339v-82h-32q-95 0 -146 -49t-51 -123q0 -64 45 -152z" />
    <glyph glyph-name="Z" unicode="Z" horiz-adv-x="2904" 
d="M295 1909h-152l197 938h2167v-131l-1663 -2487h794q238 0 398.5 73.5t274.5 230.5t216 430l152 -5l-266 -958h-2393v106l1663 2495h-708q-110 0 -232.5 -41t-251 -195t-196.5 -456z" />
    <glyph glyph-name="bracketleft" unicode="[" horiz-adv-x="1393" 
d="M20 1171l9 1921h1151v-167h-254q-167 0 -235 -74.5t-68 -237.5v-2863q0 -115 8 -172q13 -87 83.5 -109t211.5 -22h254v-168h-1151z" />
    <glyph glyph-name="backslash" unicode="\" horiz-adv-x="1925" 
d="M1712 -295h-295l-1380 3625h291z" />
    <glyph glyph-name="bracketright" unicode="]" horiz-adv-x="1352" 
d="M1159 1171l-8 -1892h-1143v168h254q159 0 227 53t68 201q-4 0 -4 16q0 5 2 17t2 16v2863q0 8 -2 23t-2 18q0 2 2 8t2 9q0 148 -68 201t-227 53h-254v167h1143z" />
    <glyph glyph-name="asciicircum" unicode="^" horiz-adv-x="1659" 
d="M725 2486l-352 -356h-361l713 717l705 -717h-361z" />
    <glyph glyph-name="underscore" unicode="_" horiz-adv-x="2507" 
d="M25 -836v295h2281v-295h-2281z" />
    <glyph glyph-name="grave" unicode="`" horiz-adv-x="90" 
d="M123 2904l70 -57q-250 -281 -283 -537v-37q0 -65 98 -65q4 0 17 2t16 2q137 0 212 -93t75 -223q0 -143 -87.5 -253.5t-236.5 -110.5q-2 0 -10 -2t-10 -2q-169 0 -273 135t-104 352v25q7 185 116.5 391t399.5 473z" />
    <glyph glyph-name="a" unicode="a" horiz-adv-x="2241" 
d="M1991 307l28 -65q-360 -291 -589 -291q-68 0 -142.5 53.5t-103.5 208.5q-369 -262 -697 -262h-20q-243 0 -340.5 132.5t-97.5 297.5q0 195 104.5 345.5t271 254t361 175.5t418.5 134v377q0 311 -238 311l-4 4q-202 0 -274 -356q-38 -87 -133.5 -152t-182.5 -65
q-135 0 -188 152q-17 51 -17 77q0 110 102 222t300.5 185t466.5 73h57q265 -8 399 -110t168.5 -208t34.5 -178v-1147q0 -9 -2 -36t-2 -38q0 -184 123 -184q3 0 19 2t22 2q100 30 156 86zM1192 1114q-145 -26 -292 -89.5t-258.5 -178.5t-125.5 -277q0 -5 -2 -16t-2 -12
q0 -163 90.5 -239.5t196.5 -80.5q2 0 6 -2t6 -2q84 0 195.5 52.5t185.5 111.5v733z" />
    <glyph glyph-name="b" unicode="b" horiz-adv-x="2327" 
d="M737 1917q252 176 557 201h66q213 0 387 -108t276.5 -331t102.5 -549q0 -114 -4 -172q-16 -209 -90 -426.5t-290.5 -395.5t-611.5 -185q-132 0 -407.5 49t-423.5 49h-45v2306q0 254 -201 254h-16v78q182 0 339.5 45.5t360.5 171.5v-987zM741 1700l-4 -1082
q0 -202 57.5 -342t266.5 -161q14 0 35 -4.5t30 -4.5q190 0 327 180t153 627v95q0 251 -68 439t-187 288t-270 100h-8q-152 -5 -332 -135z" />
    <glyph glyph-name="c" unicode="c" horiz-adv-x="2060" 
d="M1843 524q-329 -548 -905 -573h-25q-268 0 -467 128.5t-304 346.5t-105 475q0 340 137.5 619t371.5 438.5t511 159.5q196 0 355.5 -74t250 -185t90.5 -212q0 -7 -2 -21t-2 -20q-11 -78 -70 -127t-127 -49q-2 0 -53 12q-91 20 -137 84.5t-102 189.5t-112 187.5t-157 62.5
q-111 0 -223 -94.5t-188 -294.5t-80 -496q0 -287 94 -484.5t245.5 -292.5t323.5 -95q2 0 13 2t12 2q294 23 590 369z" />
    <glyph glyph-name="d" unicode="d" horiz-adv-x="2281" 
d="M1372 1921v541q0 113 -67 161t-146 48h-24v73q206 9 363 51t357 166v-2551q0 -158 42.5 -222t179.5 -73v-74q-295 0 -705 -90l8 233q-268 -233 -589 -233q-254 1 -433.5 151t-268.5 403t-89 560q0 6 2 23t2 22q11 428 180.5 652.5t351 290t279.5 65.5h45q255 0 512 -197z
M1364 438l-12 1053q0 172 -111.5 280.5t-261.5 108.5q-275 0 -361 -214t-86 -449q0 -13 -2 -40t-2 -38q0 -455 143 -674t353 -219q8 0 29 2t28 2q181 26 283 188z" />
    <glyph glyph-name="e" unicode="e" horiz-adv-x="2105" 
d="M1815 582l65 -37q-149 -249 -318 -381t-320.5 -172.5t-303.5 -40.5h-20q-292 0 -499 129.5t-313 361.5t-106 529q0 6 2 23t2 22q12 328 143 580t347.5 387t472.5 135h37q332 -14 555.5 -235t242.5 -732h-1302q0 -12 -2 -43t-2 -47q0 -193 50 -383.5t187.5 -327.5
t376.5 -137l8 -4q226 0 407 110.5t290 262.5zM492 1331l753 -8v61q0 293 -107 429.5t-241 136.5h-12q-151 0 -272 -159t-121 -460z" />
    <glyph glyph-name="f" unicode="f" horiz-adv-x="1618" 
d="M41 1888v172h258q-1 21 -4 52t-5.5 63t-2.5 49q0 253 88 435t237.5 275t325.5 93q124 -1 231.5 -50t169.5 -132t62 -179v-28q-6 -97 -76.5 -157t-157.5 -60q-105 0 -172 86q-26 26 -71.5 111t-82 130t-83.5 45h-4q-105 0 -115 -114q0 -3 -2 -14t-2 -15q0 -84 43 -189.5
l86 -211t43 -189.5h491v-172h-495v-1573q0 -7 2 -26t2 -31q31 -111 79 -154t158 -43v-61h-974v61q109 0 159 44t78 153q0 12 4 31t4 26v1573h-274z" />
    <glyph glyph-name="g" unicode="g" horiz-adv-x="2195" 
d="M1982 1794l-344 12q136 -176 136 -409q0 -157 -76.5 -307.5t-270 -253.5t-514.5 -103q-20 0 -66 4t-69 4q-131 -95 -131 -200q0 -86 107 -140q108 -25 208.5 -34t272.5 -19t268 -24q177 -28 326.5 -126t152.5 -313v-20q0 -300 -293 -495.5t-796 -205.5h-82
q-466 0 -634 127.5t-173 278.5l-4 8q0 99 74 221.5t164 196.5q-156 68 -156 250q0 102 53 200q142 192 406 324q-467 222 -467 639q0 2 2 13t2 12q0 228 116.5 384t308 230t410.5 74q336 0 582 -140l496 58zM598 1405q11 -251 114.5 -373.5t233.5 -122.5q2 0 13 2t12 2
q107 12 188.5 129t81.5 322v61q-11 162 -66.5 275t-130 167t-143.5 54h-8q-102 0 -200.5 -117t-98.5 -358q0 -5 2 -20t2 -21zM459 -20q-180 -134 -180 -287q6 -117 158.5 -192.5t475.5 -82.5q292 0 466 45.5t241.5 108.5t67.5 121v12q0 88 -158.5 163t-530.5 91z" />
    <glyph glyph-name="h" unicode="h" horiz-adv-x="2507" 
d="M770 1749q195 188 367 278.5t383 90.5q220 0 336.5 -93.5t154 -232t37.5 -317.5v-1180q0 -7 4 -27t4 -30q10 -61 21 -74q19 -69 72.5 -88t144.5 -19v-57h-987v57q88 0 142.5 19t78.5 88q10 13 20 74v1101q0 194 -51.5 320.5t-218.5 126.5q-134 -5 -273 -111.5
t-235 -220.5v-1159q0 -238 242 -238v-57h-971v57q229 0 229 181q9 20 9 57v2126q0 83 -39.5 166.5t-169.5 83.5h-21v73q195 0 356 45t365 172v-1212z" />
    <glyph glyph-name="i" unicode="i" horiz-adv-x="1217" 
d="M754 987v-692q0 -37 8 -57q0 -13 2 -39t2 -35q26 -69 77 -88t140 -19v-57h-946v57q221 0 221 238v1266q0 254 -197 254h-20v77q184 0 338 45.5t375 180.5v-1131zM221 2781q0 136 89.5 211.5t213.5 75.5q122 0 210.5 -77t88.5 -210t-93.5 -212t-213.5 -79
q-118 0 -206.5 77.5t-88.5 213.5z" />
    <glyph glyph-name="j" unicode="j" horiz-adv-x="1257" 
d="M991 2060l8 -2298q0 -114 -37.5 -245t-165.5 -240t-370 -113h-12q-206 0 -304 93.5t-98 205.5q0 5 2 15t2 14q10 94 60.5 141.5t120.5 47.5q69 0 142 -42t116 -106q15 -48 48.5 -85.5t78.5 -37.5h16q98 0 98 111q0 78 -90 295q-1 3 -35.5 101.5t-46.5 151.5t-12 115v1315
q0 258 -221 258h-17v66q200 6 356 55t361 182zM426 2781q0 135 89 211t210 76q125 0 214 -76.5t89 -210.5q0 -133 -94 -212t-213 -79t-207 77.5t-88 213.5z" />
    <glyph glyph-name="k" unicode="k" horiz-adv-x="2372" 
d="M741 1229l533 491q61 81 61 148q0 112 -164 119v73h852v-73q-215 -6 -385 -185l-499 -442l688 -1090q28 -49 53 -69q80 -144 270 -144v-57h-712l-615 1020l-12 12l-12 12q-7 38 -33 50h-25v-799q0 -122 57.5 -180t188.5 -58v-57h-950v57q229 0 229 238v2126
q0 83 -38.5 166.5t-170.5 83.5h-20v73q201 9 357.5 51.5t346.5 165.5v-1732z" />
    <glyph glyph-name="l" unicode="l" horiz-adv-x="1217" 
d="M737 2961v-2666q0 -14 4 -31t4 -26q5 -11 10 -37t11 -37q20 -69 73 -88t144 -19v-57h-946v57q221 0 221 238v2126q0 83 -36.5 166.5t-160.5 83.5h-20v73q196 9 349 51t347 166z" />
    <glyph glyph-name="m" unicode="m" horiz-adv-x="3617" 
d="M754 1454v-1159q0 -138 54.5 -188t190.5 -50v-57h-974v57q125 0 177 50t52 188v1266q0 125 -41 189.5t-164 64.5h-16v77q195 0 354.5 46t366.5 180v-369q183 201 338.5 282t324.5 87h41q181 0 298.5 -86.5t189.5 -282.5q202 230 382 299.5t302 69.5h12q217 0 328 -98
t141.5 -230t30.5 -287v-1208q0 -37 8 -57q0 -181 237 -181v-57h-979v57q91 0 142.5 19t70.5 88q11 12 18 43l7 31q0 9 2 26t2 31v1151q0 157 -42 248.5t-195 91.5q-151 0 -273.5 -108.5t-193.5 -223.5v-1159q0 -138 55.5 -188t189.5 -50v-57h-983v57q135 0 192.5 50.5
t57.5 187.5v1130q0 168 -41 264.5t-196 96.5h-13q-210 0 -454 -332z" />
    <glyph glyph-name="n" unicode="n" horiz-adv-x="2462" 
d="M737 1454v-1159q0 -137 56 -187.5t190 -50.5v-57h-975v57q131 0 184.5 50t53.5 188v1266q0 254 -205 254h-25v77q197 0 357.5 46t363.5 180l-8 -369q165 157 296.5 237.5t230.5 106t198 25.5h21q326 0 423 -188t97 -390v-1245q0 -137 54.5 -187.5t182.5 -50.5v-57h-979
v57q130 0 188 51t58 187v1139q0 140 -42 240.5t-195 103.5q-226 0 -525 -324z" />
    <glyph glyph-name="o" unicode="o" horiz-adv-x="2241" 
d="M33 922q0 226 65.5 438t192 380.5t316 270t429.5 107.5h37q280 0 497.5 -136.5t340 -368.5t133.5 -503v-45q0 -214 -72 -415.5t-208.5 -359.5t-330 -248.5t-425.5 -90.5h-13q-276 0 -496.5 127.5t-343 350t-122.5 493.5zM541 991q0 -934 483 -934q1 0 12 2t17 2
q275 20 358.5 278.5t83.5 676.5q0 420 -89 689t-370 269h-41q-458 -45 -458 -876q0 -16 2 -52t2 -55z" />
    <glyph glyph-name="p" unicode="p" horiz-adv-x="2372" 
d="M758 1835q205 272 594 291h4q219 0 403.5 -111t296 -335t111.5 -545v-50q-9 -371 -130 -624t-320.5 -377.5t-442.5 -132.5h-45q-286 0 -471 205v-709q0 -209 172 -209q20 -8 82 -8v-66h-996v66q238 0 238 225v2192q0 192 -164 192q-49 0 -74 -4v74q140 8 356.5 70.5
t385.5 138.5v-283zM758 1606v-885q0 -353 128 -490t298 -137q10 0 32 2t29 2q107 19 209.5 93t176 247.5t73.5 454.5v25q0 355 -92.5 553.5t-219 266.5t-253.5 68h-21q-245 -7 -360 -200z" />
    <glyph glyph-name="q" unicode="q" horiz-adv-x="2327" 
d="M1360 164q-254 -213 -586 -213h-16q-213 0 -384.5 116t-270.5 347t-99 557q0 3 2 16t2 21q5 220 63 417.5t168 355.5t264 247.5t345 89.5h12q351 0 565 -254l435 254v-2659q0 -5 6 -22t6 -27q29 -100 80 -140t157 -40v-66h-987v66q230 0 230 180q16 34 16 49zM1360 410
v1044q0 182 -116 300t-269 118h-12q-179 -4 -313 -164.5t-134 -548.5q0 -20 2 -64t2 -67q57 -782 488 -782q4 0 18 2t18 2q213 21 316 160z" />
    <glyph glyph-name="r" unicode="r" horiz-adv-x="1839" 
d="M745 1794q65 57 132.5 116.5t136 106t145 74t164.5 27.5q128 0 212.5 -64.5t90.5 -165.5v-16q0 -221 -213 -221q-37 0 -86.5 10t-95.5 23t-96 28q-126 0 -207 -33.5t-178 -130.5v-1253q0 -136 57.5 -187t183.5 -51v-57h-954v57q120 0 172.5 50.5t52.5 187.5v1266
q0 254 -196 254h-21v77q190 0 349.5 48t363.5 178z" />
    <glyph glyph-name="s" unicode="s" horiz-adv-x="1794" 
d="M1475 1454h-66q-29 133 -112 242.5t-199 171t-242 61.5h-12q-120 -6 -187 -71t-67 -154q0 -69 44 -141t116 -121q76 -69 254 -194t293 -221t193.5 -226.5t78.5 -296.5v-8q0 -276 -199.5 -406.5t-492.5 -130.5q-236 0 -451 74q-133 20 -143 20q-94 0 -131 -102h-70
l-37 799h57q47 -262 245 -434.5t452 -172.5q2 0 12 2t12 2q145 7 203.5 79t58.5 163q-9 95 -73.5 170t-204 174t-143.5 103q-252 163 -389.5 315.5t-151.5 351.5q0 13 -4 39t-4 39q0 266 190 391t469 125q231 0 426 -65q49 -21 74 -21q41 0 69.5 27t28.5 80h74z" />
    <glyph glyph-name="t" unicode="t" horiz-adv-x="1438" 
d="M29 1860v200q488 43 663 541h99v-541h438v-200h-438v-1467q0 -92 17.5 -136t84.5 -44q4 0 14 -2t15 -2q100 0 258 115l49 -74q-421 -299 -606 -299h-13q-213 0 -284.5 164.5t-71.5 429.5v1315h-225z" />
    <glyph glyph-name="u" unicode="u" horiz-adv-x="2507" 
d="M1548 459v1278q0 112 -53.5 178.5t-155.5 66.5q-12 5 -41 5v73h787v-1642q0 -230 196 -230q3 0 11.5 2.5t13.5 2.5v-95q-225 -9 -395.5 -43t-362.5 -104v278q-379 -265 -708 -278h-33q-209 0 -325.5 75.5t-159.5 207t-43 319.5v1184q0 111 -54.5 178t-154.5 67
q-9 5 -37 5v73h766v-1405q0 -5 -2 -24t-2 -25q0 -149 53 -250.5t221 -101.5q2 0 8 2t8 2q108 0 265 80t198 121z" />
    <glyph glyph-name="v" unicode="v" horiz-adv-x="2327" 
d="M1229 754l381 983q20 68 20 114q0 136 -160 136h-16v73h647v-73h-24q-90 0 -123.5 -35t-73.5 -121l-733 -1831h-123l-766 1802q-46 111 -82 146.5t-131 38.5v73h971v-73q-81 0 -130.5 -38.5t-49.5 -105.5q0 -24 16 -74v-28z" />
    <glyph glyph-name="w" unicode="w" horiz-adv-x="3215" 
d="M1171 778l267 811l-115 291q-42 102 -180 107v73h905v-73q-77 0 -120.5 -35t-43.5 -92q0 -3 12 -66l365 -1024l332 995q12 49 12 90q0 132 -197 132v73h611v-73q-100 -3 -138.5 -52t-70.5 -149l-635 -1835h-98l-525 1343l-454 -1343h-94l-779 1864q-29 81 -69.5 126.5
t-130.5 45.5v73h917v-73q-172 -7 -172 -144q0 -37 25 -131z" />
    <glyph glyph-name="x" unicode="x" horiz-adv-x="2417" 
d="M1184 1360l278 377q17 79 17 114q0 131 -119 131h-41v78h721v-78q-80 0 -142.5 -39t-111 -93.5t-115.5 -129.5l-352 -532l561 -893q74 -110 138 -176t145 -66q25 0 49 8v-61h-1028v61l8 -4q82 0 112 37t44 78q0 37 -29 107l-352 512l-271 -439q-10 -15 -16.5 -32.5
t-7.5 -20.5q-45 -45 -45 -90q0 -57 68 -104.5t141 -47.5q4 0 16 2t16 2v-61h-831v61q144 0 233 57t164 189l434 656l-520 823q-84 196 -258 196v78h1028v-78h-28q-120 0 -144 -32q-33 -28 -33 -66t54 -143z" />
    <glyph glyph-name="y" unicode="y" horiz-adv-x="2417" 
d="M1376 647l336 1036q21 76 21 119q0 170 -242 180v78h733v-78q-128 0 -189 -62.5t-118 -211.5l-725 -2081q-16 -56 -88.5 -173.5t-214 -219.5t-340.5 -102h-12q-164 3 -262.5 93t-98.5 193q3 82 72.5 152t165.5 70q44 0 102 -21q44 -10 149 -95t162 -85h17q68 0 128 78.5
t85 154.5l98 271l-786 1740q-141 299 -336 299v78h1028v-78q-197 -5 -197 -151q0 -30 12.5 -65.5t12.5 -36.5z" />
    <glyph glyph-name="z" unicode="z" horiz-adv-x="1970" 
d="M115 1397l82 663h1532v-114l-1065 -1737h495q157 0 250.5 41t162.5 155.5t132 335.5h65l-57 -741h-1675v98l1061 1762h-377q-430 0 -541 -463h-65z" />
    <glyph glyph-name="braceleft" unicode="{" horiz-adv-x="1393" 
d="M365 1114q516 -242 516 -938q0 -89 -17 -291q0 -165 19.5 -287t93 -217.5t219.5 -121.5l-20 -152h-37q-147 0 -310.5 60.5t-289 242.5t-125.5 512q0 5 2 23t2 26q0 42 2 147t2 161v86q0 246 -82 445.5t-311 217.5v172q161 20 248 125t116 253.5t29 342.5q0 70 -2 193
t-2 167q0 9 -2 25t-2 25q0 488 235 651.5t502 163.5q2 0 12 2t13 2l20 -148q-336 -80 -336 -503q0 -81 14.5 -244.5t14.5 -247.5v-86q-18 -296 -139.5 -486.5t-384.5 -320.5z" />
    <glyph glyph-name="bar" unicode="|" horiz-adv-x="504" 
d="M29 -836v4539h274v-4539h-274z" />
    <glyph glyph-name="braceright" unicode="}" horiz-adv-x="1393" 
d="M860 1114q-265 131 -388 322.5t-132 484.5q0 11 -2 34t-2 36q0 66 10 227t10 244q0 215 -68 357t-251 183l29 148h20q149 0 310 -55.5t286 -232.5t125 -507v-74q0 -49 -6 -179t-6 -201q0 -293 84.5 -481.5t320.5 -219.5v-172q-235 -16 -320 -202t-85 -474q0 -74 6 -204
t6 -177v-69q0 -320 -122 -497.5t-281.5 -237.5t-305.5 -60h-32l-29 152q319 60 319 548q0 115 -16 279q0 18 -4 59t-4 60q0 303 130 541t398 368z" />
    <glyph glyph-name="asciitilde" unicode="~" horiz-adv-x="2060" 
d="M1761 2847h103q-82 -241 -247.5 -366.5t-395.5 -125.5q-14 0 -46 4t-49 4q-85 13 -250 51t-271.5 59t-207.5 26h-41q-137 0 -241 -164h-86q95 301 210 398.5t261 105.5h78q131 0 305.5 -36t349.5 -72t307 -36q128 0 221 152z" />
    <glyph glyph-name="bullet" unicode="&#x2022;" 
 />
    <glyph glyph-name="quoteleft" unicode="&#x2018;" horiz-adv-x="950" 
d="M225 1532l-78 65q77 68 173 206t114 327q0 6 2 17t2 16q0 78 -135 78q-3 0 -8.5 -2.5t-7.5 -2.5q-123 0 -203 97t-80 231q0 2 2 10t2 11q6 131 96.5 222t235.5 97h16q168 0 274.5 -139t106.5 -352l4 -9q-15 -200 -121 -402.5t-395 -469.5z" />
    <glyph glyph-name="quoteright" unicode="&#x2019;" horiz-adv-x="950" 
d="M225 1532l-78 65q77 68 173 206t114 327q0 6 2 17t2 16q0 78 -135 78q-3 0 -8.5 -2.5t-7.5 -2.5q-123 0 -203 97t-80 231q0 2 2 10t2 11q6 131 96.5 222t235.5 97h16q168 0 274.5 -139t106.5 -352l4 -9q-15 -200 -121 -402.5t-395 -469.5z" />
    <glyph glyph-name="quotedblleft" unicode="&#x201c;" horiz-adv-x="2015" 
d="M217 1589l-78 66q67 55 168 204t119 332v33q0 74 -131 74q-2 0 -8 -2t-8 -2q-128 0 -197.5 83.5t-69.5 202.5q0 144 89 261t231 120h20q171 0 276 -136.5t105 -354.5l4 -8q-9 -123 -52.5 -249t-155 -282.5t-312.5 -341.5zM1286 1589l-69 66q259 259 286 536q0 70 -8 86
q-20 21 -74 21h-49q-2 0 -8 -2t-8 -2q-124 0 -209.5 97t-85.5 230q0 3 2 11t2 10q16 132 108 222.5t236 96.5h21q167 0 271.5 -131.5t104.5 -339.5v-28q-7 -189 -117.5 -396t-402.5 -477z" />
    <glyph glyph-name="quotedblright" unicode="&#x201d;" horiz-adv-x="2015" 
d="M217 1589l-78 66q67 55 168 204t119 332v33q0 74 -131 74q-2 0 -8 -2t-8 -2q-128 0 -197.5 83.5t-69.5 202.5q0 144 89 261t231 120h20q171 0 276 -136.5t105 -354.5l4 -8q-9 -123 -52.5 -249t-155 -282.5t-312.5 -341.5zM1286 1589l-69 66q259 259 286 536q0 70 -8 86
q-20 21 -74 21h-49q-2 0 -8 -2t-8 -2q-124 0 -209.5 97t-85.5 230q0 3 2 11t2 10q16 132 108 222.5t236 96.5h21q167 0 271.5 -131.5t104.5 -339.5v-28q-7 -189 -117.5 -396t-402.5 -477z" />
    <glyph glyph-name="emdash" unicode="&#x2013;" 
 />
    <glyph glyph-name="endash" unicode="&#x2014;" 
 />
    <glyph glyph-name="exclamdown" unicode="&#xa1;" 
 />
    <glyph glyph-name="cent" unicode="&#xa2;" 
 />
    <glyph glyph-name="sterling" unicode="&#xa3;" 
 />
    <glyph glyph-name="currency" unicode="&#xa4;" 
 />
    <glyph glyph-name="yen" unicode="&#xa5;" 
 />
    <glyph glyph-name="brokenbar" unicode="&#xa6;" horiz-adv-x="504" 
d="M29 -836v4539h274v-4539h-274z" />
    <glyph glyph-name="section" unicode="&#xa7;" 
 />
    <glyph glyph-name="dieresis" unicode="&#xa8;" 
 />
    <glyph glyph-name="copyright" unicode="&#xa9;" 
 />
    <glyph glyph-name="ordfeminine" unicode="&#xaa;" 
 />
    <glyph glyph-name="guillemotleft" unicode="&#xab;" 
 />
    <glyph glyph-name="logicalnot" unicode="&#xac;" 
 />
    <glyph glyph-name="registered" unicode="&#xae;" 
 />
    <glyph glyph-name="macron" unicode="&#xaf;" 
 />
    <glyph glyph-name="degree" unicode="&#xb0;" 
 />
    <glyph glyph-name="plusminus" unicode="&#xb1;" 
 />
    <glyph glyph-name="twosuperior" unicode="&#xb2;" 
 />
    <glyph glyph-name="threesuperior" unicode="&#xb3;" 
 />
    <glyph glyph-name="acute" unicode="&#xb4;" 
 />
    <glyph glyph-name="mu" unicode="&#xb5;" 
 />
    <glyph glyph-name="paragraph" unicode="&#xb6;" 
 />
    <glyph glyph-name="periodcentered" unicode="&#xb7;" 
 />
    <glyph glyph-name="cedilla" unicode="&#xb8;" 
 />
    <glyph glyph-name="onesuperior" unicode="&#xb9;" 
 />
    <glyph glyph-name="ordmasculine" unicode="&#xba;" 
 />
    <glyph glyph-name="guillemotright" unicode="&#xbb;" 
 />
    <glyph glyph-name="onequarter" unicode="&#xbc;" 
 />
    <glyph glyph-name="onehalf" unicode="&#xbd;" 
 />
    <glyph glyph-name="threequarters" unicode="&#xbe;" 
 />
    <glyph glyph-name="questiondown" unicode="&#xbf;" 
 />
    <glyph glyph-name="Agrave" unicode="&#xc0;" horiz-adv-x="3215" 
d="M1815 762h-975l-144 -352q-28 -79 -28 -127q0 -205 389 -205v-78h-1032v78q171 0 260.5 71t156.5 244l1004 2511h78l1114 -2482q28 -66 64 -146.5t108 -136.5t201 -61v-78h-1303v78q8 0 27 -2t26 -2q111 0 170.5 56t59.5 149q0 68 -17 122zM1708 979l-414 971l-376 -971
h790z" />
    <glyph glyph-name="Agrave" unicode="&#x410;" horiz-adv-x="3215" 
d="M1815 762h-975l-144 -352q-28 -79 -28 -127q0 -205 389 -205v-78h-1032v78q171 0 260.5 71t156.5 244l1004 2511h78l1114 -2482q28 -66 64 -146.5t108 -136.5t201 -61v-78h-1303v78q8 0 27 -2t26 -2q111 0 170.5 56t59.5 149q0 68 -17 122zM1708 979l-414 971l-376 -971
h790z" />
    <glyph glyph-name="Aacute" unicode="&#xc1;" horiz-adv-x="2818" 
d="M2400 1995h-106q-14 227 -139.5 420.5t-446.5 193.5h-680v-946l132.5 26.5t228.5 36t253 15.5h54q283 -12 486 -124t305 -296t102 -412v-16q-10 -360 -177 -557.5t-426.5 -266.5t-605.5 -69h-1339v70q136 0 217.5 26.5t122.5 96t41 200.5v2048q0 180 -83 252t-261 72h-37
v82h2310zM1028 1454l-8 -1212q174 -99 328 -99q21 0 56.5 5t61.5 8q231 39 353.5 217.5t122.5 437.5v29q-6 352 -180 511.5t-423 159.5q-149 0 -311 -57z" />
    <glyph glyph-name="Aacute" unicode="&#x411;" horiz-adv-x="2818" 
d="M2400 1995h-106q-14 227 -139.5 420.5t-446.5 193.5h-680v-946l132.5 26.5t228.5 36t253 15.5h54q283 -12 486 -124t305 -296t102 -412v-16q-10 -360 -177 -557.5t-426.5 -266.5t-605.5 -69h-1339v70q136 0 217.5 26.5t122.5 96t41 200.5v2048q0 180 -83 252t-261 72h-37
v82h2310zM1028 1454l-8 -1212q174 -99 328 -99q21 0 56.5 5t61.5 8q231 39 353.5 217.5t122.5 437.5v29q-6 352 -180 511.5t-423 159.5q-149 0 -311 -57z" />
    <glyph glyph-name="Acircumflex" unicode="&#xc2;" horiz-adv-x="2818" 
d="M381 393v2048q0 178 -87 251t-257 73h-33v82h1466q396 0 677.5 -127t289.5 -471v-49q0 -226 -134 -374t-301 -218t-294 -88v-45h74q219 0 403.5 -78.5t294 -230t109.5 -355.5q-1 -361 -217 -542.5t-458.5 -225t-467.5 -43.5h-1442v70q198 0 287.5 67t89.5 256zM987 1569
h230q319 0 466.5 163t147.5 390v45q-4 161 -80 271.5t-198 165t-263 54.5q-156 0 -311 -65l8 -180v-844zM987 1376l-8 -1138q154 -78 315 -91q7 0 21 -2t20 -2q269 0 429.5 169t160.5 438v41q-14 268 -127 397t-251.5 158.5t-321.5 29.5h-238z" />
    <glyph glyph-name="Acircumflex" unicode="&#x412;" horiz-adv-x="2818" 
d="M381 393v2048q0 178 -87 251t-257 73h-33v82h1466q396 0 677.5 -127t289.5 -471v-49q0 -226 -134 -374t-301 -218t-294 -88v-45h74q219 0 403.5 -78.5t294 -230t109.5 -355.5q-1 -361 -217 -542.5t-458.5 -225t-467.5 -43.5h-1442v70q198 0 287.5 67t89.5 256zM987 1569
h230q319 0 466.5 163t147.5 390v45q-4 161 -80 271.5t-198 165t-263 54.5q-156 0 -311 -65l8 -180v-844zM987 1376l-8 -1138q154 -78 315 -91q7 0 21 -2t20 -2q269 0 429.5 169t160.5 438v41q-14 268 -127 397t-251.5 158.5t-321.5 29.5h-238z" />
    <glyph glyph-name="Atilde" unicode="&#xc3;" horiz-adv-x="2728" 
d="M1020 2609v-2216q0 -130 42.5 -200t125.5 -96.5t217 -26.5v-70h-1380v70q193 0 280.5 67t87.5 256v2048q0 179 -81 251.5t-251 72.5h-36v82h2375l103 -1012h-103q-10 270 -107 433t-233 235t-260 89t-256 17h-524z" />
    <glyph glyph-name="Atilde" unicode="&#x413;" horiz-adv-x="2728" 
d="M1020 2609v-2216q0 -130 42.5 -200t125.5 -96.5t217 -26.5v-70h-1380v70q193 0 280.5 67t87.5 256v2048q0 179 -81 251.5t-251 72.5h-36v82h2375l103 -1012h-103q-10 270 -107 433t-233 235t-260 89t-256 17h-524z" />
    <glyph glyph-name="Adieresis" unicode="&#xc4;" horiz-adv-x="3174" 
d="M2482 2441v-2040q0 -307 406 -307q6 0 20 2t21 2l37 -917h-82q-26 283 -111.5 463t-252 268t-435.5 88h-1229q-291 0 -453 -152t-215 -334t-61 -333h-86v917q324 14 506.5 378t245.5 830.5t63 876.5q0 590 -426 590l8 74h2441v-82h-40q-184 0 -270.5 -72t-86.5 -252z
M1860 180v2433h-463q-165 0 -271.5 -75.5t-117.5 -342.5q-36 -554 -60.5 -816t-99 -584t-221.5 -615h1233z" />
    <glyph glyph-name="Adieresis" unicode="&#x414;" horiz-adv-x="3174" 
d="M2482 2441v-2040q0 -307 406 -307q6 0 20 2t21 2l37 -917h-82q-26 283 -111.5 463t-252 268t-435.5 88h-1229q-291 0 -453 -152t-215 -334t-61 -333h-86v917q324 14 506.5 378t245.5 830.5t63 876.5q0 590 -426 590l8 74h2441v-82h-40q-184 0 -270.5 -72t-86.5 -252z
M1860 180v2433h-463q-165 0 -271.5 -75.5t-117.5 -342.5q-36 -554 -60.5 -816t-99 -584t-221.5 -615h1233z" />
    <glyph glyph-name="Aring" unicode="&#xc5;" horiz-adv-x="2818" 
d="M1016 1520h520q176 0 262 132.5t86 313.5v16h94v-1142h-94q4 28 4 90q0 167 -94 280t-250 113h-528v-1110h680q604 0 827 655h86l-135 -868h-2454v57q5 0 13 -2t12 -2q356 0 356 377v1974q0 369 -348 369h-49v74h2335l78 -967h-78q-23 246 -164.5 487.5t-495.5 241.5
h-663v-1089z" />
    <glyph glyph-name="Aring" unicode="&#x415;" horiz-adv-x="2818" 
d="M1016 1520h520q176 0 262 132.5t86 313.5v16h94v-1142h-94q4 28 4 90q0 167 -94 280t-250 113h-528v-1110h680q604 0 827 655h86l-135 -868h-2454v57q5 0 13 -2t12 -2q356 0 356 377v1974q0 369 -348 369h-49v74h2335l78 -967h-78q-23 246 -164.5 487.5t-495.5 241.5
h-663v-1089z" />
    <glyph glyph-name="AE" unicode="&#xc6;" horiz-adv-x="4772" 
d="M1577 0v70q205 0 297 64.5t92 258.5v1090l-897 -1168q-94 -94 -94 -176q0 -65 94 -90v-49h-1065v49q96 15 149.5 62t145 151t160.5 139l1044 1356l-524 578q-57 57 -150 147t-176 149.5t-180 94.5t-211 35l8 86h987l-8 -86q-6 0 -22 2t-23 2q-62 0 -115 -39.5t-53 -91.5
q0 -7 21 -62q20 -49 102 -131q2 -6 14 -16t19 -21l774 -827v864q0 179 -86 251.5t-266 72.5h-37v82h1401v-82h-41q-178 0 -263 -72t-85 -252v-864l815 856q83 83 98 139q21 37 21 58q0 53 -77.5 94t-144.5 41h-12v82h991v-82q-104 -11 -187.5 -42.5t-154 -78t-145 -110
t-152.5 -130.5q-16 -28 -57 -69l-528 -570l1040 -1355q39 -54 82 -113t99 -113.5t126.5 -90.5t159.5 -44v-49h-1081v49q86 24 86 94q0 86 -86 172l-893 1168v-1090q0 -132 43 -203t124.5 -95.5t221.5 -24.5v-70h-1401z" />
    <glyph glyph-name="AE" unicode="&#x416;" horiz-adv-x="4772" 
d="M1577 0v70q205 0 297 64.5t92 258.5v1090l-897 -1168q-94 -94 -94 -176q0 -65 94 -90v-49h-1065v49q96 15 149.5 62t145 151t160.5 139l1044 1356l-524 578q-57 57 -150 147t-176 149.5t-180 94.5t-211 35l8 86h987l-8 -86q-6 0 -22 2t-23 2q-62 0 -115 -39.5t-53 -91.5
q0 -7 21 -62q20 -49 102 -131q2 -6 14 -16t19 -21l774 -827v864q0 179 -86 251.5t-266 72.5h-37v82h1401v-82h-41q-178 0 -263 -72t-85 -252v-864l815 856q83 83 98 139q21 37 21 58q0 53 -77.5 94t-144.5 41h-12v82h991v-82q-104 -11 -187.5 -42.5t-154 -78t-145 -110
t-152.5 -130.5q-16 -28 -57 -69l-528 -570l1040 -1355q39 -54 82 -113t99 -113.5t126.5 -90.5t159.5 -44v-49h-1081v49q86 24 86 94q0 86 -86 172l-893 1168v-1090q0 -132 43 -203t124.5 -95.5t221.5 -24.5v-70h-1401z" />
    <glyph glyph-name="Ccedilla" unicode="&#xc7;" horiz-adv-x="2593" 
d="M348 1921h-94l94 983h86q33 -164 189 -164q42 0 121 19t96 22q319 115 639 115q295 0 494.5 -123t221.5 -401v-54q0 -154 -81 -310t-246 -296t-398 -242h107q250 0 436 -83t283.5 -226.5t103.5 -320.5v-37q0 -203 -122 -397t-375.5 -321.5t-624.5 -133.5h-61
q-191 0 -377.5 48t-395.5 194t-415 417l118 131q453 -446 877 -483q15 0 48 -4t46 -4q175 0 309.5 71.5t207 190.5t77.5 258v33q0 241 -200.5 384.5t-647.5 143.5h-106v189q278 4 478.5 104.5t301 254t100.5 308.5q0 11 -2 33t-2 33q-22 144 -137.5 256t-329.5 112h-41
q-174 -10 -329 -108t-270.5 -256t-178.5 -336z" />
    <glyph glyph-name="Ccedilla" unicode="&#x417;" horiz-adv-x="2593" 
d="M348 1921h-94l94 983h86q33 -164 189 -164q42 0 121 19t96 22q319 115 639 115q295 0 494.5 -123t221.5 -401v-54q0 -154 -81 -310t-246 -296t-398 -242h107q250 0 436 -83t283.5 -226.5t103.5 -320.5v-37q0 -203 -122 -397t-375.5 -321.5t-624.5 -133.5h-61
q-191 0 -377.5 48t-395.5 194t-415 417l118 131q453 -446 877 -483q15 0 48 -4t46 -4q175 0 309.5 71.5t207 190.5t77.5 258v33q0 241 -200.5 384.5t-647.5 143.5h-106v189q278 4 478.5 104.5t301 254t100.5 308.5q0 11 -2 33t-2 33q-22 144 -137.5 256t-329.5 112h-41
q-174 -10 -329 -108t-270.5 -256t-178.5 -336z" />
    <glyph glyph-name="Egrave" unicode="&#xc8;" horiz-adv-x="3486" 
d="M2306 2130l-1274 -1692q-49 -72 -49 -135q0 -96 92.5 -166.5t247.5 -70.5q8 0 31 2t30 2v-70h-1355v70q137 0 220 26.5t126 96.5t43 200v2048q0 179 -86 251.5t-266 72.5h-37v82h1355v-82h-41q-178 0 -263 -72t-85 -252v-1728l1266 1671q57 74 57 147q0 110 -130 172
t-271 62v82h1376v-82h-41q-179 0 -267.5 -72.5t-88.5 -251.5v-2048q0 -189 95.5 -256t301.5 -67v-70h-1376v70q203 0 296 67t93 256v1737z" />
    <glyph glyph-name="Egrave" unicode="&#x418;" horiz-adv-x="3486" 
d="M2306 2130l-1274 -1692q-49 -72 -49 -135q0 -96 92.5 -166.5t247.5 -70.5q8 0 31 2t30 2v-70h-1355v70q137 0 220 26.5t126 96.5t43 200v2048q0 179 -86 251.5t-266 72.5h-37v82h1355v-82h-41q-178 0 -263 -72t-85 -252v-1728l1266 1671q57 74 57 147q0 110 -130 172
t-271 62v82h1376v-82h-41q-179 0 -267.5 -72.5t-88.5 -251.5v-2048q0 -189 95.5 -256t301.5 -67v-70h-1376v70q203 0 296 67t93 256v1737z" />
    <glyph glyph-name="Eacute" unicode="&#xc9;" horiz-adv-x="3486" 
d="M1651 3019q-300 0 -498.5 57t-288.5 141.5t-90 169.5t70.5 131t171.5 46q78 0 150 -28t104 -79q36 -63 57 -164q30 -88 119 -138t201 -50q107 0 200 50t127 138q33 134 95.5 204.5t183.5 70.5h28q120 0 183 -58.5t63 -122.5q0 -85 -90 -169.5t-288 -141.5t-498 -57z
M2306 2130l-1274 -1692q-49 -72 -49 -135q0 -96 92.5 -166.5t247.5 -70.5q8 0 31 2t30 2v-70h-1355v70q137 0 220 26.5t126 96.5t43 200v2048q0 179 -86 251.5t-266 72.5h-37v82h1355v-82h-41q-178 0 -263 -72t-85 -252v-1728l1266 1671q57 74 57 147q0 110 -130 172
t-271 62v82h1376v-82h-41q-179 0 -267.5 -72.5t-88.5 -251.5v-2048q0 -189 95.5 -256t301.5 -67v-70h-1376v70q203 0 296 67t93 256v1737z" />
    <glyph glyph-name="Eacute" unicode="&#x419;" horiz-adv-x="3486" 
d="M1651 3019q-300 0 -498.5 57t-288.5 141.5t-90 169.5t70.5 131t171.5 46q78 0 150 -28t104 -79q36 -63 57 -164q30 -88 119 -138t201 -50q107 0 200 50t127 138q33 134 95.5 204.5t183.5 70.5h28q120 0 183 -58.5t63 -122.5q0 -85 -90 -169.5t-288 -141.5t-498 -57z
M2306 2130l-1274 -1692q-49 -72 -49 -135q0 -96 92.5 -166.5t247.5 -70.5q8 0 31 2t30 2v-70h-1355v70q137 0 220 26.5t126 96.5t43 200v2048q0 179 -86 251.5t-266 72.5h-37v82h1355v-82h-41q-178 0 -263 -72t-85 -252v-1728l1266 1671q57 74 57 147q0 110 -130 172
t-271 62v82h1376v-82h-41q-179 0 -267.5 -72.5t-88.5 -251.5v-2048q0 -189 95.5 -256t301.5 -67v-70h-1376v70q203 0 296 67t93 256v1737z" />
    <glyph glyph-name="Ecircumflex" unicode="&#xca;" horiz-adv-x="3351" 
d="M1008 1503v-1110q0 -190 87 -256.5t294 -66.5v-70h-1377v70q193 0 283 67t90 256v2048q0 179 -83 251.5t-253 72.5h-37v82h1377v-82h-41q-175 0 -257.5 -72t-82.5 -252v-827l909 872q135 102 135 185q0 50 -53 73q-29 17 -144 17v86h1045v-86q-352 0 -692 -340l-733 -672
l1122 -1331q125 -163 230 -251.5t294 -105.5v-61h-1225v61q103 22 103 99q0 91 -103 184z" />
    <glyph glyph-name="Ecircumflex" unicode="&#x41a;" horiz-adv-x="3351" 
d="M1008 1503v-1110q0 -190 87 -256.5t294 -66.5v-70h-1377v70q193 0 283 67t90 256v2048q0 179 -83 251.5t-253 72.5h-37v82h1377v-82h-41q-175 0 -257.5 -72t-82.5 -252v-827l909 872q135 102 135 185q0 50 -53 73q-29 17 -144 17v86h1045v-86q-352 0 -692 -340l-733 -672
l1122 -1331q125 -163 230 -251.5t294 -105.5v-61h-1225v61q103 22 103 99q0 91 -103 184z" />
    <glyph glyph-name="Edieresis" unicode="&#xcb;" horiz-adv-x="3174" 
d="M1991 2650h-435q-329 0 -368 -401q0 -119 -8 -181q-10 -641 -78.5 -1056t-171 -636t-214.5 -306.5t-237 -102.5q-61 -12 -127 -12q-140 0 -236 76.5t-112 206.5q0 4 -2 14t-2 14q0 108 68.5 169t164.5 61q82 0 151.5 -43.5t94.5 -124.5q47 -40 90 -49q3 0 9.5 -2.5
t7.5 -2.5q89 0 162.5 165.5t124.5 430.5t78.5 580t27.5 618q-4 237 -12.5 346t-45.5 190t-122.5 120.5t-245.5 40.5v82h2413v-82h-41q-179 0 -264 -72t-85 -252v-2048q0 -130 43 -200t126.5 -96.5t220.5 -26.5v-70h-1364v70q201 0 295 67t94 256v2257z" />
    <glyph glyph-name="Edieresis" unicode="&#x41b;" horiz-adv-x="3174" 
d="M1991 2650h-435q-329 0 -368 -401q0 -119 -8 -181q-10 -641 -78.5 -1056t-171 -636t-214.5 -306.5t-237 -102.5q-61 -12 -127 -12q-140 0 -236 76.5t-112 206.5q0 4 -2 14t-2 14q0 108 68.5 169t164.5 61q82 0 151.5 -43.5t94.5 -124.5q47 -40 90 -49q3 0 9.5 -2.5
t7.5 -2.5q89 0 162.5 165.5t124.5 430.5t78.5 580t27.5 618q-4 237 -12.5 346t-45.5 190t-122.5 120.5t-245.5 40.5v82h2413v-82h-41q-179 0 -264 -72t-85 -252v-2048q0 -130 43 -200t126.5 -96.5t220.5 -26.5v-70h-1364v70q201 0 295 67t94 256v2257z" />
    <glyph glyph-name="Igrave" unicode="&#xcc;" horiz-adv-x="3973" 
d="M2793 2290l-1048 -2290h-57l-1061 2249v-1856q0 -188 96.5 -255.5t300.5 -67.5v-70h-979v70q199 0 290 67t91 256v2048q0 179 -84 251.5t-260 72.5h-37v82h999l881 -1913l868 1913h967v-82h-41q-178 0 -263 -72t-85 -252v-2048q0 -130 43 -200t126 -96.5t220 -26.5v-70
h-1364v70q206 0 301.5 67t95.5 256v1897z" />
    <glyph glyph-name="Igrave" unicode="&#x41c;" horiz-adv-x="3973" 
d="M2793 2290l-1048 -2290h-57l-1061 2249v-1856q0 -188 96.5 -255.5t300.5 -67.5v-70h-979v70q199 0 290 67t91 256v2048q0 179 -84 251.5t-260 72.5h-37v82h999l881 -1913l868 1913h967v-82h-41q-178 0 -263 -72t-85 -252v-2048q0 -130 43 -200t126 -96.5t220 -26.5v-70
h-1364v70q206 0 301.5 67t95.5 256v1897z" />
    <glyph glyph-name="Iacute" unicode="&#xcd;" horiz-adv-x="3486" 
d="M1032 1376v-983q0 -190 90 -256.5t291 -66.5v-70h-1368v70q134 0 215.5 26.5t123.5 96t42 200.5v2048q0 179 -84 251.5t-260 72.5h-37v82h1368v-82h-41q-174 0 -257 -72t-83 -252v-852h1245v852q0 180 -85.5 252t-270.5 72h-37v82h1381v-82h-41q-176 0 -260.5 -72.5
t-84.5 -251.5v-2048q0 -189 93 -256t293 -67v-70h-1381v70q210 0 301.5 66.5t91.5 256.5v983h-1245z" />
    <glyph glyph-name="Iacute" unicode="&#x41d;" horiz-adv-x="3486" 
d="M1032 1376v-983q0 -190 90 -256.5t291 -66.5v-70h-1368v70q134 0 215.5 26.5t123.5 96t42 200.5v2048q0 179 -84 251.5t-260 72.5h-37v82h1368v-82h-41q-174 0 -257 -72t-83 -252v-852h1245v852q0 180 -85.5 252t-270.5 72h-37v82h1381v-82h-41q-176 0 -260.5 -72.5
t-84.5 -251.5v-2048q0 -189 93 -256t293 -67v-70h-1381v70q210 0 301.5 66.5t91.5 256.5v983h-1245z" />
    <glyph glyph-name="Icircumflex" unicode="&#xce;" horiz-adv-x="3174" 
d="M4 1417q0 347 127.5 628.5t339.5 471.5t472.5 288.5t526.5 98.5h13q358 0 696.5 -176.5t554 -516t215.5 -794.5q0 -347 -127 -622t-342.5 -463.5t-478.5 -284.5t-531 -96q-266 0 -526 95t-473 282t-340 464.5t-127 624.5zM713 1409q0 -731 222.5 -1010.5t526.5 -279.5
l8 -4q134 0 266.5 54t248 192.5t188 397t72.5 650.5q0 402 -74 664t-191.5 401.5t-248.5 190.5t-269 51q-304 -8 -526.5 -290.5t-222.5 -1016.5z" />
    <glyph glyph-name="Icircumflex" unicode="&#x41e;" horiz-adv-x="3174" 
d="M4 1417q0 347 127.5 628.5t339.5 471.5t472.5 288.5t526.5 98.5h13q358 0 696.5 -176.5t554 -516t215.5 -794.5q0 -347 -127 -622t-342.5 -463.5t-478.5 -284.5t-531 -96q-266 0 -526 95t-473 282t-340 464.5t-127 624.5zM713 1409q0 -731 222.5 -1010.5t526.5 -279.5
l8 -4q134 0 266.5 54t248 192.5t188 397t72.5 650.5q0 402 -74 664t-191.5 401.5t-248.5 190.5t-269 51q-304 -8 -526.5 -290.5t-222.5 -1016.5z" />
    <glyph glyph-name="Idieresis" unicode="&#xcf;" horiz-adv-x="3486" 
d="M1012 2630v-2237q0 -180 80 -249.5t256 -69.5q6 0 22 2t23 2v-78h-1364v78q6 0 20 -2t21 -2q180 0 264 69.5t84 249.5v2048q0 179 -86 251.5t-266 72.5h-37v82h3264v-82h-41q-178 0 -263 -72t-85 -252v-2048q0 -180 83 -249.5t261 -69.5q6 0 23 2t22 2v-78h-1372v78
q6 0 21 -2t20 -2q182 0 265 69.5t83 249.5l-4 2237h-1294z" />
    <glyph glyph-name="Idieresis" unicode="&#x41f;" horiz-adv-x="3486" 
d="M1012 2630v-2237q0 -180 80 -249.5t256 -69.5q6 0 22 2t23 2v-78h-1364v78q6 0 20 -2t21 -2q180 0 264 69.5t84 249.5v2048q0 179 -86 251.5t-266 72.5h-37v82h3264v-82h-41q-178 0 -263 -72t-85 -252v-2048q0 -180 83 -249.5t261 -69.5q6 0 23 2t22 2v-78h-1372v78
q6 0 21 -2t20 -2q182 0 265 69.5t83 249.5l-4 2237h-1294z" />
    <glyph glyph-name="Eth" unicode="&#xd0;" horiz-adv-x="2728" 
d="M422 430v1974q0 369 -348 369h-49v74h1437q233 0 458 -49t404 -228t179 -526v-86q-17 -173 -92 -330t-209 -277.5t-330.5 -188.5t-446.5 -68q-48 0 -405 28v-692q0 -200 94.5 -288.5t286.5 -88.5q4 0 16 2t17 2v-57h-1401v57q4 0 12 -2t12 -2q365 0 365 377zM1012 1319
q119 -25 192 -25q163 0 309 64.5t242 221.5t96 415v16q-1 223 -77.5 371.5t-198.5 214t-268 65.5q-147 0 -295 -61v-1282z" />
    <glyph glyph-name="Eth" unicode="&#x420;" horiz-adv-x="2728" 
d="M422 430v1974q0 369 -348 369h-49v74h1437q233 0 458 -49t404 -228t179 -526v-86q-17 -173 -92 -330t-209 -277.5t-330.5 -188.5t-446.5 -68q-48 0 -405 28v-692q0 -200 94.5 -288.5t286.5 -88.5q4 0 16 2t17 2v-57h-1401v57q4 0 12 -2t12 -2q365 0 365 377zM1012 1319
q119 -25 192 -25q163 0 309 64.5t242 221.5t96 415v16q-1 223 -77.5 371.5t-198.5 214t-268 65.5q-147 0 -295 -61v-1282z" />
    <glyph glyph-name="Ntilde" unicode="&#xd1;" horiz-adv-x="2904" 
d="M2576 610l103 -114q-149 -160 -283 -262.5t-271.5 -165.5t-281.5 -90t-315 -27h-41q-417 7 -750.5 189t-523 505.5t-193.5 734.5q0 7 -2 21t-2 20q0 328 109.5 604t308 472.5t463 301.5t569.5 105h33q324 0 762 -201q2 0 8 -2t8 -2q51 0 83 46.5t32 113.5q0 8 -2 29
t-2 28h131l57 -1110h-114q-18 230 -115.5 442t-287 348t-462.5 136h-53q-228 -13 -396.5 -135t-276 -319t-157.5 -427t-50 -471q0 -416 127.5 -691t327.5 -408.5t425 -153.5q11 0 31 -2t31 -2q466 0 970 487z" />
    <glyph glyph-name="Ntilde" unicode="&#x421;" horiz-adv-x="2904" 
d="M2576 610l103 -114q-149 -160 -283 -262.5t-271.5 -165.5t-281.5 -90t-315 -27h-41q-417 7 -750.5 189t-523 505.5t-193.5 734.5q0 7 -2 21t-2 20q0 328 109.5 604t308 472.5t463 301.5t569.5 105h33q324 0 762 -201q2 0 8 -2t8 -2q51 0 83 46.5t32 113.5q0 8 -2 29
t-2 28h131l57 -1110h-114q-18 230 -115.5 442t-287 348t-462.5 136h-53q-228 -13 -396.5 -135t-276 -319t-157.5 -427t-50 -471q0 -416 127.5 -691t327.5 -408.5t425 -153.5q11 0 31 -2t31 -2q466 0 970 487z" />
    <glyph glyph-name="Ograve" unicode="&#xd2;" horiz-adv-x="3039" 
d="M1122 2630h-295q-155 0 -298.5 -45.5t-262.5 -225t-127 -536.5h-98l98 1024h2577l102 -1024h-102q-1 281 -81 461t-225.5 263t-349.5 83h-331v-2237q0 -179 83.5 -249t260.5 -70q6 0 22 2t23 2v-78h-1381v78q7 0 21 -2t20 -2q175 0 259.5 70t84.5 249v2237z" />
    <glyph glyph-name="Ograve" unicode="&#x422;" horiz-adv-x="3039" 
d="M1122 2630h-295q-155 0 -298.5 -45.5t-262.5 -225t-127 -536.5h-98l98 1024h2577l102 -1024h-102q-1 281 -81 461t-225.5 263t-349.5 83h-331v-2237q0 -179 83.5 -249t260.5 -70q6 0 22 2t23 2v-78h-1381v78q7 0 21 -2t20 -2q175 0 259.5 70t84.5 249v2237z" />
    <glyph glyph-name="Oacute" unicode="&#xd3;" horiz-adv-x="3305" 
d="M1794 1180l565 1196q66 130 66 192v33q-27 145 -299 172l8 74h954v-74q-146 -14 -235 -106.5t-170 -253.5l-1024 -2040q-112 -232 -263.5 -327t-416.5 -95h-53q-216 5 -319 95t-103 204q0 2 -2 10t-2 10q0 105 71 163.5t174 58.5q93 0 178 -47.5t113 -129.5
q23 -23 56.5 -60t57.5 -54t50 -17q42 0 119 58q44 56 70 102q11 12 27 35t22 31l73 151l-1044 1860q-92 162 -192.5 247t-254.5 105l5 74h1327l-4 -74h-25q-103 0 -169 -40.5t-81 -94.5q-12 -25 -12 -62q0 -24 9.5 -52.5t24 -58t19.5 -44.5z" />
    <glyph glyph-name="Oacute" unicode="&#x423;" horiz-adv-x="3305" 
d="M1794 1180l565 1196q66 130 66 192v33q-27 145 -299 172l8 74h954v-74q-146 -14 -235 -106.5t-170 -253.5l-1024 -2040q-112 -232 -263.5 -327t-416.5 -95h-53q-216 5 -319 95t-103 204q0 2 -2 10t-2 10q0 105 71 163.5t174 58.5q93 0 178 -47.5t113 -129.5
q23 -23 56.5 -60t57.5 -54t50 -17q42 0 119 58q44 56 70 102q11 12 27 35t22 31l73 151l-1044 1860q-92 162 -192.5 247t-254.5 105l5 74h1327l-4 -74h-25q-103 0 -169 -40.5t-81 -94.5q-12 -25 -12 -62q0 -24 9.5 -52.5t24 -58t19.5 -44.5z" />
    <glyph glyph-name="Ocircumflex" unicode="&#xd4;" horiz-adv-x="3797" 
d="M1491 422q-23 -1 -67.5 -4.5t-89.5 -5.5t-68 -2q-165 0 -373 28q-238 44 -434 188t-311 368t-119 497q0 4 -2 12t-2 13q0 299 150 539.5t412 376.5t576 136q181 0 328 -33v17q0 278 -348 278h-41v74h1372v-74h-45q-344 0 -344 -286v-9q140 33 323 33q232 0 441.5 -74
t371 -214t252.5 -335t91 -429v-25q-6 -277 -126.5 -503.5t-318 -368t-428.5 -181.5q-208 -28 -381 -28q-50 0 -109.5 4.5t-115.5 7.5v-29q0 -189 93 -256t296 -67v-70h-1364v70q199 0 290 67t91 256v29zM1483 618l8 1729q-113 37 -234 37q-146 0 -274.5 -74t-214.5 -266
t-92 -516q0 -3 -2 -16t-2 -17q0 -327 93.5 -528.5t238.5 -285t311 -83.5q45 0 168 20zM2085 627q136 -29 188 -29q171 0 313 90.5t228 289t86 505.5v45q-8 472 -178 664t-408 192q-88 0 -229 -37v-1720z" />
    <glyph glyph-name="Ocircumflex" unicode="&#x424;" horiz-adv-x="3797" 
d="M1491 422q-23 -1 -67.5 -4.5t-89.5 -5.5t-68 -2q-165 0 -373 28q-238 44 -434 188t-311 368t-119 497q0 4 -2 12t-2 13q0 299 150 539.5t412 376.5t576 136q181 0 328 -33v17q0 278 -348 278h-41v74h1372v-74h-45q-344 0 -344 -286v-9q140 33 323 33q232 0 441.5 -74
t371 -214t252.5 -335t91 -429v-25q-6 -277 -126.5 -503.5t-318 -368t-428.5 -181.5q-208 -28 -381 -28q-50 0 -109.5 4.5t-115.5 7.5v-29q0 -189 93 -256t296 -67v-70h-1364v70q199 0 290 67t91 256v29zM1483 618l8 1729q-113 37 -234 37q-146 0 -274.5 -74t-214.5 -266
t-92 -516q0 -3 -2 -16t-2 -17q0 -327 93.5 -528.5t238.5 -285t311 -83.5q45 0 168 20zM2085 627q136 -29 188 -29q171 0 313 90.5t228 289t86 505.5v45q-8 472 -178 664t-408 192q-88 0 -229 -37v-1720z" />
    <glyph glyph-name="Otilde" unicode="&#xd5;" horiz-adv-x="3305" 
d="M1831 1585l786 -1184q40 -56 76 -106t90 -99.5t132.5 -84.5t185.5 -41v-70h-1405v70q8 0 24 -2t21 -2q99 0 164 51.5t65 128.5q0 79 -53 143l-508 754l-569 -770q-11 -19 -36.5 -57.5t-37.5 -64t-12 -50.5q9 -135 192 -135q1 0 11 2t14 2v-70h-938v70q275 7 557 323
l692 955l-729 1073q-23 33 -67 96t-91.5 110.5t-120.5 87t-168 50.5v82h1450v-82h-16q-111 0 -223.5 -69t-112.5 -156q0 -57 62 -119l430 -635l483 627q57 82 57 151q0 76 -61.5 131t-167.5 70v82h959v-82q-219 -41 -463 -352z" />
    <glyph glyph-name="Otilde" unicode="&#x425;" horiz-adv-x="3305" 
d="M1831 1585l786 -1184q40 -56 76 -106t90 -99.5t132.5 -84.5t185.5 -41v-70h-1405v70q8 0 24 -2t21 -2q99 0 164 51.5t65 128.5q0 79 -53 143l-508 754l-569 -770q-11 -19 -36.5 -57.5t-37.5 -64t-12 -50.5q9 -135 192 -135q1 0 11 2t14 2v-70h-938v70q275 7 557 323
l692 955l-729 1073q-23 33 -67 96t-91.5 110.5t-120.5 87t-168 50.5v82h1450v-82h-16q-111 0 -223.5 -69t-112.5 -156q0 -57 62 -119l430 -635l483 627q57 82 57 151q0 76 -61.5 131t-167.5 70v82h959v-82q-219 -41 -463 -352z" />
    <glyph glyph-name="Odieresis" unicode="&#xd6;" horiz-adv-x="3482" 
d="M2159 193v2248q0 179 -89 251.5t-272 72.5h-37v82h1385v-82h-41q-181 0 -264.5 -72t-83.5 -252v-1925q0 -5 -2 -20t-2 -21q0 -187 77 -304.5t340 -117.5q7 0 21 2t20 2l49 -876h-106q-11 169 -80.5 350.5t-271.5 325t-566 143.5h-2207v70q193 0 280.5 67t87.5 256v2048
q0 181 -81 252.5t-250 71.5h-37v82h1347v-82h-41q-176 0 -258 -71.5t-82 -252.5v-2248h1164z" />
    <glyph glyph-name="Odieresis" unicode="&#x426;" horiz-adv-x="3482" 
d="M2159 193v2248q0 179 -89 251.5t-272 72.5h-37v82h1385v-82h-41q-181 0 -264.5 -72t-83.5 -252v-1925q0 -5 -2 -20t-2 -21q0 -187 77 -304.5t340 -117.5q7 0 21 2t20 2l49 -876h-106q-11 169 -80.5 350.5t-271.5 325t-566 143.5h-2207v70q193 0 280.5 67t87.5 256v2048
q0 181 -81 252.5t-250 71.5h-37v82h1347v-82h-41q-176 0 -258 -71.5t-82 -252.5v-2248h1164z" />
    <glyph glyph-name="multiply" unicode="&#xd7;" horiz-adv-x="3129" 
d="M1901 1331q-389 -138 -799 -151q-2 0 -8 -2t-9 -2q-453 0 -584.5 223.5t-131.5 443.5v598q0 172 -80 248t-248 76h-29v82h1381v-82h-41q-180 0 -268.5 -72.5t-88.5 -251.5v-553q0 -211 57.5 -315.5t258.5 -138.5q77 -17 135 -17q228 0 455 111v913q0 179 -90.5 251.5
t-274.5 72.5h-37v82h1409v-82h-41q-178 0 -263 -72t-85 -252v-2048q0 -130 43 -200t126 -96.5t220 -26.5v-70h-1409v70q208 0 305 67t97 256v938z" />
    <glyph glyph-name="multiply" unicode="&#x427;" horiz-adv-x="3129" 
d="M1901 1331q-389 -138 -799 -151q-2 0 -8 -2t-9 -2q-453 0 -584.5 223.5t-131.5 443.5v598q0 172 -80 248t-248 76h-29v82h1381v-82h-41q-180 0 -268.5 -72.5t-88.5 -251.5v-553q0 -211 57.5 -315.5t258.5 -138.5q77 -17 135 -17q228 0 455 111v913q0 179 -90.5 251.5
t-274.5 72.5h-37v82h1409v-82h-41q-178 0 -263 -72t-85 -252v-2048q0 -130 43 -200t126 -96.5t220 -26.5v-70h-1409v70q208 0 305 67t97 256v938z" />
    <glyph glyph-name="Oslash" unicode="&#xd8;" horiz-adv-x="4817" 
d="M1995 184v2257q0 179 -90 251.5t-271 72.5h-37v82h1393v-82h-41q-178 0 -263 -72t-85 -252v-2257h1012v2257q0 179 -89 251.5t-272 72.5h-37v82h1385v-82h-41q-178 0 -263 -72t-85 -252v-2023q0 -1 -2 -10t-2 -11q0 -142 48 -241t214 -99q8 0 29 2t28 2v-61h-4514v70
q199 0 290 67t91 256v2048q0 179 -84 251.5t-260 72.5h-37v82h1360v-82h-41q-178 0 -263 -72t-85 -252v-2257h1012z" />
    <glyph glyph-name="Oslash" unicode="&#x428;" horiz-adv-x="4817" 
d="M1995 184v2257q0 179 -90 251.5t-271 72.5h-37v82h1393v-82h-41q-178 0 -263 -72t-85 -252v-2257h1012v2257q0 179 -89 251.5t-272 72.5h-37v82h1385v-82h-41q-178 0 -263 -72t-85 -252v-2023q0 -1 -2 -10t-2 -11q0 -142 48 -241t214 -99q8 0 29 2t28 2v-61h-4514v70
q199 0 290 67t91 256v2048q0 179 -84 251.5t-260 72.5h-37v82h1360v-82h-41q-178 0 -263 -72t-85 -252v-2257h1012z" />
    <glyph glyph-name="Ugrave" unicode="&#xd9;" horiz-adv-x="4907" 
d="M971 184h1011v2257q0 179 -89.5 251.5t-270.5 72.5h-37v82h1393v-82h-41q-174 0 -257 -72t-83 -252v-2257h1003v2257q0 179 -86 251.5t-266 72.5h-37v82h1377v-82h-41q-179 0 -264 -72t-85 -252v-2023q0 -160 73.5 -262.5t320.5 -102.5q6 0 22 2t23 2l57 -876h-106
q-11 231 -102.5 412t-293 291t-526.5 116h-3662v70q194 0 285.5 67.5t91.5 255.5v2048q0 178 -84.5 251t-255.5 73h-37v82h1356v-82h-41q-178 0 -263 -72t-85 -252v-2257z" />
    <glyph glyph-name="Ugrave" unicode="&#x429;" horiz-adv-x="4907" 
d="M971 184h1011v2257q0 179 -89.5 251.5t-270.5 72.5h-37v82h1393v-82h-41q-174 0 -257 -72t-83 -252v-2257h1003v2257q0 179 -86 251.5t-266 72.5h-37v82h1377v-82h-41q-179 0 -264 -72t-85 -252v-2023q0 -160 73.5 -262.5t320.5 -102.5q6 0 22 2t23 2l57 -876h-106
q-11 231 -102.5 412t-293 291t-526.5 116h-3662v70q194 0 285.5 67.5t91.5 255.5v2048q0 178 -84.5 251t-255.5 73h-37v82h1356v-82h-41q-178 0 -263 -72t-85 -252v-2257z" />
    <glyph glyph-name="Uacute" unicode="&#xda;" horiz-adv-x="3441" 
d="M1651 1626q198 81 405 94q155 17 242 17q303 0 512.5 -116t313 -304.5t108.5 -403.5v-53q0 -293 -132.5 -472.5t-329.5 -262t-380.5 -104t-370.5 -21.5h-1347v78q4 0 12 -2t12 -2q220 0 288.5 81t68.5 238v2249h-189q-177 0 -302 -49t-209 -145t-137.5 -237t-92.5 -347
h-94l94 983h1913v-82h-41q-178 0 -261 -72t-83 -252v-815zM1651 1425v-1204q125 -76 327 -86q189 0 329.5 107t213 278.5t72.5 356.5q0 168 -63 314.5t-190 237.5t-304 91h-21q-198 -14 -364 -95z" />
    <glyph glyph-name="Uacute" unicode="&#x42a;" horiz-adv-x="3441" 
d="M1651 1626q198 81 405 94q155 17 242 17q303 0 512.5 -116t313 -304.5t108.5 -403.5v-53q0 -293 -132.5 -472.5t-329.5 -262t-380.5 -104t-370.5 -21.5h-1347v78q4 0 12 -2t12 -2q220 0 288.5 81t68.5 238v2249h-189q-177 0 -302 -49t-209 -145t-137.5 -237t-92.5 -347
h-94l94 983h1913v-82h-41q-178 0 -261 -72t-83 -252v-815zM1651 1425v-1204q125 -76 327 -86q189 0 329.5 107t213 278.5t72.5 356.5q0 168 -63 314.5t-190 237.5t-304 91h-21q-198 -14 -364 -95z" />
    <glyph glyph-name="Ucircumflex" unicode="&#xdb;" horiz-adv-x="4239" 
d="M1008 1626q211 81 405 94q162 17 242 17q304 0 515.5 -116t316.5 -304t110 -404v-41q0 -298 -134.5 -479.5t-331.5 -264.5t-383 -105.5t-372 -22.5h-1335v78q4 0 12 -2t13 -2q213 0 282.5 82.5t69.5 236.5v2048q0 152 -69 238t-283 86h-25v82h1348v-82h-41
q-175 0 -257.5 -72t-82.5 -252v-815zM1008 1425v-1204q151 -76 323 -86q192 0 332.5 108t213.5 280.5t73 357.5q0 168 -63 313.5t-189 235.5t-301 90h-21q-182 -13 -368 -95zM3023 393v2048q0 179 -84 251.5t-260 72.5h-37v82h1397v-82h-41q-182 0 -269.5 -72.5
t-87.5 -251.5v-2048q0 -180 85.5 -249.5t267.5 -69.5q6 0 22 2t23 2v-78h-1397v70q206 0 293.5 66t87.5 257z" />
    <glyph glyph-name="Ucircumflex" unicode="&#x42b;" horiz-adv-x="4239" 
d="M1008 1626q211 81 405 94q162 17 242 17q304 0 515.5 -116t316.5 -304t110 -404v-41q0 -298 -134.5 -479.5t-331.5 -264.5t-383 -105.5t-372 -22.5h-1335v78q4 0 12 -2t13 -2q213 0 282.5 82.5t69.5 236.5v2048q0 152 -69 238t-283 86h-25v82h1348v-82h-41
q-175 0 -257.5 -72t-82.5 -252v-815zM1008 1425v-1204q151 -76 323 -86q192 0 332.5 108t213.5 280.5t73 357.5q0 168 -63 313.5t-189 235.5t-301 90h-21q-182 -13 -368 -95zM3023 393v2048q0 179 -84 251.5t-260 72.5h-37v82h1397v-82h-41q-182 0 -269.5 -72.5
t-87.5 -251.5v-2048q0 -180 85.5 -249.5t267.5 -69.5q6 0 22 2t23 2v-78h-1397v70q206 0 293.5 66t87.5 257z" />
    <glyph glyph-name="Udieresis" unicode="&#xdc;" horiz-adv-x="2773" 
d="M979 1626q344 115 672 115q314 -10 519.5 -131t301.5 -306t104 -391v-41q0 -298 -134.5 -480t-330 -264.5t-381.5 -105t-370 -22.5h-1340v78q5 0 13 -2t12 -2q210 0 277 82t67 237v2048q0 151 -69.5 237.5t-278.5 86.5h-21v82h1340v-82h-41q-174 0 -257 -72t-83 -252
v-815zM979 1425v-1204q153 -76 324 -86q190 0 330.5 108t214 280.5t73.5 361.5q0 167 -63.5 312.5t-187.5 234t-302 88.5h-20q-181 -13 -369 -95z" />
    <glyph glyph-name="Udieresis" unicode="&#x42c;" horiz-adv-x="2773" 
d="M979 1626q344 115 672 115q314 -10 519.5 -131t301.5 -306t104 -391v-41q0 -298 -134.5 -480t-330 -264.5t-381.5 -105t-370 -22.5h-1340v78q5 0 13 -2t12 -2q210 0 277 82t67 237v2048q0 151 -69.5 237.5t-278.5 86.5h-21v82h1340v-82h-41q-174 0 -257 -72t-83 -252
v-815zM979 1425v-1204q153 -76 324 -86q190 0 330.5 108t214 280.5t73.5 361.5q0 167 -63.5 312.5t-187.5 234t-302 88.5h-20q-181 -13 -369 -95z" />
    <glyph glyph-name="Yacute" unicode="&#xdd;" horiz-adv-x="2904" 
d="M901 1294v217h1098q-15 534 -248 867t-625 354h-57q-217 0 -402 -108.5t-302.5 -319.5t-139.5 -498h-119l54 1098h127q0 -4 -2 -14t-2 -15q0 -68 34.5 -122t83.5 -54q32 0 82 33q357 172 701 172h16q315 0 588.5 -108t472.5 -305.5t308.5 -471t109.5 -598.5v-41
q-9 -310 -121.5 -572t-311 -450.5t-470 -294.5t-588.5 -112h-45q-169 0 -310 27t-275 90t-262 164.5t-276 263.5l86 114q232 -219 463 -353t492 -134q10 0 33 2t32 2q153 17 300.5 82t279 201t212.5 356.5t81 527.5h-1098z" />
    <glyph glyph-name="Yacute" unicode="&#x42d;" horiz-adv-x="2904" 
d="M901 1294v217h1098q-15 534 -248 867t-625 354h-57q-217 0 -402 -108.5t-302.5 -319.5t-139.5 -498h-119l54 1098h127q0 -4 -2 -14t-2 -15q0 -68 34.5 -122t83.5 -54q32 0 82 33q357 172 701 172h16q315 0 588.5 -108t472.5 -305.5t308.5 -471t109.5 -598.5v-41
q-9 -310 -121.5 -572t-311 -450.5t-470 -294.5t-588.5 -112h-45q-169 0 -310 27t-275 90t-262 164.5t-276 263.5l86 114q232 -219 463 -353t492 -134q10 0 33 2t32 2q153 17 300.5 82t279 201t212.5 356.5t81 527.5h-1098z" />
    <glyph glyph-name="Thorn" unicode="&#xde;" horiz-adv-x="4731" 
d="M999 1376v-983q0 -190 90 -256.5t291 -66.5v-70h-1355v70q193 0 280.5 67t87.5 256v2048q0 179 -81 251.5t-251 72.5h-36v82h1355v-82h-41q-174 0 -257 -72t-83 -252v-852h553q25 284 153.5 526t334.5 420t459.5 273.5t519.5 95.5h12q358 0 696.5 -176.5t554 -516
t215.5 -794.5q0 -350 -127 -625.5t-342 -463t-477.5 -282.5t-531.5 -95q-282 0 -545.5 101.5t-473.5 292.5t-331 454.5t-121 576.5h-549zM2261 1409q0 -390 69 -647.5t180.5 -397.5t239 -192.5t265.5 -52.5l8 -4q186 0 358.5 104.5t292 393.5t119.5 796q0 520 -122 811.5
t-295 393.5t-361 102q-191 -5 -358.5 -112.5t-281.5 -398t-114 -796.5z" />
    <glyph glyph-name="Thorn" unicode="&#x42e;" horiz-adv-x="4731" 
d="M999 1376v-983q0 -190 90 -256.5t291 -66.5v-70h-1355v70q193 0 280.5 67t87.5 256v2048q0 179 -81 251.5t-251 72.5h-36v82h1355v-82h-41q-174 0 -257 -72t-83 -252v-852h553q25 284 153.5 526t334.5 420t459.5 273.5t519.5 95.5h12q358 0 696.5 -176.5t554 -516
t215.5 -794.5q0 -350 -127 -625.5t-342 -463t-477.5 -282.5t-531.5 -95q-282 0 -545.5 101.5t-473.5 292.5t-331 454.5t-121 576.5h-549zM2261 1409q0 -390 69 -647.5t180.5 -397.5t239 -192.5t265.5 -52.5l8 -4q186 0 358.5 104.5t292 393.5t119.5 796q0 520 -122 811.5
t-295 393.5t-361 102q-191 -5 -358.5 -112.5t-281.5 -398t-114 -796.5z" />
    <glyph glyph-name="germandbls" unicode="&#xdf;" horiz-adv-x="3084" 
d="M33 0v57q89 1 153.5 39.5t114 97t100.5 121.5l770 959q-152 2 -359 62t-376.5 232t-169.5 476q0 2 2 12t2 12q12 489 353.5 634t699.5 145h1532v-74h-53q-357 0 -357 -369v-1974q0 -377 377 -377q4 0 17 2t16 2v-57h-1430v57q5 0 15 -2t14 -2q187 0 282 89t95 288v844
h-57l-676 -975q-6 -20 -46 -88t-40 -96q0 -58 131 -58v-57h-1110zM1831 1446v1155q-17 4 -70.5 18t-115.5 24.5t-125 10.5q-13 0 -38 -2t-36 -2q-230 -22 -379 -171t-149 -411q0 -638 679 -638q70 0 234 16z" />
    <glyph glyph-name="germandbls" unicode="&#x42f;" horiz-adv-x="3084" 
d="M33 0v57q89 1 153.5 39.5t114 97t100.5 121.5l770 959q-152 2 -359 62t-376.5 232t-169.5 476q0 2 2 12t2 12q12 489 353.5 634t699.5 145h1532v-74h-53q-357 0 -357 -369v-1974q0 -377 377 -377q4 0 17 2t16 2v-57h-1430v57q5 0 15 -2t14 -2q187 0 282 89t95 288v844
h-57l-676 -975q-6 -20 -46 -88t-40 -96q0 -58 131 -58v-57h-1110zM1831 1446v1155q-17 4 -70.5 18t-115.5 24.5t-125 10.5q-13 0 -38 -2t-36 -2q-230 -22 -379 -171t-149 -411q0 -638 679 -638q70 0 234 16z" />
    <glyph glyph-name="agrave" unicode="&#xe0;" horiz-adv-x="2241" 
d="M1991 307l28 -65q-360 -291 -589 -291q-68 0 -142.5 53.5t-103.5 208.5q-369 -262 -697 -262h-20q-243 0 -340.5 132.5t-97.5 297.5q0 195 104.5 345.5t271 254t361 175.5t418.5 134v377q0 311 -238 311l-4 4q-202 0 -274 -356q-38 -87 -133.5 -152t-182.5 -65
q-135 0 -188 152q-17 51 -17 77q0 110 102 222t300.5 185t466.5 73h57q265 -8 399 -110t168.5 -208t34.5 -178v-1147q0 -9 -2 -36t-2 -38q0 -184 123 -184q3 0 19 2t22 2q100 30 156 86zM1192 1114q-145 -26 -292 -89.5t-258.5 -178.5t-125.5 -277q0 -5 -2 -16t-2 -12
q0 -163 90.5 -239.5t196.5 -80.5q2 0 6 -2t6 -2q84 0 195.5 52.5t185.5 111.5v733z" />
    <glyph glyph-name="agrave" unicode="&#x430;" horiz-adv-x="2241" 
d="M1991 307l28 -65q-360 -291 -589 -291q-68 0 -142.5 53.5t-103.5 208.5q-369 -262 -697 -262h-20q-243 0 -340.5 132.5t-97.5 297.5q0 195 104.5 345.5t271 254t361 175.5t418.5 134v377q0 311 -238 311l-4 4q-202 0 -274 -356q-38 -87 -133.5 -152t-182.5 -65
q-135 0 -188 152q-17 51 -17 77q0 110 102 222t300.5 185t466.5 73h57q265 -8 399 -110t168.5 -208t34.5 -178v-1147q0 -9 -2 -36t-2 -38q0 -184 123 -184q3 0 19 2t22 2q100 30 156 86zM1192 1114q-145 -26 -292 -89.5t-258.5 -178.5t-125.5 -277q0 -5 -2 -16t-2 -12
q0 -163 90.5 -239.5t196.5 -80.5q2 0 6 -2t6 -2q84 0 195.5 52.5t185.5 111.5v733z" />
    <glyph glyph-name="aacute" unicode="&#xe1;" horiz-adv-x="2327" 
d="M586 991q0 -378 108.5 -662t382.5 -284q2 0 11 2t10 2q274 20 362 293t88 674q0 287 -25.5 485t-128 339.5t-309.5 141.5h-4q-131 0 -243.5 -83t-184 -290.5t-71.5 -551.5q0 -11 2 -33t2 -33zM254 1442q51 150 150 298.5t279 261t435 116.5h12q308 0 526 -148.5
t329 -382.5t116 -485v-45q0 -210 -73 -407.5t-210 -354.5t-329.5 -248.5t-419.5 -95.5h-33q-259 0 -483.5 127t-368 436t-143.5 817q0 5 2 23t2 26q14 557 102.5 899t276.5 536.5t493.5 281.5t794.5 114q49 7 118.5 18.5t117 41t47.5 88.5h86q-10 -239 -87 -373t-179 -187.5
t-246 -91.5q-158 -24 -288 -43t-220 -34q-324 -40 -576 -227t-252 -703q0 -49 8.5 -128.5t12.5 -129.5z" />
    <glyph glyph-name="aacute" unicode="&#x431;" horiz-adv-x="2327" 
d="M586 991q0 -378 108.5 -662t382.5 -284q2 0 11 2t10 2q274 20 362 293t88 674q0 287 -25.5 485t-128 339.5t-309.5 141.5h-4q-131 0 -243.5 -83t-184 -290.5t-71.5 -551.5q0 -11 2 -33t2 -33zM254 1442q51 150 150 298.5t279 261t435 116.5h12q308 0 526 -148.5
t329 -382.5t116 -485v-45q0 -210 -73 -407.5t-210 -354.5t-329.5 -248.5t-419.5 -95.5h-33q-259 0 -483.5 127t-368 436t-143.5 817q0 5 2 23t2 26q14 557 102.5 899t276.5 536.5t493.5 281.5t794.5 114q49 7 118.5 18.5t117 41t47.5 88.5h86q-10 -239 -87 -373t-179 -187.5
t-246 -91.5q-158 -24 -288 -43t-220 -34q-324 -40 -576 -227t-252 -703q0 -49 8.5 -128.5t12.5 -129.5z" />
    <glyph glyph-name="acircumflex" unicode="&#xe2;" horiz-adv-x="2105" 
d="M1225 1130v-57h45q227 0 414.5 -107.5t187.5 -367.5q0 -220 -170 -409t-649 -189h-1037v57q155 0 196.5 56.5t41.5 181.5l8 1454q0 117 -40.5 177.5t-184.5 60.5h-21v73h1065q648 0 648 -430v-61q-19 -201 -166.5 -306.5t-337.5 -132.5zM766 1159q75 -12 102 -12
q153 0 269 87.5t116 309.5v17q0 130 -79.5 245t-313.5 115q-14 0 -45 -2t-49 -2v-758zM766 156q93 -41 176 -41q156 0 266.5 119t110.5 339q-3 229 -123.5 321.5t-339.5 92.5h-90v-831z" />
    <glyph glyph-name="acircumflex" unicode="&#x432;" horiz-adv-x="2105" 
d="M1225 1130v-57h45q227 0 414.5 -107.5t187.5 -367.5q0 -220 -170 -409t-649 -189h-1037v57q155 0 196.5 56.5t41.5 181.5l8 1454q0 117 -40.5 177.5t-184.5 60.5h-21v73h1065q648 0 648 -430v-61q-19 -201 -166.5 -306.5t-337.5 -132.5zM766 1159q75 -12 102 -12
q153 0 269 87.5t116 309.5v17q0 130 -79.5 245t-313.5 115q-14 0 -45 -2t-49 -2v-758zM766 156q93 -41 176 -41q156 0 266.5 119t110.5 339q-3 229 -123.5 321.5t-339.5 92.5h-90v-831z" />
    <glyph glyph-name="atilde" unicode="&#xe3;" horiz-adv-x="1884" 
d="M766 1872v-1577q0 -123 56 -180.5t186 -57.5v-57h-975v57q99 0 144.5 40t76.5 141q0 9 4 26t4 31v1454q0 95 -67.5 166.5t-161.5 71.5v73h1659v-757h-66q-17 314 -182 445.5t-486 131.5q-62 0 -192 -8z" />
    <glyph glyph-name="atilde" unicode="&#x433;" horiz-adv-x="1884" 
d="M766 1872v-1577q0 -123 56 -180.5t186 -57.5v-57h-975v57q99 0 144.5 40t76.5 141q0 9 4 26t4 31v1454q0 95 -67.5 166.5t-161.5 71.5v73h1659v-757h-66q-17 314 -182 445.5t-486 131.5q-62 0 -192 -8z" />
    <glyph glyph-name="adieresis" unicode="&#xe4;" horiz-adv-x="2417" 
d="M2195 -569v8v631q-5 0 -22 -2t-27 -2q-100 0 -177 53.5t-77 179.5v1450q0 10 4.5 26.5t4.5 26.5q16 29 16 86q26 64 78.5 81.5t142.5 17.5v73h-1769v-73q262 -42 262 -467q-4 -158 -13.5 -425.5t-58 -477.5t-173 -361.5t-349.5 -185.5v-639h53q17 164 92.5 294t206 202.5
t299.5 72.5h860q165 0 295 -71t202.5 -196.5t72.5 -281.5v-20h77zM516 143q154 281 206 565t52 623v201q0 356 250 356h360v-1745h-868z" />
    <glyph glyph-name="adieresis" unicode="&#x434;" horiz-adv-x="2417" 
d="M2195 -569v8v631q-5 0 -22 -2t-27 -2q-100 0 -177 53.5t-77 179.5v1450q0 10 4.5 26.5t4.5 26.5q16 29 16 86q26 64 78.5 81.5t142.5 17.5v73h-1769v-73q262 -42 262 -467q-4 -158 -13.5 -425.5t-58 -477.5t-173 -361.5t-349.5 -185.5v-639h53q17 164 92.5 294t206 202.5
t299.5 72.5h860q165 0 295 -71t202.5 -196.5t72.5 -281.5v-20h77zM516 143q154 281 206 565t52 623v201q0 356 250 356h360v-1745h-868z" />
    <glyph glyph-name="aring" unicode="&#xe5;" horiz-adv-x="2105" 
d="M1815 582l65 -37q-149 -249 -318 -381t-320.5 -172.5t-303.5 -40.5h-20q-292 0 -499 129.5t-313 361.5t-106 529q0 6 2 23t2 22q12 328 143 580t347.5 387t472.5 135h37q332 -14 555.5 -235t242.5 -732h-1302q0 -12 -2 -43t-2 -47q0 -193 50 -383.5t187.5 -327.5
t376.5 -137l8 -4q226 0 407 110.5t290 262.5zM492 1331l753 -8v61q0 293 -107 429.5t-241 136.5h-12q-151 0 -272 -159t-121 -460z" />
    <glyph glyph-name="aring" unicode="&#x435;" horiz-adv-x="2105" 
d="M1815 582l65 -37q-149 -249 -318 -381t-320.5 -172.5t-303.5 -40.5h-20q-292 0 -499 129.5t-313 361.5t-106 529q0 6 2 23t2 22q12 328 143 580t347.5 387t472.5 135h37q332 -14 555.5 -235t242.5 -732h-1302q0 -12 -2 -43t-2 -47q0 -193 50 -383.5t187.5 -327.5
t376.5 -137l8 -4q226 0 407 110.5t290 262.5zM492 1331l753 -8v61q0 293 -107 429.5t-241 136.5h-12q-151 0 -272 -159t-121 -460z" />
    <glyph glyph-name="ae" unicode="&#xe6;" horiz-adv-x="3441" 
d="M1376 991l-504 -782q-49 -77 -49 -98l4 -5q0 -25 26 -47t65 -22q2 0 10 2t10 2v-41h-918v41q213 20 349 229l635 910l-480 561q-95 112 -184 176.5t-225 64.5v78h823v-78h-20q-68 0 -108 -36t-40 -91q0 -45 45 -114l561 -692v708q0 225 -188 225q-21 5 -86 5v73h1012v-73
q-62 0 -86 -5q-193 0 -193 -225v-708l569 692q45 64 45 114q0 52 -42 89.5t-109 37.5h-17v78h820v-78q-138 0 -226 -63.5t-184 -177.5l-475 -561l635 -910q73 -99 144 -157.5t216 -71.5v-41h-930v41q6 0 13 -2t8 -2q74 0 74 57q0 35 -29 115l-512 782v-704q0 -136 69.5 -183
t209.5 -47v-57h-1012v57q135 0 204.5 48.5t69.5 181.5v704z" />
    <glyph glyph-name="ae" unicode="&#x436;" horiz-adv-x="3441" 
d="M1376 991l-504 -782q-49 -77 -49 -98l4 -5q0 -25 26 -47t65 -22q2 0 10 2t10 2v-41h-918v41q213 20 349 229l635 910l-480 561q-95 112 -184 176.5t-225 64.5v78h823v-78h-20q-68 0 -108 -36t-40 -91q0 -45 45 -114l561 -692v708q0 225 -188 225q-21 5 -86 5v73h1012v-73
q-62 0 -86 -5q-193 0 -193 -225v-708l569 692q45 64 45 114q0 52 -42 89.5t-109 37.5h-17v78h820v-78q-138 0 -226 -63.5t-184 -177.5l-475 -561l635 -910q73 -99 144 -157.5t216 -71.5v-41h-930v41q6 0 13 -2t8 -2q74 0 74 57q0 35 -29 115l-512 782v-704q0 -136 69.5 -183
t209.5 -47v-57h-1012v57q135 0 204.5 48.5t69.5 181.5v704z" />
    <glyph glyph-name="ccedilla" unicode="&#xe7;" horiz-adv-x="1970" 
d="M246 1311h-103l86 807h119q0 -6 -2 -17t-2 -12q0 -98 107 -98q63 0 182.5 40t132.5 42q155 36 307 36q229 0 381 -94.5t152 -314.5q0 -316 -492 -586h49q228 0 400 -112.5t178 -333.5v-37q0 -177 -102.5 -332t-303 -251t-475.5 -97h-24q-190 0 -373 62t-298.5 166
t-127.5 222q0 3 -2 9t-2 8q0 103 64.5 164t152.5 61q80 0 144 -49t81 -143q4 -29 5.5 -50t4 -43.5t7 -48t8.5 -39.5q0 -62 61.5 -124.5t204.5 -67.5q2 0 6 -2t6 -2q185 0 312 130t139 328v46q0 216 -155.5 304.5t-373.5 88.5q-69 0 -159 -8v131q320 52 461 208.5t149 323.5
v16q0 113 -78 196t-209 83h-41q-373 -33 -577 -610z" />
    <glyph glyph-name="ccedilla" unicode="&#x437;" horiz-adv-x="1970" 
d="M246 1311h-103l86 807h119q0 -6 -2 -17t-2 -12q0 -98 107 -98q63 0 182.5 40t132.5 42q155 36 307 36q229 0 381 -94.5t152 -314.5q0 -316 -492 -586h49q228 0 400 -112.5t178 -333.5v-37q0 -177 -102.5 -332t-303 -251t-475.5 -97h-24q-190 0 -373 62t-298.5 166
t-127.5 222q0 3 -2 9t-2 8q0 103 64.5 164t152.5 61q80 0 144 -49t81 -143q4 -29 5.5 -50t4 -43.5t7 -48t8.5 -39.5q0 -62 61.5 -124.5t204.5 -67.5q2 0 6 -2t6 -2q185 0 312 130t139 328v46q0 216 -155.5 304.5t-373.5 88.5q-69 0 -159 -8v131q320 52 461 208.5t149 323.5
v16q0 113 -78 196t-209 83h-41q-373 -33 -577 -610z" />
    <glyph glyph-name="egrave" unicode="&#xe8;" horiz-adv-x="2552" 
d="M1585 1475l-786 -1102q-49 -76 -49 -135q0 -77 63 -131t154 -54q6 0 20 2t21 2v-57h-975v57q147 0 188 58.5t41 158.5v1475q0 131 -48.5 184.5t-156.5 53.5h-24v73h975v-73h-25q-144 0 -182.5 -62.5t-38.5 -175.5v-1118l782 1098q41 64 41 118q0 65 -63 102.5t-158 37.5
h-25v73h983v-73h-32q-113 0 -163 -53.5t-50 -184.5v-1454q0 -2 -2 -10t-2 -11q0 -99 45.5 -158t203.5 -59v-57h-983v57q137 0 191.5 49.5t54.5 188.5v1180z" />
    <glyph glyph-name="egrave" unicode="&#x438;" horiz-adv-x="2552" 
d="M1585 1475l-786 -1102q-49 -76 -49 -135q0 -77 63 -131t154 -54q6 0 20 2t21 2v-57h-975v57q147 0 188 58.5t41 158.5v1475q0 131 -48.5 184.5t-156.5 53.5h-24v73h975v-73h-25q-144 0 -182.5 -62.5t-38.5 -175.5v-1118l782 1098q41 64 41 118q0 65 -63 102.5t-158 37.5
h-25v73h983v-73h-32q-113 0 -163 -53.5t-50 -184.5v-1454q0 -2 -2 -10t-2 -11q0 -99 45.5 -158t203.5 -59v-57h-983v57q137 0 191.5 49.5t54.5 188.5v1180z" />
    <glyph glyph-name="eacute" unicode="&#xe9;" horiz-adv-x="2552" 
d="M1163 2400q-204 0 -352.5 69.5t-223.5 171.5t-75 198q0 2 2 10t2 10q11 101 92 159t178 58q88 0 155 -54t67 -147v-16q0 -54 -36 -108.5t-95 -92.5q135 -135 290 -135q156 0 291 135q-131 86 -131 213q0 82 59 147t162 74h4q106 0 182 -70t85 -163v-8q0 -98 -72.5 -203.5
t-221.5 -176.5t-362 -71zM1585 1475l-786 -1102q-49 -76 -49 -135q0 -77 63 -131t154 -54q6 0 20 2t21 2v-57h-975v57q147 0 188 58.5t41 158.5v1475q0 131 -48.5 184.5t-156.5 53.5h-24v73h975v-73h-25q-144 0 -182.5 -62.5t-38.5 -175.5v-1118l782 1098q41 64 41 118
q0 65 -63 102.5t-158 37.5h-25v73h983v-73h-32q-113 0 -163 -53.5t-50 -184.5v-1454q0 -2 -2 -10t-2 -11q0 -99 45.5 -158t203.5 -59v-57h-983v57q137 0 191.5 49.5t54.5 188.5v1180z" />
    <glyph glyph-name="eacute" unicode="&#x439;" horiz-adv-x="2552" 
d="M1163 2400q-204 0 -352.5 69.5t-223.5 171.5t-75 198q0 2 2 10t2 10q11 101 92 159t178 58q88 0 155 -54t67 -147v-16q0 -54 -36 -108.5t-95 -92.5q135 -135 290 -135q156 0 291 135q-131 86 -131 213q0 82 59 147t162 74h4q106 0 182 -70t85 -163v-8q0 -98 -72.5 -203.5
t-221.5 -176.5t-362 -71zM1585 1475l-786 -1102q-49 -76 -49 -135q0 -77 63 -131t154 -54q6 0 20 2t21 2v-57h-975v57q147 0 188 58.5t41 158.5v1475q0 131 -48.5 184.5t-156.5 53.5h-24v73h975v-73h-25q-144 0 -182.5 -62.5t-38.5 -175.5v-1118l782 1098q41 64 41 118
q0 65 -63 102.5t-158 37.5h-25v73h983v-73h-32q-113 0 -163 -53.5t-50 -184.5v-1454q0 -2 -2 -10t-2 -11q0 -99 45.5 -158t203.5 -59v-57h-983v57q137 0 191.5 49.5t54.5 188.5v1180z" />
    <glyph glyph-name="ecircumflex" unicode="&#xea;" horiz-adv-x="2372" 
d="M291 287v1470q0 225 -189 225q-24 5 -73 5v73h1003v-73q-65 0 -86 -5q-188 0 -188 -225v-635l602 643q53 59 53 111q0 45 -42 78t-93 33h-12v73h807v-73q-85 0 -142.5 -40t-218.5 -182l-614 -536l721 -950q53 -66 92.5 -113.5t91.5 -77.5t135 -31v-57h-946v57q2 0 10 -2
t10 -2q47 0 77 23t34 51v12q0 46 -57 140l-508 729v-721q0 -137 67 -183.5t207 -46.5v-57h-995v57q124 0 189 47.5t65 182.5z" />
    <glyph glyph-name="ecircumflex" unicode="&#x43a;" horiz-adv-x="2372" 
d="M291 287v1470q0 225 -189 225q-24 5 -73 5v73h1003v-73q-65 0 -86 -5q-188 0 -188 -225v-635l602 643q53 59 53 111q0 45 -42 78t-93 33h-12v73h807v-73q-85 0 -142.5 -40t-218.5 -182l-614 -536l721 -950q53 -66 92.5 -113.5t91.5 -77.5t135 -31v-57h-946v57q2 0 10 -2
t10 -2q47 0 77 23t34 51v12q0 46 -57 140l-508 729v-721q0 -137 67 -183.5t207 -46.5v-57h-995v57q124 0 189 47.5t65 182.5z" />
    <glyph glyph-name="edieresis" unicode="&#xeb;" horiz-adv-x="2417" 
d="M1475 1880h-271q-167 0 -192 -139q-13 -19 -13 -49q0 -9 2.5 -23t2.5 -27q4 -77 4 -241q0 -170 -17 -553q-21 -377 -109 -572.5t-205 -257t-271 -67.5h-37q-180 0 -258 72.5t-78 173.5q0 4 2 16t2 16q3 85 65 139t144 54q102 0 168 -78q8 -10 32.5 -43.5t48.5 -50.5
t54 -17q2 0 10.5 2.5t13.5 2.5q271 26 271 1167v237q0 153 -49.5 246.5t-237.5 93.5v78h1638v-73q-241 0 -241 -238v-1454q0 -14 2 -31t2 -26l7 -31t17 -43q20 -71 71 -89t142 -18v-57h-958v57q238 0 238 238v1585z" />
    <glyph glyph-name="edieresis" unicode="&#x43b;" horiz-adv-x="2417" 
d="M1475 1880h-271q-167 0 -192 -139q-13 -19 -13 -49q0 -9 2.5 -23t2.5 -27q4 -77 4 -241q0 -170 -17 -553q-21 -377 -109 -572.5t-205 -257t-271 -67.5h-37q-180 0 -258 72.5t-78 173.5q0 4 2 16t2 16q3 85 65 139t144 54q102 0 168 -78q8 -10 32.5 -43.5t48.5 -50.5
t54 -17q2 0 10.5 2.5t13.5 2.5q271 26 271 1167v237q0 153 -49.5 246.5t-237.5 93.5v78h1638v-73q-241 0 -241 -238v-1454q0 -14 2 -31t2 -26l7 -31t17 -43q20 -71 71 -89t142 -18v-57h-958v57q238 0 238 238v1585z" />
    <glyph glyph-name="igrave" unicode="&#xec;" horiz-adv-x="2863" 
d="M1348 659l536 1401h766v-73q-65 0 -82 -5q-70 0 -110.5 -26t-57 -75.5t-16.5 -123.5v-1470q0 -138 63.5 -184t202.5 -46v-57h-1040v57q134 0 204 49.5t70 180.5v1224l-614 -1511h-111l-667 1511v-1224q0 -137 67 -183.5t207 -46.5v-57h-729v57q144 0 211 43t67 187v1470
q0 225 -184 225q-25 5 -86 5v73h750z" />
    <glyph glyph-name="igrave" unicode="&#x43c;" horiz-adv-x="2863" 
d="M1348 659l536 1401h766v-73q-65 0 -82 -5q-70 0 -110.5 -26t-57 -75.5t-16.5 -123.5v-1470q0 -138 63.5 -184t202.5 -46v-57h-1040v57q134 0 204 49.5t70 180.5v1224l-614 -1511h-111l-667 1511v-1224q0 -137 67 -183.5t207 -46.5v-57h-729v57q144 0 211 43t67 187v1470
q0 225 -184 225q-25 5 -86 5v73h750z" />
    <glyph glyph-name="iacute" unicode="&#xed;" horiz-adv-x="2552" 
d="M754 999v-704q0 -23 8 -66t8 -65q28 -72 78.5 -89.5t142.5 -17.5v-57h-958v57q217 0 217 181q8 20 8 57v1454q0 37 -8 53q0 93 -64.5 139t-152.5 46v73h958v-73q-91 0 -144.5 -17.5t-76.5 -81.5q0 -28 -8 -73t-8 -66v-561h823v561q0 97 -73 167.5t-169 70.5v73h987v-73
q-245 0 -245 -238v-1454q0 -238 245 -238v-57h-987v57q110 0 157 39t81 142q0 9 2 26t2 31v704h-823z" />
    <glyph glyph-name="iacute" unicode="&#x43d;" horiz-adv-x="2552" 
d="M754 999v-704q0 -23 8 -66t8 -65q28 -72 78.5 -89.5t142.5 -17.5v-57h-958v57q217 0 217 181q8 20 8 57v1454q0 37 -8 53q0 93 -64.5 139t-152.5 46v73h958v-73q-91 0 -144.5 -17.5t-76.5 -81.5q0 -28 -8 -73t-8 -66v-561h823v561q0 97 -73 167.5t-169 70.5v73h987v-73
q-245 0 -245 -238v-1454q0 -238 245 -238v-57h-987v57q110 0 157 39t81 142q0 9 2 26t2 31v704h-823z" />
    <glyph glyph-name="icircumflex" unicode="&#xee;" horiz-adv-x="2241" 
d="M33 922q0 226 65.5 438t192 380.5t316 270t429.5 107.5h37q280 0 497.5 -136.5t340 -368.5t133.5 -503v-45q0 -214 -72 -415.5t-208.5 -359.5t-330 -248.5t-425.5 -90.5h-13q-276 0 -496.5 127.5t-343 350t-122.5 493.5zM541 991q0 -934 483 -934q1 0 12 2t17 2
q275 20 358.5 278.5t83.5 676.5q0 420 -89 689t-370 269h-41q-458 -45 -458 -876q0 -16 2 -52t2 -55z" />
    <glyph glyph-name="icircumflex" unicode="&#x43e;" horiz-adv-x="2241" 
d="M33 922q0 226 65.5 438t192 380.5t316 270t429.5 107.5h37q280 0 497.5 -136.5t340 -368.5t133.5 -503v-45q0 -214 -72 -415.5t-208.5 -359.5t-330 -248.5t-425.5 -90.5h-13q-276 0 -496.5 127.5t-343 350t-122.5 493.5zM541 991q0 -934 483 -934q1 0 12 2t17 2
q275 20 358.5 278.5t83.5 676.5q0 420 -89 689t-370 269h-41q-458 -45 -458 -876q0 -16 2 -52t2 -55z" />
    <glyph glyph-name="idieresis" unicode="&#xef;" horiz-adv-x="2507" 
d="M745 1892v-1654q36 -105 81 -143t157 -38v-57h-979v57q79 0 132 19.5t77 87.5q0 16 4 39t4 35q8 20 8 61v1450q0 37 -8 53q0 15 -4 45t-4 41q-39 99 -209 99v73h2302v-73q-103 0 -170.5 -45t-67.5 -140q-8 -16 -8 -53v-1450q0 -41 8 -61q0 -181 238 -181v-57h-999v57
q88 0 142.5 19t78.5 88q0 23 8 69t8 66v1593h-799z" />
    <glyph glyph-name="idieresis" unicode="&#x43f;" horiz-adv-x="2507" 
d="M745 1892v-1654q36 -105 81 -143t157 -38v-57h-979v57q79 0 132 19.5t77 87.5q0 16 4 39t4 35q8 20 8 61v1450q0 37 -8 53q0 15 -4 45t-4 41q-39 99 -209 99v73h2302v-73q-103 0 -170.5 -45t-67.5 -140q-8 -16 -8 -53v-1450q0 -41 8 -61q0 -181 238 -181v-57h-999v57
q88 0 142.5 19t78.5 88q0 23 8 69t8 66v1593h-799z" />
    <glyph glyph-name="eth" unicode="&#xf0;" horiz-adv-x="2372" 
d="M758 1835q205 272 594 291h4q219 0 403.5 -111t296 -335t111.5 -545v-50q-9 -371 -130 -624t-320.5 -377.5t-442.5 -132.5h-45q-286 0 -471 205v-709q0 -209 172 -209q20 -8 82 -8v-66h-996v66q238 0 238 225v2192q0 192 -164 192q-49 0 -74 -4v74q140 8 356.5 70.5
t385.5 138.5v-283zM758 1606v-885q0 -353 128 -490t298 -137q10 0 32 2t29 2q107 19 209.5 93t176 247.5t73.5 454.5v25q0 355 -92.5 553.5t-219 266.5t-253.5 68h-21q-245 -7 -360 -200z" />
    <glyph glyph-name="eth" unicode="&#x440;" horiz-adv-x="2372" 
d="M758 1835q205 272 594 291h4q219 0 403.5 -111t296 -335t111.5 -545v-50q-9 -371 -130 -624t-320.5 -377.5t-442.5 -132.5h-45q-286 0 -471 205v-709q0 -209 172 -209q20 -8 82 -8v-66h-996v66q238 0 238 225v2192q0 192 -164 192q-49 0 -74 -4v74q140 8 356.5 70.5
t385.5 138.5v-283zM758 1606v-885q0 -353 128 -490t298 -137q10 0 32 2t29 2q107 19 209.5 93t176 247.5t73.5 454.5v25q0 355 -92.5 553.5t-219 266.5t-253.5 68h-21q-245 -7 -360 -200z" />
    <glyph glyph-name="ntilde" unicode="&#xf1;" horiz-adv-x="2060" 
d="M1843 524q-329 -548 -905 -573h-25q-268 0 -467 128.5t-304 346.5t-105 475q0 340 137.5 619t371.5 438.5t511 159.5q196 0 355.5 -74t250 -185t90.5 -212q0 -7 -2 -21t-2 -20q-11 -78 -70 -127t-127 -49q-2 0 -53 12q-91 20 -137 84.5t-102 189.5t-112 187.5t-157 62.5
q-111 0 -223 -94.5t-188 -294.5t-80 -496q0 -287 94 -484.5t245.5 -292.5t323.5 -95q2 0 13 2t12 2q294 23 590 369z" />
    <glyph glyph-name="ntilde" unicode="&#x441;" horiz-adv-x="2060" 
d="M1843 524q-329 -548 -905 -573h-25q-268 0 -467 128.5t-304 346.5t-105 475q0 340 137.5 619t371.5 438.5t511 159.5q196 0 355.5 -74t250 -185t90.5 -212q0 -7 -2 -21t-2 -20q-11 -78 -70 -127t-127 -49q-2 0 -53 12q-91 20 -137 84.5t-102 189.5t-112 187.5t-157 62.5
q-111 0 -223 -94.5t-188 -294.5t-80 -496q0 -287 94 -484.5t245.5 -292.5t323.5 -95q2 0 13 2t12 2q294 23 590 369z" />
    <glyph glyph-name="ograve" unicode="&#xf2;" horiz-adv-x="2150" 
d="M500 0v57q136 0 190.5 50t54.5 192v1565h-24q-206 0 -367.5 -138.5t-218.5 -451.5h-94l94 786h1696l106 -786h-106q-43 216 -134 346.5t-208 187t-252 56.5h-20v-1565q0 -135 57 -188.5t188 -53.5v-57h-962z" />
    <glyph glyph-name="ograve" unicode="&#x442;" horiz-adv-x="2150" 
d="M500 0v57q136 0 190.5 50t54.5 192v1565h-24q-206 0 -367.5 -138.5t-218.5 -451.5h-94l94 786h1696l106 -786h-106q-43 216 -134 346.5t-208 187t-252 56.5h-20v-1565q0 -135 57 -188.5t188 -53.5v-57h-962z" />
    <glyph glyph-name="oacute" unicode="&#xf3;" horiz-adv-x="2417" 
d="M1376 647l336 1036q21 76 21 119q0 170 -242 180v78h733v-78q-128 0 -189 -62.5t-118 -211.5l-725 -2081q-16 -56 -88.5 -173.5t-214 -219.5t-340.5 -102h-12q-164 3 -262.5 93t-98.5 193q3 82 72.5 152t165.5 70q44 0 102 -21q44 -10 149 -95t162 -85h17q68 0 128 78.5
t85 154.5l98 271l-786 1740q-141 299 -336 299v78h1028v-78q-197 -5 -197 -151q0 -30 12.5 -65.5t12.5 -36.5z" />
    <glyph glyph-name="oacute" unicode="&#x443;" horiz-adv-x="2417" 
d="M1376 647l336 1036q21 76 21 119q0 170 -242 180v78h733v-78q-128 0 -189 -62.5t-118 -211.5l-725 -2081q-16 -56 -88.5 -173.5t-214 -219.5t-340.5 -102h-12q-164 3 -262.5 93t-98.5 193q3 82 72.5 152t165.5 70q44 0 102 -21q44 -10 149 -95t162 -85h17q68 0 128 78.5
t85 154.5l98 271l-786 1740q-141 299 -336 299v78h1028v-78q-197 -5 -197 -151q0 -30 12.5 -65.5t12.5 -36.5z" />
    <glyph glyph-name="ocircumflex" unicode="&#xf4;" horiz-adv-x="3215" 
d="M1274 127q-198 -176 -455 -176h-37q-174 12 -344.5 116.5t-288 328.5t-124.5 562q0 16 -2.5 33.5t-2.5 28.5q0 292 115 543t303 400t393 155h21q265 0 422 -197v520q0 262 -242 262h-4v70q201 0 357 46t352 179v-1077q104 101 241.5 149t257.5 48h33q235 -6 405 -163
t257.5 -396t87.5 -482v-20q-1 -325 -107 -578t-291 -390.5t-417 -137.5h-13q-303 11 -454 176v-696q0 -8 5.5 -30.5t6.5 -27.5q0 -88 72 -134t174 -46v-61h-967v61q90 0 159.5 47t69.5 133q17 47 17 58v696zM1274 299v1147q0 147 -56 255.5t-138.5 164t-157.5 55.5h-9
q-63 0 -147 -57t-150.5 -216t-66.5 -436q0 -15 2 -50t2 -52q10 -310 80.5 -520t171 -310.5t199.5 -107.5q150 0 270 127zM1737 1700v-1045q0 -168 57 -295.5t143 -196.5t164 -69q2 0 9 2t8 2q80 6 160 71t138 221t62 409v57q0 343 -76.5 558.5t-187 306t-219.5 94.5h-37
q-137 0 -221 -115z" />
    <glyph glyph-name="ocircumflex" unicode="&#x444;" horiz-adv-x="3215" 
d="M1274 127q-198 -176 -455 -176h-37q-174 12 -344.5 116.5t-288 328.5t-124.5 562q0 16 -2.5 33.5t-2.5 28.5q0 292 115 543t303 400t393 155h21q265 0 422 -197v520q0 262 -242 262h-4v70q201 0 357 46t352 179v-1077q104 101 241.5 149t257.5 48h33q235 -6 405 -163
t257.5 -396t87.5 -482v-20q-1 -325 -107 -578t-291 -390.5t-417 -137.5h-13q-303 11 -454 176v-696q0 -8 5.5 -30.5t6.5 -27.5q0 -88 72 -134t174 -46v-61h-967v61q90 0 159.5 47t69.5 133q17 47 17 58v696zM1274 299v1147q0 147 -56 255.5t-138.5 164t-157.5 55.5h-9
q-63 0 -147 -57t-150.5 -216t-66.5 -436q0 -15 2 -50t2 -52q10 -310 80.5 -520t171 -310.5t199.5 -107.5q150 0 270 127zM1737 1700v-1045q0 -168 57 -295.5t143 -196.5t164 -69q2 0 9 2t8 2q80 6 160 71t138 221t62 409v57q0 343 -76.5 558.5t-187 306t-219.5 94.5h-37
q-137 0 -221 -115z" />
    <glyph glyph-name="otilde" unicode="&#xf5;" horiz-adv-x="2417" 
d="M1184 1360l278 377q17 79 17 114q0 131 -119 131h-41v78h721v-78q-80 0 -142.5 -39t-111 -93.5t-115.5 -129.5l-352 -532l561 -893q74 -110 138 -176t145 -66q25 0 49 8v-61h-1028v61l8 -4q82 0 112 37t44 78q0 37 -29 107l-352 512l-271 -439q-10 -15 -16.5 -32.5
t-7.5 -20.5q-45 -45 -45 -90q0 -57 68 -104.5t141 -47.5q4 0 16 2t16 2v-61h-831v61q144 0 233 57t164 189l434 656l-520 823q-84 196 -258 196v78h1028v-78h-28q-120 0 -144 -32q-33 -28 -33 -66t54 -143z" />
    <glyph glyph-name="otilde" unicode="&#x445;" horiz-adv-x="2417" 
d="M1184 1360l278 377q17 79 17 114q0 131 -119 131h-41v78h721v-78q-80 0 -142.5 -39t-111 -93.5t-115.5 -129.5l-352 -532l561 -893q74 -110 138 -176t145 -66q25 0 49 8v-61h-1028v61l8 -4q82 0 112 37t44 78q0 37 -29 107l-352 512l-271 -439q-10 -15 -16.5 -32.5
t-7.5 -20.5q-45 -45 -45 -90q0 -57 68 -104.5t141 -47.5q4 0 16 2t16 2v-61h-831v61q144 0 233 57t164 189l434 656l-520 823q-84 196 -258 196v78h1028v-78h-28q-120 0 -144 -32q-33 -28 -33 -66t54 -143z" />
    <glyph glyph-name="odieresis" unicode="&#xf6;" horiz-adv-x="2507" 
d="M1462 156v1593q0 37 -4 53q0 94 -69.5 139.5t-167.5 45.5v73h979v-73q-92 0 -145 -17.5t-73 -81.5q-8 -15 -11 -35.5t-9 -50.5q0 -7 -4 -25t-4 -28v-1462q0 -103 91.5 -168.5t215.5 -65.5q6 0 23 2t22 2v-725h-94v37q0 168 -84 313t-253 231.5t-413 86.5h-1429v57
q225 0 225 181q1 7 6.5 25t5.5 32v1454q0 5 -12 53q0 94 -66.5 139.5t-158.5 45.5v73h975v-73q-246 0 -246 -238v-1593h700z" />
    <glyph glyph-name="odieresis" unicode="&#x446;" horiz-adv-x="2507" 
d="M1462 156v1593q0 37 -4 53q0 94 -69.5 139.5t-167.5 45.5v73h979v-73q-92 0 -145 -17.5t-73 -81.5q-8 -15 -11 -35.5t-9 -50.5q0 -7 -4 -25t-4 -28v-1462q0 -103 91.5 -168.5t215.5 -65.5q6 0 23 2t22 2v-725h-94v37q0 168 -84 313t-253 231.5t-413 86.5h-1429v57
q225 0 225 181q1 7 6.5 25t5.5 32v1454q0 5 -12 53q0 94 -66.5 139.5t-158.5 45.5v73h975v-73q-246 0 -246 -238v-1593h700z" />
    <glyph glyph-name="divide" unicode="&#xf7;" horiz-adv-x="2327" 
d="M1389 893q-365 -111 -623 -111q-309 20 -400.5 176.5t-91.5 360.5v430q0 103 -39.5 170.5t-181.5 67.5h-16v73h967v-73h-21q-144 0 -180.5 -62.5t-36.5 -175.5v-418q0 -163 51.5 -268t243.5 -105l8 5q82 5 193 45.5t127 56.5v684q0 113 -42 175.5t-180 62.5h-20v73h971
v-73h-25q-144 0 -182.5 -62.5t-38.5 -175.5v-1454q0 -129 61 -183.5t185 -54.5v-57h-971v57q155 0 198.5 63t43.5 175v598z" />
    <glyph glyph-name="divide" unicode="&#x447;" horiz-adv-x="2327" 
d="M1389 893q-365 -111 -623 -111q-309 20 -400.5 176.5t-91.5 360.5v430q0 103 -39.5 170.5t-181.5 67.5h-16v73h967v-73h-21q-144 0 -180.5 -62.5t-36.5 -175.5v-418q0 -163 51.5 -268t243.5 -105l8 5q82 5 193 45.5t127 56.5v684q0 113 -42 175.5t-180 62.5h-20v73h971
v-73h-25q-144 0 -182.5 -62.5t-38.5 -175.5v-1454q0 -129 61 -183.5t185 -54.5v-57h-971v57q155 0 198.5 63t43.5 175v598z" />
    <glyph glyph-name="oslash" unicode="&#xf8;" horiz-adv-x="3617" 
d="M2601 180v1569q0 131 -51.5 184.5t-165.5 53.5h-29v73h983v-73h-20q-230 0 -230 -226q0 -2 2 -6t2 -6v-1462q0 -113 44.5 -167t152.5 -54q20 0 52 4.5t63 7.5v-78h-3392v57q230 0 230 181q12 30 12 57v1454q0 116 -44.5 177t-176.5 61h-21v73h959v-73h-33
q-115 0 -164 -53t-49 -185v-1569h696v1569q0 130 -53.5 184t-167.5 54h-29v73h971v-73h-33q-114 0 -161 -53t-47 -185v-1569h700z" />
    <glyph glyph-name="oslash" unicode="&#x448;" horiz-adv-x="3617" 
d="M2601 180v1569q0 131 -51.5 184.5t-165.5 53.5h-29v73h983v-73h-20q-230 0 -230 -226q0 -2 2 -6t2 -6v-1462q0 -113 44.5 -167t152.5 -54q20 0 52 4.5t63 7.5v-78h-3392v57q230 0 230 181q12 30 12 57v1454q0 116 -44.5 177t-176.5 61h-21v73h959v-73h-33
q-115 0 -164 -53t-49 -185v-1569h696v1569q0 130 -53.5 184t-167.5 54h-29v73h971v-73h-33q-114 0 -161 -53t-47 -185v-1569h700z" />
    <glyph glyph-name="ugrave" unicode="&#xf9;" horiz-adv-x="3617" 
d="M2601 180v1569q0 5 -12 53q0 94 -68 139.5t-166 45.5v73h983v-73q-246 0 -246 -238v-1462q0 -113 44.5 -167t152.5 -54q20 0 52 4.5t63 7.5v-746h-90v58q0 179 -96 316t-297 215.5t-508 78.5h-2401v57q230 0 230 181q12 30 12 57v1454q0 29 -12 53q0 90 -67 137.5
t-163 47.5v73h959v-73q-246 0 -246 -238v-1569h696v1569q0 98 -75 168t-175 70v73h971v-73q-103 0 -168 -45t-65 -140q-8 -16 -8 -53v-1569h700z" />
    <glyph glyph-name="ugrave" unicode="&#x449;" horiz-adv-x="3617" 
d="M2601 180v1569q0 5 -12 53q0 94 -68 139.5t-166 45.5v73h983v-73q-246 0 -246 -238v-1462q0 -113 44.5 -167t152.5 -54q20 0 52 4.5t63 7.5v-746h-90v58q0 179 -96 316t-297 215.5t-508 78.5h-2401v57q230 0 230 181q12 30 12 57v1454q0 29 -12 53q0 90 -67 137.5
t-163 47.5v73h959v-73q-246 0 -246 -238v-1569h696v1569q0 98 -75 168t-175 70v73h971v-73q-103 0 -168 -45t-65 -140q-8 -16 -8 -53v-1569h700z" />
    <glyph glyph-name="uacute" unicode="&#xfa;" horiz-adv-x="2462" 
d="M1184 1167q167 54 352 54q188 0 355.5 -62t272.5 -191.5t105 -316.5v-53q-21 -267 -188.5 -400.5t-343 -165.5t-324.5 -32h-950v57q135 0 190.5 53.5t55.5 184.5v1597h-78q-184 0 -293 -77.5t-163.5 -209.5t-92.5 -339h-78l78 794h1335v-73q-126 0 -179.5 -57t-53.5 -181
v-582zM1184 1008l-8 -799q75 -82 192 -82q2 0 6 -2t6 -2q165 0 275 129t119 330q0 129 -55.5 234.5t-150.5 166.5t-208 61q-90 0 -176 -36z" />
    <glyph glyph-name="uacute" unicode="&#x44a;" horiz-adv-x="2462" 
d="M1184 1167q167 54 352 54q188 0 355.5 -62t272.5 -191.5t105 -316.5v-53q-21 -267 -188.5 -400.5t-343 -165.5t-324.5 -32h-950v57q135 0 190.5 53.5t55.5 184.5v1597h-78q-184 0 -293 -77.5t-163.5 -209.5t-92.5 -339h-78l78 794h1335v-73q-126 0 -179.5 -57t-53.5 -181
v-582zM1184 1008l-8 -799q75 -82 192 -82q2 0 6 -2t6 -2q165 0 275 129t119 330q0 129 -55.5 234.5t-150.5 166.5t-208 61q-90 0 -176 -36z" />
    <glyph glyph-name="ucircumflex" unicode="&#xfb;" horiz-adv-x="3039" 
d="M2126 299v1450q0 37 -8 53q0 95 -68 140t-174 45v73h963v-73h-21q-225 0 -225 -213q0 -6 2 -15t2 -10v-1454q0 -116 42 -177t200 -61v-57h-959v61q2 0 6 -2t6 -2q123 0 178.5 56.5t55.5 185.5zM745 1167q162 62 349 62q184 0 349.5 -66.5t268.5 -197t103 -310.5v-57
q-25 -380 -298.5 -489t-545.5 -109h-938v57q124 0 176.5 52.5t52.5 185.5v1454q0 131 -48.5 184.5t-156.5 53.5h-24v73h950v-73q-131 0 -184.5 -57t-53.5 -181v-582zM745 1008l-8 -799q67 -82 197 -82q2 0 6 -2t6 -2q158 0 266 130t111 329v20q0 122 -53.5 224.5t-146 160
t-201.5 57.5q-90 0 -177 -36z" />
    <glyph glyph-name="ucircumflex" unicode="&#x44b;" horiz-adv-x="3039" 
d="M2126 299v1450q0 37 -8 53q0 95 -68 140t-174 45v73h963v-73h-21q-225 0 -225 -213q0 -6 2 -15t2 -10v-1454q0 -116 42 -177t200 -61v-57h-959v61q2 0 6 -2t6 -2q123 0 178.5 56.5t55.5 185.5zM745 1167q162 62 349 62q184 0 349.5 -66.5t268.5 -197t103 -310.5v-57
q-25 -380 -298.5 -489t-545.5 -109h-938v57q124 0 176.5 52.5t52.5 185.5v1454q0 131 -48.5 184.5t-156.5 53.5h-24v73h950v-73q-131 0 -184.5 -57t-53.5 -181v-582zM745 1008l-8 -799q67 -82 197 -82q2 0 6 -2t6 -2q158 0 266 130t111 329v20q0 122 -53.5 224.5t-146 160
t-201.5 57.5q-90 0 -177 -36z" />
    <glyph glyph-name="udieresis" unicode="&#xfc;" horiz-adv-x="2060" 
d="M766 1167q154 62 352 62q182 0 350 -66t271.5 -197t103.5 -315v-53q-22 -267 -187.5 -400.5t-340 -165.5t-324.5 -32h-946v57q131 0 184.5 52.5t53.5 185.5v1454q0 131 -49 184.5t-160 53.5h-29v73h959v-73q-238 0 -238 -238v-582zM766 1008l-8 -799q82 -82 188 -82
q96 0 189 68.5t151.5 174t61.5 212.5v16q0 123 -56 226t-150.5 161.5t-203.5 58.5q-86 0 -172 -36z" />
    <glyph glyph-name="udieresis" unicode="&#x44c;" horiz-adv-x="2060" 
d="M766 1167q154 62 352 62q182 0 350 -66t271.5 -197t103.5 -315v-53q-22 -267 -187.5 -400.5t-340 -165.5t-324.5 -32h-946v57q131 0 184.5 52.5t53.5 185.5v1454q0 131 -49 184.5t-160 53.5h-29v73h959v-73q-238 0 -238 -238v-582zM766 1008l-8 -799q82 -82 188 -82
q96 0 189 68.5t151.5 174t61.5 212.5v16q0 123 -56 226t-150.5 161.5t-203.5 58.5q-86 0 -172 -36z" />
    <glyph glyph-name="yacute" unicode="&#xfd;" horiz-adv-x="2060" 
d="M594 958v181h766q-6 180 -74 352t-185.5 280.5t-260.5 108.5q-132 -4 -251.5 -86.5t-199.5 -213t-98 -261.5h-115l115 799h123q0 -14 -2 -37t-2 -29q0 -41 22 -55.5t96 -14.5q72 12 201 55.5t195.5 62t148.5 18.5q178 0 353 -89t296 -312t121 -595v-49
q-6 -363 -144.5 -618t-348 -379.5t-424.5 -124.5q-499 0 -889 528l86 82q123 -170 297 -278t334 -127q8 0 29 -2t28 -2q128 0 254 71.5t210.5 246.5t84.5 464v24h-766z" />
    <glyph glyph-name="yacute" unicode="&#x44d;" horiz-adv-x="2060" 
d="M594 958v181h766q-6 180 -74 352t-185.5 280.5t-260.5 108.5q-132 -4 -251.5 -86.5t-199.5 -213t-98 -261.5h-115l115 799h123q0 -14 -2 -37t-2 -29q0 -41 22 -55.5t96 -14.5q72 12 201 55.5t195.5 62t148.5 18.5q178 0 353 -89t296 -312t121 -595v-49
q-6 -363 -144.5 -618t-348 -379.5t-424.5 -124.5q-499 0 -889 528l86 82q123 -170 297 -278t334 -127q8 0 29 -2t28 -2q128 0 254 71.5t210.5 246.5t84.5 464v24h-766z" />
    <glyph glyph-name="thorn" unicode="&#xfe;" horiz-adv-x="3260" 
d="M233 299v1503q-29 94 -70 139.5t-118 45.5h-33v73h934v-73h-33q-217 0 -217 -218q0 -2 2 -10t2 -10v-619h349q25 171 93 338.5t190.5 314t303 238t416.5 97.5h21q206 0 384 -75t309.5 -211.5t204.5 -322t76 -399.5v-57q0 -214 -70.5 -413t-204.5 -354.5t-327 -245
t-430 -89.5h-12q-285 0 -505.5 126t-341 348.5t-120.5 496.5q0 4 2 14t2 14h-340v-655q0 -112 46.5 -175t199.5 -63v-57h-934v61q2 0 6 -2t7 -2q108 0 158 57t50 185zM1544 991q9 -934 492 -934q1 0 10 2t14 2q197 14 295.5 153.5t125 333.5t26.5 468q0 420 -89.5 689
t-373.5 269h-41q-463 -43 -463 -925q0 -8 2 -27t2 -31z" />
    <glyph glyph-name="thorn" unicode="&#x44e;" horiz-adv-x="3260" 
d="M233 299v1503q-29 94 -70 139.5t-118 45.5h-33v73h934v-73h-33q-217 0 -217 -218q0 -2 2 -10t2 -10v-619h349q25 171 93 338.5t190.5 314t303 238t416.5 97.5h21q206 0 384 -75t309.5 -211.5t204.5 -322t76 -399.5v-57q0 -214 -70.5 -413t-204.5 -354.5t-327 -245
t-430 -89.5h-12q-285 0 -505.5 126t-341 348.5t-120.5 496.5q0 4 2 14t2 14h-340v-655q0 -112 46.5 -175t199.5 -63v-57h-934v61q2 0 6 -2t7 -2q108 0 158 57t50 185zM1544 991q9 -934 492 -934q1 0 10 2t14 2q197 14 295.5 153.5t125 333.5t26.5 468q0 420 -89.5 689
t-373.5 269h-41q-463 -43 -463 -925q0 -8 2 -27t2 -31z" />
    <glyph glyph-name="ydieresis" unicode="&#xff;" horiz-adv-x="2327" 
d="M37 0v57q95 21 160 75t151 167l402 537q-236 27 -386.5 176.5t-150.5 363.5q0 11 2 35t2 35q66 614 852 614h1032v-73q-65 0 -86 -5q-196 0 -196 -225v-1470q0 -136 71 -183t211 -47v-57h-1020v57q132 0 201.5 49.5t69.5 180.5v549h-86l-435 -607q-57 -103 -57 -127
q0 -45 86 -45v-57h-823zM1352 1008v835q-90 45 -205 45q-112 0 -209 -57t-155 -159t-58 -226q0 -2 2 -6t2 -6q1 -136 66 -238t172 -155.5t233 -53.5q38 0 152 21z" />
    <glyph glyph-name="ydieresis" unicode="&#x44f;" horiz-adv-x="2327" 
d="M37 0v57q95 21 160 75t151 167l402 537q-236 27 -386.5 176.5t-150.5 363.5q0 11 2 35t2 35q66 614 852 614h1032v-73q-65 0 -86 -5q-196 0 -196 -225v-1470q0 -136 71 -183t211 -47v-57h-1020v57q132 0 201.5 49.5t69.5 180.5v549h-86l-435 -607q-57 -103 -57 -127
q0 -45 86 -45v-57h-823zM1352 1008v835q-90 45 -205 45q-112 0 -209 -57t-155 -159t-58 -226q0 -2 2 -6t2 -6q1 -136 66 -238t172 -155.5t233 -53.5q38 0 152 21z" />
    <glyph glyph-name="fraction" unicode="&#x2044;" horiz-adv-x="1929" 
d="M37 -295l1380 3625h303l-1388 -3625h-295z" />
    <glyph glyph-name="florin" unicode="&#x192;" 
 />
    <glyph glyph-name="guilsinglleft" unicode="&#x2039;" horiz-adv-x="2327" 
d="M20 1417l1979 1155l131 -229l-1589 -926l1589 -921l-131 -230z" />
    <glyph glyph-name="guilsinglright" unicode="&#x203a;" horiz-adv-x="2372" 
d="M2150 1417l-1998 -1151l-115 230l1581 921l-1581 926l115 229z" />
    <glyph glyph-name="fi" unicode="&#xf001;" 
 />
    <glyph glyph-name="fl" unicode="&#xf002;" 
 />
    <glyph glyph-name="dagger" unicode="&#x2020;" 
 />
    <glyph glyph-name="daggerdbl" unicode="&#x2021;" 
 />
    <glyph glyph-name="quotesinglbase" unicode="&#x201a;" 
 />
    <glyph glyph-name="quotedblbase" unicode="&#x201e;" 
 />
    <glyph glyph-name="ellipsis" unicode="&#x2026;" 
 />
    <glyph glyph-name="perthousand" unicode="&#x2030;" 
 />
    <glyph glyph-name="circumflex" unicode="&#x2c6;" horiz-adv-x="1659" 
d="M725 2486l-352 -356h-361l713 717l705 -717h-361z" />
    <glyph glyph-name="tilde" unicode="&#x2dc;" horiz-adv-x="2060" 
d="M1761 2847h103q-82 -241 -247.5 -366.5t-395.5 -125.5q-14 0 -46 4t-49 4q-85 13 -250 51t-271.5 59t-207.5 26h-41q-137 0 -241 -164h-86q95 301 210 398.5t261 105.5h78q131 0 305.5 -36t349.5 -72t307 -36q128 0 221 152z" />
    <glyph glyph-name="breve" unicode="&#x2d8;" 
 />
    <glyph glyph-name="dotaccent" unicode="&#x2d9;" 
 />
    <glyph glyph-name="ring" unicode="&#x2da;" 
 />
    <glyph glyph-name="hungarumlaut" unicode="&#x2dd;" 
 />
    <glyph glyph-name="ogonek" unicode="&#x2db;" 
 />
    <glyph glyph-name="caron" unicode="&#x2c7;" 
 />
    <glyph glyph-name="Lslash" unicode="&#x141;" 
 />
    <glyph glyph-name="OE" unicode="&#x152;" 
 />
    <glyph glyph-name="dotlessi" unicode="&#x131;" 
 />
    <glyph glyph-name="lslash" unicode="&#x142;" 
 />
    <glyph glyph-name="oe" unicode="&#x153;" 
 />
    <glyph glyph-name="Scaron" unicode="&#x160;" 
 />
    <glyph glyph-name="Ydieresis" unicode="&#x178;" horiz-adv-x="2327" 
d="M37 0v57q95 21 160 75t151 167l402 537q-236 27 -386.5 176.5t-150.5 363.5q0 11 2 35t2 35q66 614 852 614h1032v-73q-65 0 -86 -5q-196 0 -196 -225v-1470q0 -136 71 -183t211 -47v-57h-1020v57q132 0 201.5 49.5t69.5 180.5v549h-86l-435 -607q-57 -103 -57 -127
q0 -45 86 -45v-57h-823zM1352 1008v835q-90 45 -205 45q-112 0 -209 -57t-155 -159t-58 -226q0 -2 2 -6t2 -6q1 -136 66 -238t172 -155.5t233 -53.5q38 0 152 21z" />
    <glyph glyph-name="Zcaron" unicode="&#x17d;" 
 />
    <glyph glyph-name="trademark" unicode="&#x2122;" 
 />
    <glyph glyph-name="scaron" unicode="&#x161;" 
 />
    <glyph glyph-name="zcaron" unicode="&#x17e;" 
 />
    <glyph glyph-name="minus" unicode="&#x2212;" horiz-adv-x="1393" 
d="M45 1245h1143v-344h-1143v344z" />
    <glyph glyph-name="nonbreakingspace" unicode="&#xa0;" horiz-adv-x="90" 
 />
  </font>
</defs>
</svg>
