<svg width="20" height="21" viewBox="0 0 20 21" fill="none" xmlns="http://www.w3.org/2000/svg">
<g clip-path="url(#clip0)">
<path d="M14.5862 0.164062H5.41381C2.42858 0.164062 0 2.60253 0 5.59989V14.8097C0 17.8069 2.42858 20.2454 5.41381 20.2454H14.5863C17.5714 20.2454 20 17.8069 20 14.8097V5.59989C20 2.60253 17.5714 0.164063 14.5862 0.164063V0.164062ZM18.8275 14.8097C18.8275 17.1578 16.9249 19.0681 14.5862 19.0681H5.41381C3.0751 19.0681 1.17248 17.1578 1.17248 14.8097V5.59989C1.17248 3.25167 3.0751 1.34131 5.41381 1.34131H14.5863C16.9249 1.34131 18.8275 3.25167 18.8275 5.59989V14.8097Z" fill="#666666"/>
<path d="M9.99984 4.71484C6.9844 4.71484 4.53125 7.17797 4.53125 10.2057C4.53125 13.2334 6.9844 15.6965 9.99984 15.6965C13.0153 15.6965 15.4684 13.2334 15.4684 10.2057C15.4684 7.17797 13.0153 4.71484 9.99984 4.71484ZM9.99984 14.5193C7.63107 14.5193 5.70373 12.5842 5.70373 10.2057C5.70373 7.82727 7.63107 5.8921 9.99984 5.8921C12.3688 5.8921 14.2959 7.82727 14.2959 10.2057C14.2959 12.5842 12.3688 14.5193 9.99984 14.5193Z" fill="#666666"/>
<path d="M15.5993 2.76172C14.7082 2.76172 13.9834 3.48961 13.9834 4.38419C13.9834 5.27893 14.7082 6.00682 15.5993 6.00682C16.4904 6.00682 17.2154 5.27893 17.2154 4.38419C17.2154 3.48946 16.4904 2.76172 15.5993 2.76172ZM15.5993 4.82942C15.3549 4.82942 15.1559 4.62963 15.1559 4.38419C15.1559 4.1386 15.3549 3.93897 15.5993 3.93897C15.8439 3.93897 16.0429 4.1386 16.0429 4.38419C16.0429 4.62963 15.8439 4.82942 15.5993 4.82942Z" fill="#666666"/>
</g>
<defs>
<clipPath id="clip0">
<rect width="20" height="20.0814" fill="white" transform="translate(0 0.164062)"/>
</clipPath>
</defs>
</svg>
