<svg width="20" height="21" viewBox="0 0 20 21" fill="none" xmlns="http://www.w3.org/2000/svg">
<g clip-path="url(#clip0)">
<path d="M13.0786 9.30198L8.66015 6.87456C8.40609 6.73499 8.1058 6.74019 7.85678 6.88835C7.6076 7.03665 7.45898 7.29864 7.45898 7.58943V12.4026C7.45898 12.692 7.60669 12.9535 7.85418 13.102C7.98343 13.1795 8.12671 13.2184 8.27029 13.2184C8.40182 13.2184 8.53365 13.1858 8.65496 13.1202L13.0736 10.7346C13.3359 10.5929 13.4996 10.3191 13.5008 10.0199C13.5019 9.7207 13.3401 9.44569 13.0786 9.30198ZM8.63101 11.7971V8.19981L11.9333 10.0141L8.63101 11.7971Z" fill="#666666"/>
<path d="M19.8528 6.18747L19.8519 6.17828C19.835 6.01664 19.6664 4.57894 18.9703 3.84768C18.1657 2.98757 17.2535 2.88308 16.8148 2.83298C16.7785 2.82885 16.7452 2.82502 16.7155 2.82103L16.6805 2.81736C14.0365 2.62431 10.0434 2.59796 10.0035 2.59781L9.99996 2.59766L9.99645 2.59781C9.95647 2.59796 5.96342 2.62431 3.29558 2.81736L3.26033 2.82103C3.23195 2.82486 3.20067 2.82839 3.16664 2.83237C2.73299 2.88262 1.83059 2.98726 1.02371 3.87847C0.360716 4.60192 0.169067 6.00883 0.149383 6.16694L0.147094 6.18747C0.141143 6.25473 0 7.85591 0 9.46336V10.966C0 12.5735 0.141143 14.1747 0.147094 14.2421L0.148162 14.2522C0.165099 14.4112 0.333556 15.8226 1.02645 16.5541C1.78298 17.3854 2.73955 17.4954 3.25408 17.5546C3.33541 17.5639 3.40544 17.5719 3.4532 17.5803L3.49944 17.5868C5.02607 17.7326 9.81258 17.8045 10.0155 17.8074L10.0216 17.8075L10.0277 17.8074C10.0677 17.8072 14.0606 17.7809 16.7046 17.5878L16.7396 17.5841C16.773 17.5797 16.8105 17.5757 16.8517 17.5714C17.283 17.5255 18.1805 17.43 18.9762 16.5509C19.6392 15.8273 19.831 14.4204 19.8505 14.2624L19.8528 14.2419C19.8588 14.1745 20.0001 12.5735 20.0001 10.966V9.46336C19.9999 7.85591 19.8588 6.25488 19.8528 6.18747ZM18.8279 10.966C18.8279 12.4538 18.6985 13.9861 18.6863 14.1267C18.6366 14.5142 18.4344 15.4043 18.1113 15.7568C17.6133 16.307 17.1017 16.3615 16.7281 16.4012C16.683 16.406 16.6412 16.4106 16.6033 16.4153C14.046 16.601 10.2037 16.6295 10.0267 16.6306C9.82815 16.6277 5.11167 16.5552 3.63158 16.4172C3.55574 16.4048 3.4738 16.3953 3.38744 16.3854C2.94936 16.335 2.34969 16.2661 1.88857 15.7568L1.87774 15.7452C1.56036 15.4132 1.36398 14.5808 1.31408 14.1313C1.30477 14.025 1.17202 12.4747 1.17202 10.966V9.46336C1.17202 7.97725 1.30111 6.4467 1.31362 6.30314C1.37298 5.84674 1.57897 5.01053 1.88857 4.67255C2.40188 4.10568 2.9431 4.04287 3.30107 4.00135C3.33525 3.99736 3.36714 3.99369 3.39659 3.98986C5.99119 3.80325 9.86111 3.77552 9.99996 3.77445C10.1388 3.77537 14.0074 3.80325 16.5789 3.98986C16.6105 3.99384 16.645 3.99782 16.6821 4.00211C17.0503 4.04425 17.6067 4.10798 18.1175 4.65493L18.1222 4.65999C18.4396 4.99199 18.6359 5.83892 18.6858 6.29747C18.6947 6.39783 18.8279 7.95151 18.8279 9.46336V10.966Z" fill="#666666"/>
</g>
<defs>
<clipPath id="clip0">
<rect width="20" height="20.0813" fill="white" transform="translate(0 0.164062)"/>
</clipPath>
</defs>
</svg>
