<svg width="20" height="21" viewBox="0 0 20 21" fill="none" xmlns="http://www.w3.org/2000/svg">
<g clip-path="url(#clip0)">
<path d="M19.8706 3.99708C19.7086 3.79484 19.4335 3.72314 19.1939 3.82073C19.1558 3.83621 19.1181 3.85138 19.0807 3.86624C19.2313 3.60563 19.3547 3.32894 19.4522 3.03478C19.5256 2.81293 19.4614 2.56856 19.2885 2.41214C19.1158 2.25556 18.8671 2.21664 18.655 2.31286C18.6522 2.31408 18.6379 2.32082 18.6135 2.33308C17.6842 2.80113 16.9596 3.07568 16.6301 3.14018C16.6071 3.11996 16.5827 3.09836 16.5616 3.07951C16.1536 2.71641 15.3046 1.96875 13.5884 1.96875C12.6543 1.96875 11.3175 2.33691 10.3672 3.39206C9.6175 4.22475 9.24396 5.31513 9.25266 6.64084C6.50654 6.30317 4.25464 5.06157 2.38498 2.85874C2.25498 2.70553 2.05585 2.62984 1.85718 2.65788C1.65867 2.68592 1.48822 2.81415 1.40537 2.99755C1.15223 3.55829 0.821111 4.42269 0.866887 5.45118C0.897099 6.12606 1.08402 6.76464 1.42521 7.36169C1.07608 7.34392 0.787541 7.63609 0.810735 7.98816C0.907781 9.46019 1.44596 10.5998 2.41596 11.3948C2.23148 11.5434 2.15412 11.7887 2.21943 12.0166C2.5246 13.0799 3.4177 14.2351 4.78275 14.7888C3.54908 15.4136 2.13794 15.6759 0.634038 15.5515C0.363347 15.5292 0.11234 15.6968 0.0285692 15.9565C-0.0552016 16.2162 0.0499315 16.4997 0.282628 16.6411C2.23102 17.8255 4.34345 18.426 6.56116 18.426C11.3369 18.426 14.1074 16.0445 15.5906 14.0468C17.4204 11.582 18.0696 8.69093 18.0696 6.96411C18.0696 6.73783 18.0629 6.69186 18.0698 6.62797C18.2976 6.4262 18.9264 6.12101 19.8973 4.69847C20.0437 4.48443 20.0327 4.19931 19.8706 3.99708ZM16.8959 6.77751C16.8969 6.81826 16.8979 6.8728 16.8979 6.96411C16.8979 8.51091 16.3094 11.1096 14.6511 13.3436C13.3281 15.1254 10.8509 17.2495 6.56131 17.2495C5.31696 17.2495 4.10831 17.0393 2.94819 16.6225C4.30759 16.3844 5.5608 15.8353 6.64844 14.9922C6.84238 14.8419 6.9228 14.5864 6.84986 14.3517C6.77707 14.1168 6.5665 13.9523 6.3219 13.9391C5.15201 13.8761 4.2287 13.2316 3.71448 12.4672C3.91605 12.4542 4.15607 12.4223 4.51343 12.3592C4.7797 12.3122 4.97928 12.0883 4.99653 11.8173C5.01377 11.5464 4.84424 11.2988 4.58606 11.2181C3.24299 10.7982 2.44449 10.0321 2.1265 8.83862C2.33646 8.8927 2.58808 8.93499 3.00449 8.98739C3.26191 9.02002 3.50986 8.87846 3.61408 8.63976C3.71814 8.40121 3.6536 8.12222 3.45539 7.95415C1.96033 6.68696 1.88175 5.39403 2.15702 4.35068C4.21619 6.45347 6.75052 7.6655 9.83448 7.878C10.1973 7.90298 10.4938 7.5935 10.4575 7.23208C10.3266 5.9272 10.5886 4.90086 11.2365 4.18139C11.9303 3.4109 12.937 3.13758 13.5884 3.13758C14.8601 3.13758 15.4163 3.63244 15.7843 3.96C15.999 4.15105 16.2017 4.33153 16.5075 4.33153C16.7214 4.33153 16.998 4.27056 17.304 4.17296C17.1955 4.26535 17.0795 4.35436 16.9558 4.44016C16.7382 4.59122 16.6484 4.86991 16.7366 5.12025C16.8248 5.37059 17.069 5.5307 17.333 5.51078C17.4343 5.50312 17.5367 5.49255 17.64 5.47891C17.2339 5.78855 16.8799 5.97715 16.8959 6.77751Z" fill="#666666"/>
</g>
<defs>
<clipPath id="clip0">
<rect width="20" height="20.0814" fill="white" transform="translate(0 0.164062)"/>
</clipPath>
</defs>
</svg>
