<svg width="20" height="21" viewBox="0 0 20 21" fill="none" xmlns="http://www.w3.org/2000/svg">
<g clip-path="url(#clip0)">
<path d="M11.3497 20.2064H8.14057C7.60455 20.2064 7.16852 19.7694 7.16852 19.2323V11.9787H5.29627C4.76025 11.9787 4.32422 11.5416 4.32422 11.0046V7.8965C4.32422 7.35935 4.76025 6.9224 5.29627 6.9224H7.16852V5.36596C7.16852 3.82269 7.6521 2.50969 8.56682 1.56914C9.48567 0.624307 10.7698 0.125 12.2803 0.125L14.7277 0.128983C15.2628 0.129903 15.6981 0.566853 15.6981 1.10308V3.98892C15.6981 4.52607 15.2622 4.96302 14.7263 4.96302L13.0785 4.96363C12.576 4.96363 12.448 5.0646 12.4206 5.09555C12.3755 5.14687 12.3219 5.29196 12.3219 5.6926V6.92225H14.6025C14.7742 6.92225 14.9405 6.96469 15.0835 7.04466C15.3918 7.21733 15.5835 7.54382 15.5835 7.89666L15.5823 11.0048C15.5823 11.5416 15.1463 11.9786 14.6103 11.9786H12.3219V19.2323C12.3219 19.7694 11.8857 20.2064 11.3497 20.2064ZM8.3433 19.0291H11.1469V11.4517C11.1469 11.093 11.4382 10.8013 11.7959 10.8013H14.4075L14.4086 8.09966H11.7958C11.438 8.09966 11.1469 7.80795 11.1469 7.44929V5.6926C11.1469 5.23267 11.1936 4.70961 11.54 4.31648C11.9586 3.84123 12.6183 3.78638 13.0782 3.78638L14.5233 3.78577V1.30593L12.2794 1.30225C9.85183 1.30225 8.3433 2.85947 8.3433 5.36596V7.44929C8.3433 7.8078 8.0522 8.09966 7.69445 8.09966H5.499V10.8013H7.69445C8.0522 10.8013 8.3433 11.093 8.3433 11.4517V19.0291ZM14.7254 1.30624H14.7255H14.7254Z" fill="#666666"/>
</g>
<defs>
<clipPath id="clip0">
<rect width="20" height="20.0813" fill="white" transform="translate(0 0.164062)"/>
</clipPath>
</defs>
</svg>
